<svg width="108" height="107" viewBox="0 0 108 107" fill="none" xmlns="http://www.w3.org/2000/svg">
<path fill-rule="evenodd" clip-rule="evenodd" d="M13.0212 26C10.4501 26 7.93667 25.2376 5.79883 23.8091C3.66099 22.3806 1.99475 20.3503 1.01081 17.9749C0.0268728 15.5994 -0.23057 12.9856 0.271037 10.4638C0.772645 7.94208 2.01077 5.6257 3.82885 3.80762C5.64693 1.98953 7.9633 0.751405 10.4851 0.249797C13.0068 -0.251811 15.6207 0.00563268 17.9961 0.989572C20.3716 1.97351 22.4019 3.63975 23.8304 5.77759C25.2588 7.91543 26.0212 10.4288 26.0212 13C26.011 16.4447 24.638 19.7453 22.2023 22.181C19.7665 24.6168 16.4659 25.9897 13.0212 26ZM19.5212 6.5L13.1838 9.42501C11.5648 10.2315 10.2527 11.5435 9.44625 13.1625L6.52125 19.5L12.8587 16.575C14.4777 15.7685 15.7898 14.4565 16.5962 12.8375L19.5212 6.5Z" fill="#AAAAAA"/>
<path d="M94.0212 13C97.6125 13 100.521 10.0831 100.521 6.5C100.521 2.90875 97.6125 0 94.0212 0C90.43 0 87.5212 2.90875 87.5212 6.5C87.5212 10.0831 90.43 13 94.0212 13ZM94.0212 16.25C89.6906 16.25 81.0212 18.4194 81.0212 22.75V26H107.021V22.75C107.021 18.4194 98.3519 16.25 94.0212 16.25Z" fill="#AAAAAA"/>
<path d="M41.2031 12.4545H49.4758V14.2273H41.2031V12.4545ZM41.2031 9.5H49.4758V11.2727H41.2031V9.5ZM41.2031 15.4091H49.4758V17.1818H41.2031V15.4091ZM50.6576 3H29.3849C28.0849 3 27.0212 4.06364 27.0212 5.36364V20.7273C27.0212 22.0273 28.0849 23.0909 29.3849 23.0909H50.6576C51.9576 23.0909 53.0212 22.0273 53.0212 20.7273V5.36364C53.0212 4.06364 51.9576 3 50.6576 3ZM50.6576 20.7273H40.0212V5.36364H50.6576V20.7273Z" fill="#AAAAAA"/>
<path d="M104.072 41.274C104.124 40.858 104.162 40.442 104.162 40C104.162 39.558 104.124 39.142 104.072 38.726L106.784 36.581C107.028 36.386 107.092 36.035 106.938 35.749L104.368 31.251C104.213 30.965 103.867 30.861 103.584 30.965L100.384 32.265C99.7157 31.745 98.9961 31.316 98.2122 30.991L97.7239 27.546C97.6853 27.234 97.4155 27 97.0942 27H91.9539C91.6327 27 91.3628 27.234 91.3243 27.546L90.8359 30.991C90.052 31.316 89.3324 31.758 88.6642 32.265L85.4644 30.965C85.1688 30.848 84.8347 30.965 84.6805 31.251L82.1103 35.749C81.9433 36.035 82.0204 36.386 82.2645 36.581L84.976 38.726C84.9246 39.142 84.8861 39.571 84.8861 40C84.8861 40.429 84.9246 40.858 84.976 41.274L82.2645 43.419C82.0204 43.614 81.9561 43.965 82.1103 44.251L84.6805 48.749C84.8347 49.035 85.1816 49.139 85.4644 49.035L88.6642 47.735C89.3324 48.255 90.052 48.684 90.8359 49.009L91.3243 52.454C91.3628 52.766 91.6327 53 91.9539 53H97.0942C97.4155 53 97.6853 52.766 97.7239 52.454L98.2122 49.009C98.9961 48.684 99.7157 48.242 100.384 47.735L103.584 49.035C103.879 49.152 104.213 49.035 104.368 48.749L106.938 44.251C107.092 43.965 107.028 43.614 106.784 43.419L104.072 41.274ZM94.5241 44.55C92.0439 44.55 90.0263 42.509 90.0263 40C90.0263 37.491 92.0439 35.45 94.5241 35.45C97.0043 35.45 99.0218 37.491 99.0218 40C99.0218 42.509 97.0043 44.55 94.5241 44.55Z" fill="#AAAAAA"/>
<path d="M2.45961 32.3838L13.0062 43.2325L23.5845 32.4146L26.0188 34.5849L12.9999 47.5658L0.0189629 34.5469L2.45961 32.3838Z" fill="#AAAAAA"/>
<path d="M33.0212 50.5625L43.0212 40L33.0212 29.4375L35.0213 27L47.0212 40L35.0213 53L33.0212 50.5625Z" fill="#AAAAAA"/>
<path d="M72.8886 16.7233H71.7594L71.3591 16.3373C72.7599 14.7078 73.6033 12.5923 73.6033 10.291C73.6033 5.15952 69.4438 1 64.3123 1C59.1808 1 55.0212 5.15952 55.0212 10.291C55.0212 15.4225 59.1808 19.582 64.3123 19.582C66.6136 19.582 68.7291 18.7387 70.3586 17.3379L70.7445 17.7381V18.8674L77.8915 26L80.0212 23.8702L72.8886 16.7233ZM64.3123 16.7233C60.7531 16.7233 57.88 13.8502 57.88 10.291C57.88 6.73185 60.7531 3.85878 64.3123 3.85878C67.8714 3.85878 70.7445 6.73185 70.7445 10.291C70.7445 13.8502 67.8714 16.7233 64.3123 16.7233Z" fill="#AAAAAA"/>
<path d="M80.0212 38.375H60.245L69.3287 29.2912L67.0212 27L54.0212 40L67.0212 53L69.3125 50.7087L60.245 41.625H80.0212V38.375Z" fill="#AAAAAA"/>
<path fill-rule="evenodd" clip-rule="evenodd" d="M13.0425 80C10.4713 80 7.95791 79.2376 5.82007 77.8091C3.68223 76.3806 2.01599 74.3503 1.03205 71.9749C0.0481131 69.5994 -0.20933 66.9856 0.292278 64.4638C0.793885 61.9421 2.03201 59.6257 3.85009 57.8076C5.66817 55.9895 7.98455 54.7514 10.5063 54.2498C13.0281 53.7482 15.6419 54.0056 18.0174 54.9896C20.3928 55.9735 22.4231 57.6398 23.8516 59.7776C25.2801 61.9154 26.0425 64.4288 26.0425 67C26.0322 70.4447 24.6592 73.7453 22.2235 76.181C19.7878 78.6168 16.4871 79.9897 13.0425 80ZM19.5425 60.5L13.205 63.425C11.586 64.2315 10.274 65.5435 9.46749 67.1625L6.54249 73.5L12.88 70.575C14.4989 69.7685 15.811 68.4565 16.6175 66.8375L19.5425 60.5Z" fill="#DF5148"/>
<path d="M94.0425 67C97.6337 67 100.542 64.0831 100.542 60.5C100.542 56.9088 97.6337 54 94.0425 54C90.4512 54 87.5425 56.9088 87.5425 60.5C87.5425 64.0831 90.4512 67 94.0425 67ZM94.0425 70.25C89.7119 70.25 81.0425 72.4194 81.0425 76.75V80H107.042V76.75C107.042 72.4194 98.3731 70.25 94.0425 70.25Z" fill="#DF5148"/>
<path d="M41.2243 66.4545H49.497V68.2273H41.2243V66.4545ZM41.2243 63.5H49.497V65.2727H41.2243V63.5ZM41.2243 69.4091H49.497V71.1818H41.2243V69.4091ZM50.6788 57H29.4061C28.1061 57 27.0425 58.0636 27.0425 59.3636V74.7273C27.0425 76.0273 28.1061 77.0909 29.4061 77.0909H50.6788C51.9788 77.0909 53.0425 76.0273 53.0425 74.7273V59.3636C53.0425 58.0636 51.9788 57 50.6788 57ZM50.6788 74.7273H40.0425V59.3636H50.6788V74.7273Z" fill="#DF5148"/>
<path d="M104.093 95.274C104.145 94.858 104.183 94.442 104.183 94C104.183 93.558 104.145 93.142 104.093 92.726L106.805 90.581C107.049 90.386 107.113 90.035 106.959 89.749L104.389 85.251C104.235 84.965 103.888 84.861 103.605 84.965L100.405 86.265C99.737 85.745 99.0173 85.316 98.2335 84.991L97.7451 81.546C97.7066 81.234 97.4367 81 97.1155 81H91.9752C91.6539 81 91.3841 81.234 91.3455 81.546L90.8572 84.991C90.0733 85.316 89.3536 85.758 88.6854 86.265L85.4856 84.965C85.19 84.848 84.8559 84.965 84.7017 85.251L82.1316 89.749C81.9645 90.035 82.0416 90.386 82.2858 90.581L84.9973 92.726C84.9459 93.142 84.9073 93.571 84.9073 94C84.9073 94.429 84.9459 94.858 84.9973 95.274L82.2858 97.419C82.0416 97.614 81.9774 97.965 82.1316 98.251L84.7017 102.749C84.8559 103.035 85.2029 103.139 85.4856 103.035L88.6854 101.735C89.3536 102.255 90.0733 102.684 90.8572 103.009L91.3455 106.454C91.3841 106.766 91.6539 107 91.9752 107H97.1155C97.4367 107 97.7066 106.766 97.7451 106.454L98.2335 103.009C99.0173 102.684 99.737 102.242 100.405 101.735L103.605 103.035C103.901 103.152 104.235 103.035 104.389 102.749L106.959 98.251C107.113 97.965 107.049 97.614 106.805 97.419L104.093 95.274ZM94.5453 98.55C92.0651 98.55 90.0476 96.509 90.0476 94C90.0476 91.491 92.0651 89.45 94.5453 89.45C97.0255 89.45 99.0431 91.491 99.0431 94C99.0431 96.509 97.0255 98.55 94.5453 98.55Z" fill="#DF5148"/>
<path d="M2.48085 86.3838L13.0275 97.2325L23.6057 86.4146L26.0401 88.5849L13.0212 101.566L0.0402031 88.5469L2.48085 86.3838Z" fill="#DF5148"/>
<path d="M33.0425 104.562L43.0424 94L33.0425 83.4375L35.0425 81L47.0425 94L35.0425 107L33.0425 104.562Z" fill="#DF5148"/>
<path d="M72.9098 70.7233H71.7806L71.3804 70.3373C72.7812 68.7078 73.6245 66.5923 73.6245 64.291C73.6245 59.1595 69.465 55 64.3335 55C59.202 55 55.0425 59.1595 55.0425 64.291C55.0425 69.4225 59.202 73.582 64.3335 73.582C66.6348 73.582 68.7503 72.7387 70.3798 71.3379L70.7658 71.7381V72.8674L77.9127 80L80.0425 77.8702L72.9098 70.7233ZM64.3335 70.7233C60.7743 70.7233 57.9013 67.8502 57.9013 64.291C57.9013 60.7318 60.7743 57.8588 64.3335 57.8588C67.8927 57.8588 70.7658 60.7318 70.7658 64.291C70.7658 67.8502 67.8927 70.7233 64.3335 70.7233Z" fill="#DF5148"/>
<path d="M80.0425 92.375H60.2662L69.35 83.2912L67.0425 81L54.0425 94L67.0425 107L69.3337 104.709L60.2662 95.625H80.0425V92.375Z" fill="#DF5148"/>
</svg>
