<svg width="431" height="394" viewBox="0 0 431 394" fill="none" xmlns="http://www.w3.org/2000/svg">
<rect width="431" height="394" fill="white"/>
<circle cx="169" cy="187" r="54" fill="#D6EFF8"/>
<circle cx="66" cy="295" r="54" fill="#D6EFF8"/>
<circle cx="292" cy="131" r="54" fill="#D6EFF8"/>
<circle cx="128" cy="80" r="54" fill="#D6EFF8"/>
<path d="M326 241C326 270.823 301.823 295 272 295C242.177 295 218 270.823 218 241C218 211.177 242.177 187 272 187C301.823 187 326 211.177 326 241Z" fill="#D6EFF8"/>
<circle cx="182" cy="309" r="54" fill="#D6EFF8"/>
<circle cx="54" cy="175" r="54" fill="#D6EFF8"/>
<circle cx="377" cy="208" r="54" fill="#D6EFF8"/>
<path d="M102.015 84.07C101.838 84.07 101.689 84.0093 101.567 83.888C101.446 83.7667 101.385 83.6173 101.385 83.44V74.354C101.385 74.1767 101.446 74.0273 101.567 73.906C101.689 73.7753 101.838 73.71 102.015 73.71C102.202 73.71 102.356 73.7707 102.477 73.892C102.599 74.0133 102.659 74.1673 102.659 74.354V83.44C102.659 83.6173 102.594 83.7667 102.463 83.888C102.342 84.0093 102.193 84.07 102.015 84.07ZM108.064 84.14C106.925 84.14 106.034 83.818 105.39 83.174C104.755 82.5207 104.438 81.606 104.438 80.43C104.438 79.7673 104.559 79.156 104.802 78.596C105.044 78.036 105.418 77.5833 105.922 77.238C106.426 76.8927 107.046 76.72 107.784 76.72C108.474 76.72 109.072 76.8833 109.576 77.21C110.08 77.5273 110.462 77.9567 110.724 78.498C110.985 79.03 111.116 79.6133 111.116 80.248C111.116 80.4253 111.055 80.5747 110.934 80.696C110.822 80.8173 110.668 80.878 110.472 80.878H105.726C105.8 81.5313 106.043 82.04 106.454 82.404C106.864 82.768 107.438 82.95 108.176 82.95C108.568 82.95 108.908 82.9127 109.198 82.838C109.496 82.7633 109.786 82.656 110.066 82.516C110.14 82.4787 110.224 82.46 110.318 82.46C110.467 82.46 110.598 82.5113 110.71 82.614C110.822 82.7167 110.878 82.8473 110.878 83.006C110.878 83.2113 110.756 83.384 110.514 83.524C110.15 83.7293 109.79 83.8833 109.436 83.986C109.081 84.0887 108.624 84.14 108.064 84.14ZM109.856 79.842C109.828 79.3847 109.706 79.002 109.492 78.694C109.286 78.386 109.03 78.162 108.722 78.022C108.414 77.8727 108.101 77.798 107.784 77.798C107.466 77.798 107.154 77.8727 106.846 78.022C106.538 78.162 106.281 78.386 106.076 78.694C105.87 79.002 105.754 79.3847 105.726 79.842H109.856ZM107.756 76.062C107.644 76.062 107.55 76.0293 107.476 75.964C107.41 75.8893 107.378 75.796 107.378 75.684C107.378 75.6 107.41 75.5113 107.476 75.418L108.19 74.158C108.283 73.9807 108.437 73.892 108.652 73.892C108.801 73.892 108.922 73.9387 109.016 74.032C109.118 74.1253 109.17 74.2513 109.17 74.41C109.17 74.5407 109.123 74.6573 109.03 74.76L108.064 75.908C107.98 76.0107 107.877 76.062 107.756 76.062ZM116.133 87.36C115.592 87.36 115.046 87.29 114.495 87.15C113.945 87.01 113.492 86.8373 113.137 86.632C112.969 86.5293 112.885 86.366 112.885 86.142C112.885 85.9927 112.937 85.8573 113.039 85.736C113.151 85.624 113.287 85.568 113.445 85.568C113.52 85.568 113.604 85.5867 113.697 85.624C114.407 85.9787 115.177 86.156 116.007 86.156C117.435 86.156 118.149 85.3953 118.149 83.874V82.936C117.487 83.6453 116.689 84 115.755 84C115.205 84 114.668 83.8647 114.145 83.594C113.632 83.314 113.207 82.9033 112.871 82.362C112.535 81.8113 112.367 81.144 112.367 80.36C112.367 79.576 112.535 78.9133 112.871 78.372C113.207 77.8213 113.632 77.4107 114.145 77.14C114.668 76.86 115.205 76.72 115.755 76.72C116.689 76.72 117.487 77.0747 118.149 77.784V77.434C118.149 77.2567 118.21 77.1073 118.331 76.986C118.453 76.8553 118.602 76.79 118.779 76.79C118.957 76.79 119.106 76.8553 119.227 76.986C119.358 77.1073 119.423 77.2567 119.423 77.434V83.692C119.423 84.868 119.139 85.7733 118.569 86.408C118 87.0427 117.188 87.36 116.133 87.36ZM116.021 82.838C116.46 82.838 116.847 82.7447 117.183 82.558C117.519 82.3713 117.841 82.1193 118.149 81.802V78.918C117.841 78.6007 117.519 78.3487 117.183 78.162C116.847 77.9753 116.46 77.882 116.021 77.882C115.321 77.882 114.747 78.0967 114.299 78.526C113.861 78.946 113.641 79.5573 113.641 80.36C113.641 81.1627 113.861 81.7787 114.299 82.208C114.747 82.628 115.321 82.838 116.021 82.838ZM124.825 84.14C123.687 84.14 122.795 83.818 122.151 83.174C121.517 82.5207 121.199 81.606 121.199 80.43C121.199 79.7673 121.321 79.156 121.563 78.596C121.806 78.036 122.179 77.5833 122.683 77.238C123.187 76.8927 123.808 76.72 124.545 76.72C125.236 76.72 125.833 76.8833 126.337 77.21C126.841 77.5273 127.224 77.9567 127.485 78.498C127.747 79.03 127.877 79.6133 127.877 80.248C127.877 80.4253 127.817 80.5747 127.695 80.696C127.583 80.8173 127.429 80.878 127.233 80.878H122.487C122.562 81.5313 122.805 82.04 123.215 82.404C123.626 82.768 124.2 82.95 124.937 82.95C125.329 82.95 125.67 82.9127 125.959 82.838C126.258 82.7633 126.547 82.656 126.827 82.516C126.902 82.4787 126.986 82.46 127.079 82.46C127.229 82.46 127.359 82.5113 127.471 82.614C127.583 82.7167 127.639 82.8473 127.639 83.006C127.639 83.2113 127.518 83.384 127.275 83.524C126.911 83.7293 126.552 83.8833 126.197 83.986C125.843 84.0887 125.385 84.14 124.825 84.14ZM126.617 79.842C126.589 79.3847 126.468 79.002 126.253 78.694C126.048 78.386 125.791 78.162 125.483 78.022C125.175 77.8727 124.863 77.798 124.545 77.798C124.228 77.798 123.915 77.8727 123.607 78.022C123.299 78.162 123.043 78.386 122.837 78.694C122.632 79.002 122.515 79.3847 122.487 79.842H126.617ZM130.193 84.07C130.016 84.07 129.866 84.0093 129.745 83.888C129.624 83.7667 129.563 83.6173 129.563 83.44V77.434C129.563 77.2567 129.624 77.1073 129.745 76.986C129.866 76.8553 130.016 76.79 130.193 76.79C130.37 76.79 130.52 76.8553 130.641 76.986C130.772 77.1073 130.837 77.2567 130.837 77.434V78.036C131.49 77.1587 132.223 76.72 133.035 76.72H133.105C133.282 76.72 133.427 76.7807 133.539 76.902C133.66 77.0233 133.721 77.1727 133.721 77.35C133.721 77.5273 133.66 77.672 133.539 77.784C133.418 77.896 133.264 77.952 133.077 77.952H133.007C132.559 77.952 132.148 78.064 131.775 78.288C131.402 78.5027 131.089 78.8013 130.837 79.184V83.44C130.837 83.6173 130.772 83.7667 130.641 83.888C130.52 84.0093 130.37 84.07 130.193 84.07ZM137.909 84.14C136.771 84.14 135.879 83.818 135.235 83.174C134.601 82.5207 134.283 81.606 134.283 80.43C134.283 79.7673 134.405 79.156 134.647 78.596C134.89 78.036 135.263 77.5833 135.767 77.238C136.271 76.8927 136.892 76.72 137.629 76.72C138.32 76.72 138.917 76.8833 139.421 77.21C139.925 77.5273 140.308 77.9567 140.569 78.498C140.831 79.03 140.961 79.6133 140.961 80.248C140.961 80.4253 140.901 80.5747 140.779 80.696C140.667 80.8173 140.513 80.878 140.317 80.878H135.571C135.646 81.5313 135.889 82.04 136.299 82.404C136.71 82.768 137.284 82.95 138.021 82.95C138.413 82.95 138.754 82.9127 139.043 82.838C139.342 82.7633 139.631 82.656 139.911 82.516C139.986 82.4787 140.07 82.46 140.163 82.46C140.313 82.46 140.443 82.5113 140.555 82.614C140.667 82.7167 140.723 82.8473 140.723 83.006C140.723 83.2113 140.602 83.384 140.359 83.524C139.995 83.7293 139.636 83.8833 139.281 83.986C138.927 84.0887 138.469 84.14 137.909 84.14ZM139.701 79.842C139.673 79.3847 139.552 79.002 139.337 78.694C139.132 78.386 138.875 78.162 138.567 78.022C138.259 77.8727 137.947 77.798 137.629 77.798C137.312 77.798 136.999 77.8727 136.691 78.022C136.383 78.162 136.127 78.386 135.921 78.694C135.716 79.002 135.599 79.3847 135.571 79.842H139.701ZM145.111 84.14C143.748 84.14 143.067 83.524 143.067 82.292V77.952H142.073C141.998 77.952 141.933 77.9287 141.877 77.882C141.83 77.826 141.807 77.7607 141.807 77.686C141.807 77.5927 141.849 77.5133 141.933 77.448L143.837 75.586C143.921 75.502 144 75.46 144.075 75.46C144.15 75.46 144.21 75.488 144.257 75.544C144.313 75.6 144.341 75.6653 144.341 75.74V76.86H145.923C146.082 76.86 146.212 76.9113 146.315 77.014C146.418 77.1167 146.469 77.2473 146.469 77.406C146.469 77.5553 146.418 77.686 146.315 77.798C146.212 77.9007 146.082 77.952 145.923 77.952H144.341V82.18C144.341 82.544 144.425 82.7773 144.593 82.88C144.77 82.9733 144.99 83.02 145.251 83.02C145.438 83.02 145.624 82.992 145.811 82.936C145.848 82.9267 145.886 82.9173 145.923 82.908C145.97 82.8987 146.026 82.894 146.091 82.894C146.222 82.894 146.338 82.9453 146.441 83.048C146.544 83.1413 146.595 83.258 146.595 83.398C146.595 83.6127 146.488 83.776 146.273 83.888C145.909 84.056 145.522 84.14 145.111 84.14ZM151.089 84.14C149.95 84.14 149.059 83.818 148.415 83.174C147.78 82.5207 147.463 81.606 147.463 80.43C147.463 79.7673 147.584 79.156 147.827 78.596C148.07 78.036 148.443 77.5833 148.947 77.238C149.451 76.8927 150.072 76.72 150.809 76.72C151.5 76.72 152.097 76.8833 152.601 77.21C153.105 77.5273 153.488 77.9567 153.749 78.498C154.01 79.03 154.141 79.6133 154.141 80.248C154.141 80.4253 154.08 80.5747 153.959 80.696C153.847 80.8173 153.693 80.878 153.497 80.878H148.751C148.826 81.5313 149.068 82.04 149.479 82.404C149.89 82.768 150.464 82.95 151.201 82.95C151.593 82.95 151.934 82.9127 152.223 82.838C152.522 82.7633 152.811 82.656 153.091 82.516C153.166 82.4787 153.25 82.46 153.343 82.46C153.492 82.46 153.623 82.5113 153.735 82.614C153.847 82.7167 153.903 82.8473 153.903 83.006C153.903 83.2113 153.782 83.384 153.539 83.524C153.175 83.7293 152.816 83.8833 152.461 83.986C152.106 84.0887 151.649 84.14 151.089 84.14ZM152.881 79.842C152.853 79.3847 152.732 79.002 152.517 78.694C152.312 78.386 152.055 78.162 151.747 78.022C151.439 77.8727 151.126 77.798 150.809 77.798C150.492 77.798 150.179 77.8727 149.871 78.022C149.563 78.162 149.306 78.386 149.101 78.694C148.896 79.002 148.779 79.3847 148.751 79.842H152.881ZM150.781 76.062C150.669 76.062 150.576 76.0293 150.501 75.964C150.436 75.8893 150.403 75.796 150.403 75.684C150.403 75.6 150.436 75.5113 150.501 75.418L151.215 74.158C151.308 73.9807 151.462 73.892 151.677 73.892C151.826 73.892 151.948 73.9387 152.041 74.032C152.144 74.1253 152.195 74.2513 152.195 74.41C152.195 74.5407 152.148 74.6573 152.055 74.76L151.089 75.908C151.005 76.0107 150.902 76.062 150.781 76.062Z" fill="#444444"/>
<path d="M264.765 135.07C264.588 135.07 264.439 135.009 264.317 134.888C264.196 134.767 264.135 134.617 264.135 134.44V128.434C264.135 128.257 264.196 128.107 264.317 127.986C264.439 127.855 264.588 127.79 264.765 127.79C264.943 127.79 265.092 127.855 265.213 127.986C265.344 128.107 265.409 128.257 265.409 128.434V129.036C266.063 128.159 266.795 127.72 267.607 127.72H267.677C267.855 127.72 267.999 127.781 268.111 127.902C268.233 128.023 268.293 128.173 268.293 128.35C268.293 128.527 268.233 128.672 268.111 128.784C267.99 128.896 267.836 128.952 267.649 128.952H267.579C267.131 128.952 266.721 129.064 266.347 129.288C265.974 129.503 265.661 129.801 265.409 130.184V134.44C265.409 134.617 265.344 134.767 265.213 134.888C265.092 135.009 264.943 135.07 264.765 135.07ZM272.482 135.14C271.343 135.14 270.452 134.818 269.808 134.174C269.173 133.521 268.856 132.606 268.856 131.43C268.856 130.767 268.977 130.156 269.22 129.596C269.462 129.036 269.836 128.583 270.34 128.238C270.844 127.893 271.464 127.72 272.202 127.72C272.892 127.72 273.49 127.883 273.994 128.21C274.498 128.527 274.88 128.957 275.142 129.498C275.403 130.03 275.534 130.613 275.534 131.248C275.534 131.425 275.473 131.575 275.352 131.696C275.24 131.817 275.086 131.878 274.89 131.878H270.144C270.218 132.531 270.461 133.04 270.872 133.404C271.282 133.768 271.856 133.95 272.594 133.95C272.986 133.95 273.326 133.913 273.616 133.838C273.914 133.763 274.204 133.656 274.484 133.516C274.558 133.479 274.642 133.46 274.736 133.46C274.885 133.46 275.016 133.511 275.128 133.614C275.24 133.717 275.296 133.847 275.296 134.006C275.296 134.211 275.174 134.384 274.932 134.524C274.568 134.729 274.208 134.883 273.854 134.986C273.499 135.089 273.042 135.14 272.482 135.14ZM274.274 130.842C274.246 130.385 274.124 130.002 273.91 129.694C273.704 129.386 273.448 129.162 273.14 129.022C272.832 128.873 272.519 128.798 272.202 128.798C271.884 128.798 271.572 128.873 271.264 129.022C270.956 129.162 270.699 129.386 270.494 129.694C270.288 130.002 270.172 130.385 270.144 130.842H274.274ZM272.174 127.062C272.062 127.062 271.968 127.029 271.894 126.964C271.828 126.889 271.796 126.796 271.796 126.684C271.796 126.6 271.828 126.511 271.894 126.418L272.608 125.158C272.701 124.981 272.855 124.892 273.07 124.892C273.219 124.892 273.34 124.939 273.434 125.032C273.536 125.125 273.588 125.251 273.588 125.41C273.588 125.541 273.541 125.657 273.448 125.76L272.482 126.908C272.398 127.011 272.295 127.062 272.174 127.062ZM278.381 135.07C278.204 135.07 278.055 135.009 277.933 134.888C277.812 134.767 277.751 134.617 277.751 134.44V128.952H276.925C276.776 128.952 276.645 128.901 276.533 128.798C276.431 128.686 276.379 128.555 276.379 128.406C276.379 128.247 276.431 128.117 276.533 128.014C276.645 127.911 276.776 127.86 276.925 127.86H277.751V127.048C277.751 126.488 277.849 126.031 278.045 125.676C278.251 125.312 278.512 125.051 278.829 124.892C279.156 124.724 279.497 124.64 279.851 124.64C280.29 124.64 280.696 124.733 281.069 124.92C281.163 124.967 281.237 125.037 281.293 125.13C281.359 125.214 281.391 125.307 281.391 125.41C281.391 125.55 281.34 125.676 281.237 125.788C281.135 125.891 281.013 125.942 280.873 125.942C280.771 125.942 280.663 125.928 280.551 125.9C280.327 125.872 280.201 125.858 280.173 125.858C279.791 125.858 279.501 125.947 279.305 126.124C279.119 126.301 279.025 126.623 279.025 127.09V127.86H280.775C280.934 127.86 281.065 127.911 281.167 128.014C281.27 128.117 281.321 128.247 281.321 128.406C281.321 128.555 281.27 128.686 281.167 128.798C281.065 128.901 280.934 128.952 280.775 128.952H279.025V134.44C279.025 134.617 278.96 134.767 278.829 134.888C278.708 135.009 278.559 135.07 278.381 135.07ZM283.267 135.07C283.09 135.07 282.941 135.009 282.819 134.888C282.698 134.767 282.637 134.617 282.637 134.44V125.354C282.637 125.177 282.698 125.027 282.819 124.906C282.941 124.775 283.09 124.71 283.267 124.71C283.454 124.71 283.608 124.771 283.729 124.892C283.851 125.013 283.911 125.167 283.911 125.354V134.44C283.911 134.617 283.846 134.767 283.715 134.888C283.594 135.009 283.445 135.07 283.267 135.07ZM289.312 135.14C288.173 135.14 287.282 134.818 286.638 134.174C286.003 133.521 285.686 132.606 285.686 131.43C285.686 130.767 285.807 130.156 286.05 129.596C286.292 129.036 286.666 128.583 287.17 128.238C287.674 127.893 288.294 127.72 289.032 127.72C289.722 127.72 290.32 127.883 290.824 128.21C291.328 128.527 291.71 128.957 291.972 129.498C292.233 130.03 292.364 130.613 292.364 131.248C292.364 131.425 292.303 131.575 292.182 131.696C292.07 131.817 291.916 131.878 291.72 131.878H286.974C287.048 132.531 287.291 133.04 287.702 133.404C288.112 133.768 288.686 133.95 289.424 133.95C289.816 133.95 290.156 133.913 290.446 133.838C290.744 133.763 291.034 133.656 291.314 133.516C291.388 133.479 291.472 133.46 291.566 133.46C291.715 133.46 291.846 133.511 291.958 133.614C292.07 133.717 292.126 133.847 292.126 134.006C292.126 134.211 292.004 134.384 291.762 134.524C291.398 134.729 291.038 134.883 290.684 134.986C290.329 135.089 289.872 135.14 289.312 135.14ZM291.104 130.842C291.076 130.385 290.954 130.002 290.74 129.694C290.534 129.386 290.278 129.162 289.97 129.022C289.662 128.873 289.349 128.798 289.032 128.798C288.714 128.798 288.402 128.873 288.094 129.022C287.786 129.162 287.529 129.386 287.324 129.694C287.118 130.002 287.002 130.385 286.974 130.842H291.104ZM294.177 135.07C293.991 135.07 293.841 135.014 293.729 134.902C293.627 134.781 293.575 134.622 293.575 134.426C293.575 134.286 293.622 134.155 293.715 134.034L295.885 131.472L293.715 128.826C293.613 128.695 293.561 128.56 293.561 128.42C293.561 128.233 293.622 128.084 293.743 127.972C293.865 127.851 294.014 127.79 294.191 127.79C294.415 127.79 294.583 127.869 294.695 128.028L296.655 130.45L298.601 128.028C298.713 127.869 298.877 127.79 299.091 127.79C299.278 127.79 299.432 127.851 299.553 127.972C299.675 128.084 299.735 128.224 299.735 128.392C299.735 128.532 299.689 128.663 299.595 128.784L297.383 131.388L299.567 134.02C299.67 134.132 299.721 134.267 299.721 134.426C299.721 134.603 299.665 134.757 299.553 134.888C299.441 135.009 299.283 135.07 299.077 135.07C298.872 135.07 298.709 134.986 298.587 134.818L296.599 132.438L294.723 134.79C294.583 134.977 294.401 135.07 294.177 135.07ZM302.144 126.404C301.948 126.404 301.78 126.334 301.64 126.194C301.5 126.054 301.43 125.886 301.43 125.69V125.634C301.43 125.438 301.5 125.27 301.64 125.13C301.78 124.99 301.948 124.92 302.144 124.92H302.228C302.424 124.92 302.592 124.99 302.732 125.13C302.872 125.27 302.942 125.438 302.942 125.634V125.69C302.942 125.886 302.872 126.054 302.732 126.194C302.592 126.334 302.424 126.404 302.228 126.404H302.144ZM302.172 135.07C301.994 135.07 301.845 135.009 301.724 134.888C301.602 134.767 301.542 134.617 301.542 134.44V128.434C301.542 128.257 301.602 128.107 301.724 127.986C301.845 127.855 301.994 127.79 302.172 127.79C302.358 127.79 302.512 127.851 302.634 127.972C302.755 128.093 302.816 128.247 302.816 128.434V134.44C302.816 134.617 302.75 134.767 302.62 134.888C302.498 135.009 302.349 135.07 302.172 135.07ZM308.178 135.14C307.459 135.14 306.829 134.986 306.288 134.678C305.747 134.37 305.327 133.936 305.028 133.376C304.739 132.807 304.594 132.158 304.594 131.43C304.594 130.702 304.739 130.058 305.028 129.498C305.327 128.929 305.747 128.49 306.288 128.182C306.829 127.874 307.459 127.72 308.178 127.72C308.887 127.72 309.513 127.874 310.054 128.182C310.595 128.49 311.015 128.929 311.314 129.498C311.613 130.058 311.762 130.702 311.762 131.43C311.762 132.158 311.613 132.807 311.314 133.376C311.015 133.936 310.595 134.37 310.054 134.678C309.513 134.986 308.887 135.14 308.178 135.14ZM308.178 133.978C308.561 133.978 308.925 133.889 309.27 133.712C309.625 133.535 309.914 133.255 310.138 132.872C310.371 132.489 310.488 132.004 310.488 131.416C310.488 130.837 310.371 130.357 310.138 129.974C309.914 129.591 309.625 129.316 309.27 129.148C308.925 128.971 308.561 128.882 308.178 128.882C307.786 128.882 307.413 128.971 307.058 129.148C306.713 129.316 306.428 129.591 306.204 129.974C305.98 130.357 305.868 130.837 305.868 131.416C305.868 132.004 305.98 132.489 306.204 132.872C306.428 133.255 306.713 133.535 307.058 133.712C307.413 133.889 307.786 133.978 308.178 133.978ZM314.175 135.07C313.998 135.07 313.849 135.009 313.727 134.888C313.606 134.767 313.545 134.617 313.545 134.44V128.434C313.545 128.257 313.606 128.107 313.727 127.986C313.849 127.855 313.998 127.79 314.175 127.79C314.353 127.79 314.502 127.855 314.623 127.986C314.754 128.107 314.819 128.257 314.819 128.434V129.008C315.174 128.616 315.557 128.303 315.967 128.07C316.378 127.837 316.863 127.72 317.423 127.72C317.937 127.72 318.38 127.841 318.753 128.084C319.136 128.327 319.425 128.658 319.621 129.078C319.827 129.498 319.929 129.96 319.929 130.464V134.44C319.929 134.617 319.864 134.767 319.733 134.888C319.612 135.009 319.463 135.07 319.285 135.07C319.108 135.07 318.959 135.009 318.837 134.888C318.716 134.767 318.655 134.617 318.655 134.44V130.604C318.655 129.465 318.142 128.896 317.115 128.896C316.649 128.896 316.229 129.017 315.855 129.26C315.491 129.503 315.146 129.829 314.819 130.24V134.44C314.819 134.617 314.754 134.767 314.623 134.888C314.502 135.009 314.353 135.07 314.175 135.07Z" fill="#444444"/>
<path d="M141.729 182.404C141.533 182.404 141.365 182.334 141.225 182.194C141.085 182.054 141.015 181.886 141.015 181.69V181.634C141.015 181.438 141.085 181.27 141.225 181.13C141.365 180.99 141.533 180.92 141.729 180.92H141.813C142.009 180.92 142.177 180.99 142.317 181.13C142.457 181.27 142.527 181.438 142.527 181.634V181.69C142.527 181.886 142.457 182.054 142.317 182.194C142.177 182.334 142.009 182.404 141.813 182.404H141.729ZM141.757 191.07C141.58 191.07 141.431 191.009 141.309 190.888C141.188 190.767 141.127 190.617 141.127 190.44V184.434C141.127 184.257 141.188 184.107 141.309 183.986C141.431 183.855 141.58 183.79 141.757 183.79C141.944 183.79 142.098 183.851 142.219 183.972C142.341 184.093 142.401 184.247 142.401 184.434V190.44C142.401 190.617 142.336 190.767 142.205 190.888C142.084 191.009 141.935 191.07 141.757 191.07ZM145.244 191.07C145.066 191.07 144.917 191.009 144.796 190.888C144.674 190.767 144.614 190.617 144.614 190.44V184.434C144.614 184.257 144.674 184.107 144.796 183.986C144.917 183.855 145.066 183.79 145.244 183.79C145.421 183.79 145.57 183.855 145.692 183.986C145.822 184.107 145.888 184.257 145.888 184.434V185.008C146.242 184.616 146.625 184.303 147.036 184.07C147.446 183.837 147.932 183.72 148.492 183.72C149.005 183.72 149.448 183.841 149.822 184.084C150.204 184.327 150.494 184.658 150.69 185.078C150.895 185.498 150.998 185.96 150.998 186.464V190.44C150.998 190.617 150.932 190.767 150.802 190.888C150.68 191.009 150.531 191.07 150.354 191.07C150.176 191.07 150.027 191.009 149.906 190.888C149.784 190.767 149.724 190.617 149.724 190.44V186.604C149.724 185.465 149.21 184.896 148.184 184.896C147.717 184.896 147.297 185.017 146.924 185.26C146.56 185.503 146.214 185.829 145.888 186.24V190.44C145.888 190.617 145.822 190.767 145.692 190.888C145.57 191.009 145.421 191.07 145.244 191.07ZM155.445 191.14C154.082 191.14 153.401 190.524 153.401 189.292V184.952H152.407C152.332 184.952 152.267 184.929 152.211 184.882C152.164 184.826 152.141 184.761 152.141 184.686C152.141 184.593 152.183 184.513 152.267 184.448L154.171 182.586C154.255 182.502 154.334 182.46 154.409 182.46C154.484 182.46 154.544 182.488 154.591 182.544C154.647 182.6 154.675 182.665 154.675 182.74V183.86H156.257C156.416 183.86 156.546 183.911 156.649 184.014C156.752 184.117 156.803 184.247 156.803 184.406C156.803 184.555 156.752 184.686 156.649 184.798C156.546 184.901 156.416 184.952 156.257 184.952H154.675V189.18C154.675 189.544 154.759 189.777 154.927 189.88C155.104 189.973 155.324 190.02 155.585 190.02C155.772 190.02 155.958 189.992 156.145 189.936C156.182 189.927 156.22 189.917 156.257 189.908C156.304 189.899 156.36 189.894 156.425 189.894C156.556 189.894 156.672 189.945 156.775 190.048C156.878 190.141 156.929 190.258 156.929 190.398C156.929 190.613 156.822 190.776 156.607 190.888C156.243 191.056 155.856 191.14 155.445 191.14ZM161.423 191.14C160.284 191.14 159.393 190.818 158.749 190.174C158.114 189.521 157.797 188.606 157.797 187.43C157.797 186.767 157.918 186.156 158.161 185.596C158.404 185.036 158.777 184.583 159.281 184.238C159.785 183.893 160.406 183.72 161.143 183.72C161.834 183.72 162.431 183.883 162.935 184.21C163.439 184.527 163.822 184.957 164.083 185.498C164.344 186.03 164.475 186.613 164.475 187.248C164.475 187.425 164.414 187.575 164.293 187.696C164.181 187.817 164.027 187.878 163.831 187.878H159.085C159.16 188.531 159.402 189.04 159.813 189.404C160.224 189.768 160.798 189.95 161.535 189.95C161.927 189.95 162.268 189.913 162.557 189.838C162.856 189.763 163.145 189.656 163.425 189.516C163.5 189.479 163.584 189.46 163.677 189.46C163.826 189.46 163.957 189.511 164.069 189.614C164.181 189.717 164.237 189.847 164.237 190.006C164.237 190.211 164.116 190.384 163.873 190.524C163.509 190.729 163.15 190.883 162.795 190.986C162.44 191.089 161.983 191.14 161.423 191.14ZM163.215 186.842C163.187 186.385 163.066 186.002 162.851 185.694C162.646 185.386 162.389 185.162 162.081 185.022C161.773 184.873 161.46 184.798 161.143 184.798C160.826 184.798 160.513 184.873 160.205 185.022C159.897 185.162 159.64 185.386 159.435 185.694C159.23 186.002 159.113 186.385 159.085 186.842H163.215ZM166.791 191.07C166.613 191.07 166.464 191.009 166.343 190.888C166.221 190.767 166.161 190.617 166.161 190.44V184.434C166.161 184.257 166.221 184.107 166.343 183.986C166.464 183.855 166.613 183.79 166.791 183.79C166.968 183.79 167.117 183.855 167.239 183.986C167.369 184.107 167.435 184.257 167.435 184.434V185.008C167.789 184.616 168.172 184.303 168.583 184.07C168.993 183.837 169.479 183.72 170.039 183.72C170.552 183.72 170.995 183.841 171.369 184.084C171.751 184.327 172.041 184.658 172.237 185.078C172.442 185.498 172.545 185.96 172.545 186.464V190.44C172.545 190.617 172.479 190.767 172.349 190.888C172.227 191.009 172.078 191.07 171.901 191.07C171.723 191.07 171.574 191.009 171.453 190.888C171.331 190.767 171.271 190.617 171.271 190.44V186.604C171.271 185.465 170.757 184.896 169.731 184.896C169.264 184.896 168.844 185.017 168.471 185.26C168.107 185.503 167.761 185.829 167.435 186.24V190.44C167.435 190.617 167.369 190.767 167.239 190.888C167.117 191.009 166.968 191.07 166.791 191.07ZM177.002 191.14C176.069 191.14 175.219 190.93 174.454 190.51C174.295 190.398 174.216 190.244 174.216 190.048C174.216 189.899 174.267 189.768 174.37 189.656C174.473 189.544 174.603 189.488 174.762 189.488C174.846 189.488 174.93 189.507 175.014 189.544C175.313 189.675 175.611 189.777 175.91 189.852C176.209 189.927 176.545 189.964 176.918 189.964C177.954 189.964 178.472 189.633 178.472 188.97C178.472 188.755 178.351 188.592 178.108 188.48C177.875 188.368 177.487 188.242 176.946 188.102C176.395 187.971 175.938 187.836 175.574 187.696C175.219 187.556 174.911 187.346 174.65 187.066C174.398 186.777 174.272 186.399 174.272 185.932C174.272 185.279 174.505 184.747 174.972 184.336C175.448 183.925 176.125 183.72 177.002 183.72C177.721 183.72 178.397 183.837 179.032 184.07C179.163 184.107 179.261 184.177 179.326 184.28C179.401 184.383 179.438 184.49 179.438 184.602C179.438 184.751 179.382 184.882 179.27 184.994C179.167 185.106 179.037 185.162 178.878 185.162C178.831 185.162 178.771 185.153 178.696 185.134C178.155 184.966 177.623 184.882 177.1 184.882C176.596 184.882 176.199 184.975 175.91 185.162C175.63 185.339 175.49 185.573 175.49 185.862C175.49 186.142 175.621 186.347 175.882 186.478C176.143 186.609 176.549 186.735 177.1 186.856C177.651 186.996 178.099 187.136 178.444 187.276C178.789 187.407 179.083 187.617 179.326 187.906C179.578 188.195 179.704 188.583 179.704 189.068C179.704 189.665 179.466 190.16 178.99 190.552C178.523 190.944 177.861 191.14 177.002 191.14ZM182.021 182.404C181.825 182.404 181.657 182.334 181.517 182.194C181.377 182.054 181.307 181.886 181.307 181.69V181.634C181.307 181.438 181.377 181.27 181.517 181.13C181.657 180.99 181.825 180.92 182.021 180.92H182.105C182.301 180.92 182.469 180.99 182.609 181.13C182.749 181.27 182.819 181.438 182.819 181.634V181.69C182.819 181.886 182.749 182.054 182.609 182.194C182.469 182.334 182.301 182.404 182.105 182.404H182.021ZM182.049 191.07C181.871 191.07 181.722 191.009 181.601 190.888C181.479 190.767 181.419 190.617 181.419 190.44V184.434C181.419 184.257 181.479 184.107 181.601 183.986C181.722 183.855 181.871 183.79 182.049 183.79C182.235 183.79 182.389 183.851 182.511 183.972C182.632 184.093 182.693 184.247 182.693 184.434V190.44C182.693 190.617 182.627 190.767 182.497 190.888C182.375 191.009 182.226 191.07 182.049 191.07ZM187.369 191.14C186.006 191.14 185.325 190.524 185.325 189.292V184.952H184.331C184.256 184.952 184.191 184.929 184.135 184.882C184.088 184.826 184.065 184.761 184.065 184.686C184.065 184.593 184.107 184.513 184.191 184.448L186.095 182.586C186.179 182.502 186.258 182.46 186.333 182.46C186.407 182.46 186.468 182.488 186.515 182.544C186.571 182.6 186.599 182.665 186.599 182.74V183.86H188.181C188.339 183.86 188.47 183.911 188.573 184.014C188.675 184.117 188.727 184.247 188.727 184.406C188.727 184.555 188.675 184.686 188.573 184.798C188.47 184.901 188.339 184.952 188.181 184.952H186.599V189.18C186.599 189.544 186.683 189.777 186.851 189.88C187.028 189.973 187.247 190.02 187.509 190.02C187.695 190.02 187.882 189.992 188.069 189.936C188.106 189.927 188.143 189.917 188.181 189.908C188.227 189.899 188.283 189.894 188.349 189.894C188.479 189.894 188.596 189.945 188.699 190.048C188.801 190.141 188.853 190.258 188.853 190.398C188.853 190.613 188.745 190.776 188.531 190.888C188.167 191.056 187.779 191.14 187.369 191.14ZM193.347 191.14C192.208 191.14 191.317 190.818 190.673 190.174C190.038 189.521 189.721 188.606 189.721 187.43C189.721 186.767 189.842 186.156 190.085 185.596C190.327 185.036 190.701 184.583 191.205 184.238C191.709 183.893 192.329 183.72 193.067 183.72C193.757 183.72 194.355 183.883 194.859 184.21C195.363 184.527 195.745 184.957 196.007 185.498C196.268 186.03 196.399 186.613 196.399 187.248C196.399 187.425 196.338 187.575 196.217 187.696C196.105 187.817 195.951 187.878 195.755 187.878H191.009C191.083 188.531 191.326 189.04 191.737 189.404C192.147 189.768 192.721 189.95 193.459 189.95C193.851 189.95 194.191 189.913 194.481 189.838C194.779 189.763 195.069 189.656 195.349 189.516C195.423 189.479 195.507 189.46 195.601 189.46C195.75 189.46 195.881 189.511 195.993 189.614C196.105 189.717 196.161 189.847 196.161 190.006C196.161 190.211 196.039 190.384 195.797 190.524C195.433 190.729 195.073 190.883 194.719 190.986C194.364 191.089 193.907 191.14 193.347 191.14ZM195.139 186.842C195.111 186.385 194.989 186.002 194.775 185.694C194.569 185.386 194.313 185.162 194.005 185.022C193.697 184.873 193.384 184.798 193.067 184.798C192.749 184.798 192.437 184.873 192.129 185.022C191.821 185.162 191.564 185.386 191.359 185.694C191.153 186.002 191.037 186.385 191.009 186.842H195.139ZM193.039 183.062C192.927 183.062 192.833 183.029 192.759 182.964C192.693 182.889 192.661 182.796 192.661 182.684C192.661 182.6 192.693 182.511 192.759 182.418L193.473 181.158C193.566 180.981 193.72 180.892 193.935 180.892C194.084 180.892 194.205 180.939 194.299 181.032C194.401 181.125 194.453 181.251 194.453 181.41C194.453 181.541 194.406 181.657 194.313 181.76L193.347 182.908C193.263 183.011 193.16 183.062 193.039 183.062Z" fill="#444444"/>
<path d="M227.984 245.14C227.573 245.14 227.19 245.056 226.836 244.888C226.49 244.72 226.215 244.477 226.01 244.16C225.804 243.833 225.702 243.46 225.702 243.04C225.702 242.349 225.972 241.799 226.514 241.388C227.064 240.977 227.867 240.772 228.922 240.772H230.616V240.66C230.616 240.044 230.462 239.601 230.154 239.33C229.855 239.059 229.384 238.924 228.74 238.924C228.385 238.924 228.068 238.952 227.788 239.008C227.517 239.064 227.214 239.148 226.878 239.26C226.803 239.279 226.742 239.288 226.696 239.288C226.556 239.288 226.434 239.237 226.332 239.134C226.229 239.031 226.178 238.905 226.178 238.756C226.178 238.504 226.299 238.327 226.542 238.224C227.335 237.888 228.142 237.72 228.964 237.72C229.608 237.72 230.149 237.851 230.588 238.112C231.036 238.373 231.362 238.714 231.568 239.134C231.782 239.545 231.89 239.993 231.89 240.478V244.44C231.89 244.617 231.824 244.767 231.694 244.888C231.572 245.009 231.423 245.07 231.246 245.07C231.068 245.07 230.919 245.009 230.798 244.888C230.676 244.767 230.616 244.617 230.616 244.44V244.076C229.925 244.785 229.048 245.14 227.984 245.14ZM228.46 244.02C228.87 244.02 229.267 243.922 229.65 243.726C230.032 243.521 230.354 243.269 230.616 242.97V241.794H229.09C227.68 241.794 226.976 242.163 226.976 242.9C226.976 243.236 227.088 243.507 227.312 243.712C227.545 243.917 227.928 244.02 228.46 244.02ZM234.655 248.29C234.478 248.29 234.328 248.225 234.207 248.094C234.086 247.973 234.025 247.823 234.025 247.646V238.42C234.025 238.243 234.086 238.093 234.207 237.972C234.328 237.851 234.478 237.79 234.655 237.79C234.832 237.79 234.982 237.851 235.103 237.972C235.234 238.093 235.299 238.243 235.299 238.42V238.784C235.98 238.075 236.778 237.72 237.693 237.72C238.272 237.72 238.818 237.869 239.331 238.168C239.854 238.457 240.274 238.887 240.591 239.456C240.918 240.016 241.081 240.674 241.081 241.43C241.081 242.186 240.918 242.849 240.591 243.418C240.274 243.978 239.854 244.407 239.331 244.706C238.818 244.995 238.272 245.14 237.693 245.14C236.778 245.14 235.98 244.785 235.299 244.076V247.646C235.299 247.833 235.238 247.987 235.117 248.108C234.996 248.229 234.842 248.29 234.655 248.29ZM237.511 243.95C238.202 243.95 238.757 243.731 239.177 243.292C239.597 242.853 239.807 242.233 239.807 241.43C239.807 240.627 239.597 240.007 239.177 239.568C238.757 239.129 238.202 238.91 237.511 238.91C237.082 238.91 236.676 239.008 236.293 239.204C235.92 239.391 235.588 239.643 235.299 239.96V242.9C235.588 243.217 235.92 243.474 236.293 243.67C236.676 243.857 237.082 243.95 237.511 243.95ZM243.487 248.29C243.31 248.29 243.16 248.225 243.039 248.094C242.918 247.973 242.857 247.823 242.857 247.646V238.42C242.857 238.243 242.918 238.093 243.039 237.972C243.16 237.851 243.31 237.79 243.487 237.79C243.664 237.79 243.814 237.851 243.935 237.972C244.066 238.093 244.131 238.243 244.131 238.42V238.784C244.812 238.075 245.61 237.72 246.525 237.72C247.104 237.72 247.65 237.869 248.163 238.168C248.686 238.457 249.106 238.887 249.423 239.456C249.75 240.016 249.913 240.674 249.913 241.43C249.913 242.186 249.75 242.849 249.423 243.418C249.106 243.978 248.686 244.407 248.163 244.706C247.65 244.995 247.104 245.14 246.525 245.14C245.61 245.14 244.812 244.785 244.131 244.076V247.646C244.131 247.833 244.07 247.987 243.949 248.108C243.828 248.229 243.674 248.29 243.487 248.29ZM246.343 243.95C247.034 243.95 247.589 243.731 248.009 243.292C248.429 242.853 248.639 242.233 248.639 241.43C248.639 240.627 248.429 240.007 248.009 239.568C247.589 239.129 247.034 238.91 246.343 238.91C245.914 238.91 245.508 239.008 245.125 239.204C244.752 239.391 244.42 239.643 244.131 239.96V242.9C244.42 243.217 244.752 243.474 245.125 243.67C245.508 243.857 245.914 243.95 246.343 243.95ZM252.319 245.07C252.142 245.07 251.992 245.009 251.871 244.888C251.75 244.767 251.689 244.617 251.689 244.44V238.434C251.689 238.257 251.75 238.107 251.871 237.986C251.992 237.855 252.142 237.79 252.319 237.79C252.496 237.79 252.646 237.855 252.767 237.986C252.898 238.107 252.963 238.257 252.963 238.434V239.036C253.616 238.159 254.349 237.72 255.161 237.72H255.231C255.408 237.72 255.553 237.781 255.665 237.902C255.786 238.023 255.847 238.173 255.847 238.35C255.847 238.527 255.786 238.672 255.665 238.784C255.544 238.896 255.39 238.952 255.203 238.952H255.133C254.685 238.952 254.274 239.064 253.901 239.288C253.528 239.503 253.215 239.801 252.963 240.184V244.44C252.963 244.617 252.898 244.767 252.767 244.888C252.646 245.009 252.496 245.07 252.319 245.07ZM260.035 245.14C258.897 245.14 258.005 244.818 257.361 244.174C256.727 243.521 256.409 242.606 256.409 241.43C256.409 240.767 256.531 240.156 256.773 239.596C257.016 239.036 257.389 238.583 257.893 238.238C258.397 237.893 259.018 237.72 259.755 237.72C260.446 237.72 261.043 237.883 261.547 238.21C262.051 238.527 262.434 238.957 262.695 239.498C262.957 240.03 263.087 240.613 263.087 241.248C263.087 241.425 263.027 241.575 262.905 241.696C262.793 241.817 262.639 241.878 262.443 241.878H257.697C257.772 242.531 258.015 243.04 258.425 243.404C258.836 243.768 259.41 243.95 260.147 243.95C260.539 243.95 260.88 243.913 261.169 243.838C261.468 243.763 261.757 243.656 262.037 243.516C262.112 243.479 262.196 243.46 262.289 243.46C262.439 243.46 262.569 243.511 262.681 243.614C262.793 243.717 262.849 243.847 262.849 244.006C262.849 244.211 262.728 244.384 262.485 244.524C262.121 244.729 261.762 244.883 261.407 244.986C261.053 245.089 260.595 245.14 260.035 245.14ZM261.827 240.842C261.799 240.385 261.678 240.002 261.463 239.694C261.258 239.386 261.001 239.162 260.693 239.022C260.385 238.873 260.073 238.798 259.755 238.798C259.438 238.798 259.125 238.873 258.817 239.022C258.509 239.162 258.253 239.386 258.047 239.694C257.842 240.002 257.725 240.385 257.697 240.842H261.827ZM265.403 245.07C265.226 245.07 265.076 245.009 264.955 244.888C264.834 244.767 264.773 244.617 264.773 244.44V238.434C264.773 238.257 264.834 238.107 264.955 237.986C265.076 237.855 265.226 237.79 265.403 237.79C265.58 237.79 265.73 237.855 265.851 237.986C265.982 238.107 266.047 238.257 266.047 238.434V239.008C266.402 238.616 266.784 238.303 267.195 238.07C267.606 237.837 268.091 237.72 268.651 237.72C269.164 237.72 269.608 237.841 269.981 238.084C270.364 238.327 270.653 238.658 270.849 239.078C271.054 239.498 271.157 239.96 271.157 240.464V244.44C271.157 244.617 271.092 244.767 270.961 244.888C270.84 245.009 270.69 245.07 270.513 245.07C270.336 245.07 270.186 245.009 270.065 244.888C269.944 244.767 269.883 244.617 269.883 244.44V240.604C269.883 239.465 269.37 238.896 268.343 238.896C267.876 238.896 267.456 239.017 267.083 239.26C266.719 239.503 266.374 239.829 266.047 240.24V244.44C266.047 244.617 265.982 244.767 265.851 244.888C265.73 245.009 265.58 245.07 265.403 245.07ZM275.604 245.14C274.242 245.14 273.56 244.524 273.56 243.292V238.952H272.566C272.492 238.952 272.426 238.929 272.37 238.882C272.324 238.826 272.3 238.761 272.3 238.686C272.3 238.593 272.342 238.513 272.426 238.448L274.33 236.586C274.414 236.502 274.494 236.46 274.568 236.46C274.643 236.46 274.704 236.488 274.75 236.544C274.806 236.6 274.834 236.665 274.834 236.74V237.86H276.416C276.575 237.86 276.706 237.911 276.808 238.014C276.911 238.117 276.962 238.247 276.962 238.406C276.962 238.555 276.911 238.686 276.808 238.798C276.706 238.901 276.575 238.952 276.416 238.952H274.834V243.18C274.834 243.544 274.918 243.777 275.086 243.88C275.264 243.973 275.483 244.02 275.744 244.02C275.931 244.02 276.118 243.992 276.304 243.936C276.342 243.927 276.379 243.917 276.416 243.908C276.463 243.899 276.519 243.894 276.584 243.894C276.715 243.894 276.832 243.945 276.934 244.048C277.037 244.141 277.088 244.258 277.088 244.398C277.088 244.613 276.981 244.776 276.766 244.888C276.402 245.056 276.015 245.14 275.604 245.14ZM279.088 236.404C278.892 236.404 278.724 236.334 278.584 236.194C278.444 236.054 278.374 235.886 278.374 235.69V235.634C278.374 235.438 278.444 235.27 278.584 235.13C278.724 234.99 278.892 234.92 279.088 234.92H279.172C279.368 234.92 279.536 234.99 279.676 235.13C279.816 235.27 279.886 235.438 279.886 235.634V235.69C279.886 235.886 279.816 236.054 279.676 236.194C279.536 236.334 279.368 236.404 279.172 236.404H279.088ZM279.116 245.07C278.939 245.07 278.789 245.009 278.668 244.888C278.547 244.767 278.486 244.617 278.486 244.44V238.434C278.486 238.257 278.547 238.107 278.668 237.986C278.789 237.855 278.939 237.79 279.116 237.79C279.303 237.79 279.457 237.851 279.578 237.972C279.699 238.093 279.76 238.247 279.76 238.434V244.44C279.76 244.617 279.695 244.767 279.564 244.888C279.443 245.009 279.293 245.07 279.116 245.07ZM284.282 245.14C283.349 245.14 282.5 244.93 281.734 244.51C281.576 244.398 281.496 244.244 281.496 244.048C281.496 243.899 281.548 243.768 281.65 243.656C281.753 243.544 281.884 243.488 282.042 243.488C282.126 243.488 282.21 243.507 282.294 243.544C282.593 243.675 282.892 243.777 283.19 243.852C283.489 243.927 283.825 243.964 284.198 243.964C285.234 243.964 285.752 243.633 285.752 242.97C285.752 242.755 285.631 242.592 285.388 242.48C285.155 242.368 284.768 242.242 284.226 242.102C283.676 241.971 283.218 241.836 282.854 241.696C282.5 241.556 282.192 241.346 281.93 241.066C281.678 240.777 281.552 240.399 281.552 239.932C281.552 239.279 281.786 238.747 282.252 238.336C282.728 237.925 283.405 237.72 284.282 237.72C285.001 237.72 285.678 237.837 286.312 238.07C286.443 238.107 286.541 238.177 286.606 238.28C286.681 238.383 286.718 238.49 286.718 238.602C286.718 238.751 286.662 238.882 286.55 238.994C286.448 239.106 286.317 239.162 286.158 239.162C286.112 239.162 286.051 239.153 285.976 239.134C285.435 238.966 284.903 238.882 284.38 238.882C283.876 238.882 283.48 238.975 283.19 239.162C282.91 239.339 282.77 239.573 282.77 239.862C282.77 240.142 282.901 240.347 283.162 240.478C283.424 240.609 283.83 240.735 284.38 240.856C284.931 240.996 285.379 241.136 285.724 241.276C286.07 241.407 286.364 241.617 286.606 241.906C286.858 242.195 286.984 242.583 286.984 243.068C286.984 243.665 286.746 244.16 286.27 244.552C285.804 244.944 285.141 245.14 284.282 245.14ZM291.009 245.14C290.075 245.14 289.226 244.93 288.461 244.51C288.302 244.398 288.223 244.244 288.223 244.048C288.223 243.899 288.274 243.768 288.377 243.656C288.479 243.544 288.61 243.488 288.769 243.488C288.853 243.488 288.937 243.507 289.021 243.544C289.319 243.675 289.618 243.777 289.917 243.852C290.215 243.927 290.551 243.964 290.925 243.964C291.961 243.964 292.479 243.633 292.479 242.97C292.479 242.755 292.357 242.592 292.115 242.48C291.881 242.368 291.494 242.242 290.953 242.102C290.402 241.971 289.945 241.836 289.581 241.696C289.226 241.556 288.918 241.346 288.657 241.066C288.405 240.777 288.279 240.399 288.279 239.932C288.279 239.279 288.512 238.747 288.979 238.336C289.455 237.925 290.131 237.72 291.009 237.72C291.727 237.72 292.404 237.837 293.039 238.07C293.169 238.107 293.267 238.177 293.333 238.28C293.407 238.383 293.445 238.49 293.445 238.602C293.445 238.751 293.389 238.882 293.277 238.994C293.174 239.106 293.043 239.162 292.885 239.162C292.838 239.162 292.777 239.153 292.703 239.134C292.161 238.966 291.629 238.882 291.107 238.882C290.603 238.882 290.206 238.975 289.917 239.162C289.637 239.339 289.497 239.573 289.497 239.862C289.497 240.142 289.627 240.347 289.889 240.478C290.15 240.609 290.556 240.735 291.107 240.856C291.657 240.996 292.105 241.136 292.451 241.276C292.796 241.407 293.09 241.617 293.333 241.906C293.585 242.195 293.711 242.583 293.711 243.068C293.711 243.665 293.473 244.16 292.997 244.552C292.53 244.944 291.867 245.14 291.009 245.14ZM297.245 245.14C296.835 245.14 296.452 245.056 296.097 244.888C295.752 244.72 295.477 244.477 295.271 244.16C295.066 243.833 294.963 243.46 294.963 243.04C294.963 242.349 295.234 241.799 295.775 241.388C296.326 240.977 297.129 240.772 298.183 240.772H299.877V240.66C299.877 240.044 299.723 239.601 299.415 239.33C299.117 239.059 298.645 238.924 298.001 238.924C297.647 238.924 297.329 238.952 297.049 239.008C296.779 239.064 296.475 239.148 296.139 239.26C296.065 239.279 296.004 239.288 295.957 239.288C295.817 239.288 295.696 239.237 295.593 239.134C295.491 239.031 295.439 238.905 295.439 238.756C295.439 238.504 295.561 238.327 295.803 238.224C296.597 237.888 297.404 237.72 298.225 237.72C298.869 237.72 299.411 237.851 299.849 238.112C300.297 238.373 300.624 238.714 300.829 239.134C301.044 239.545 301.151 239.993 301.151 240.478V244.44C301.151 244.617 301.086 244.767 300.955 244.888C300.834 245.009 300.685 245.07 300.507 245.07C300.33 245.07 300.181 245.009 300.059 244.888C299.938 244.767 299.877 244.617 299.877 244.44V244.076C299.187 244.785 298.309 245.14 297.245 245.14ZM297.721 244.02C298.132 244.02 298.529 243.922 298.911 243.726C299.294 243.521 299.616 243.269 299.877 242.97V241.794H298.351C296.942 241.794 296.237 242.163 296.237 242.9C296.237 243.236 296.349 243.507 296.573 243.712C296.807 243.917 297.189 244.02 297.721 244.02ZM306.619 248.36C306.077 248.36 305.531 248.29 304.981 248.15C304.43 248.01 303.977 247.837 303.623 247.632C303.455 247.529 303.371 247.366 303.371 247.142C303.371 246.993 303.422 246.857 303.525 246.736C303.637 246.624 303.772 246.568 303.931 246.568C304.005 246.568 304.089 246.587 304.183 246.624C304.892 246.979 305.662 247.156 306.493 247.156C307.921 247.156 308.635 246.395 308.635 244.874V243.936C307.972 244.645 307.174 245 306.241 245C305.69 245 305.153 244.865 304.631 244.594C304.117 244.314 303.693 243.903 303.357 243.362C303.021 242.811 302.853 242.144 302.853 241.36C302.853 240.576 303.021 239.913 303.357 239.372C303.693 238.821 304.117 238.411 304.631 238.14C305.153 237.86 305.69 237.72 306.241 237.72C307.174 237.72 307.972 238.075 308.635 238.784V238.434C308.635 238.257 308.695 238.107 308.817 237.986C308.938 237.855 309.087 237.79 309.265 237.79C309.442 237.79 309.591 237.855 309.713 237.986C309.843 238.107 309.909 238.257 309.909 238.434V244.692C309.909 245.868 309.624 246.773 309.055 247.408C308.485 248.043 307.673 248.36 306.619 248.36ZM306.507 243.838C306.945 243.838 307.333 243.745 307.669 243.558C308.005 243.371 308.327 243.119 308.635 242.802V239.918C308.327 239.601 308.005 239.349 307.669 239.162C307.333 238.975 306.945 238.882 306.507 238.882C305.807 238.882 305.233 239.097 304.785 239.526C304.346 239.946 304.127 240.557 304.127 241.36C304.127 242.163 304.346 242.779 304.785 243.208C305.233 243.628 305.807 243.838 306.507 243.838ZM315.311 245.14C314.172 245.14 313.281 244.818 312.637 244.174C312.002 243.521 311.685 242.606 311.685 241.43C311.685 240.767 311.806 240.156 312.049 239.596C312.291 239.036 312.665 238.583 313.169 238.238C313.673 237.893 314.293 237.72 315.031 237.72C315.721 237.72 316.319 237.883 316.823 238.21C317.327 238.527 317.709 238.957 317.971 239.498C318.232 240.03 318.363 240.613 318.363 241.248C318.363 241.425 318.302 241.575 318.181 241.696C318.069 241.817 317.915 241.878 317.719 241.878H312.973C313.047 242.531 313.29 243.04 313.701 243.404C314.111 243.768 314.685 243.95 315.423 243.95C315.815 243.95 316.155 243.913 316.445 243.838C316.743 243.763 317.033 243.656 317.313 243.516C317.387 243.479 317.471 243.46 317.565 243.46C317.714 243.46 317.845 243.511 317.957 243.614C318.069 243.717 318.125 243.847 318.125 244.006C318.125 244.211 318.003 244.384 317.761 244.524C317.397 244.729 317.037 244.883 316.683 244.986C316.328 245.089 315.871 245.14 315.311 245.14ZM317.103 240.842C317.075 240.385 316.953 240.002 316.739 239.694C316.533 239.386 316.277 239.162 315.969 239.022C315.661 238.873 315.348 238.798 315.031 238.798C314.713 238.798 314.401 238.873 314.093 239.022C313.785 239.162 313.528 239.386 313.323 239.694C313.117 240.002 313.001 240.385 312.973 240.842H317.103Z" fill="#444444"/>
<path d="M140.327 313.14C139.189 313.14 138.297 312.818 137.653 312.174C137.019 311.521 136.701 310.606 136.701 309.43C136.701 308.767 136.823 308.156 137.065 307.596C137.308 307.036 137.681 306.583 138.185 306.238C138.689 305.893 139.31 305.72 140.047 305.72C140.738 305.72 141.335 305.883 141.839 306.21C142.343 306.527 142.726 306.957 142.987 307.498C143.249 308.03 143.379 308.613 143.379 309.248C143.379 309.425 143.319 309.575 143.197 309.696C143.085 309.817 142.931 309.878 142.735 309.878H137.989C138.064 310.531 138.307 311.04 138.717 311.404C139.128 311.768 139.702 311.95 140.439 311.95C140.831 311.95 141.172 311.913 141.461 311.838C141.76 311.763 142.049 311.656 142.329 311.516C142.404 311.479 142.488 311.46 142.581 311.46C142.731 311.46 142.861 311.511 142.973 311.614C143.085 311.717 143.141 311.847 143.141 312.006C143.141 312.211 143.02 312.384 142.777 312.524C142.413 312.729 142.054 312.883 141.699 312.986C141.345 313.089 140.887 313.14 140.327 313.14ZM142.119 308.842C142.091 308.385 141.97 308.002 141.755 307.694C141.55 307.386 141.293 307.162 140.985 307.022C140.677 306.873 140.365 306.798 140.047 306.798C139.73 306.798 139.417 306.873 139.109 307.022C138.801 307.162 138.545 307.386 138.339 307.694C138.134 308.002 138.017 308.385 137.989 308.842H142.119ZM145.193 313.07C145.006 313.07 144.857 313.014 144.745 312.902C144.642 312.781 144.591 312.622 144.591 312.426C144.591 312.286 144.638 312.155 144.731 312.034L146.901 309.472L144.731 306.826C144.628 306.695 144.577 306.56 144.577 306.42C144.577 306.233 144.638 306.084 144.759 305.972C144.88 305.851 145.03 305.79 145.207 305.79C145.431 305.79 145.599 305.869 145.711 306.028L147.671 308.45L149.617 306.028C149.729 305.869 149.892 305.79 150.107 305.79C150.294 305.79 150.448 305.851 150.569 305.972C150.69 306.084 150.751 306.224 150.751 306.392C150.751 306.532 150.704 306.663 150.611 306.784L148.399 309.388L150.583 312.02C150.686 312.132 150.737 312.267 150.737 312.426C150.737 312.603 150.681 312.757 150.569 312.888C150.457 313.009 150.298 313.07 150.093 313.07C149.888 313.07 149.724 312.986 149.603 312.818L147.615 310.438L145.739 312.79C145.599 312.977 145.417 313.07 145.193 313.07ZM155.021 313.14C153.659 313.14 152.977 312.524 152.977 311.292V306.952H151.983C151.909 306.952 151.843 306.929 151.787 306.882C151.741 306.826 151.717 306.761 151.717 306.686C151.717 306.593 151.759 306.513 151.843 306.448L153.747 304.586C153.831 304.502 153.911 304.46 153.985 304.46C154.06 304.46 154.121 304.488 154.167 304.544C154.223 304.6 154.251 304.665 154.251 304.74V305.86H155.833C155.992 305.86 156.123 305.911 156.225 306.014C156.328 306.117 156.379 306.247 156.379 306.406C156.379 306.555 156.328 306.686 156.225 306.798C156.123 306.901 155.992 306.952 155.833 306.952H154.251V311.18C154.251 311.544 154.335 311.777 154.503 311.88C154.681 311.973 154.9 312.02 155.161 312.02C155.348 312.02 155.535 311.992 155.721 311.936C155.759 311.927 155.796 311.917 155.833 311.908C155.88 311.899 155.936 311.894 156.001 311.894C156.132 311.894 156.249 311.945 156.351 312.048C156.454 312.141 156.505 312.258 156.505 312.398C156.505 312.613 156.398 312.776 156.183 312.888C155.819 313.056 155.432 313.14 155.021 313.14ZM158.533 313.07C158.356 313.07 158.206 313.009 158.085 312.888C157.964 312.767 157.903 312.617 157.903 312.44V306.434C157.903 306.257 157.964 306.107 158.085 305.986C158.206 305.855 158.356 305.79 158.533 305.79C158.71 305.79 158.86 305.855 158.981 305.986C159.112 306.107 159.177 306.257 159.177 306.434V307.036C159.83 306.159 160.563 305.72 161.375 305.72H161.445C161.622 305.72 161.767 305.781 161.879 305.902C162 306.023 162.061 306.173 162.061 306.35C162.061 306.527 162 306.672 161.879 306.784C161.758 306.896 161.604 306.952 161.417 306.952H161.347C160.899 306.952 160.488 307.064 160.115 307.288C159.742 307.503 159.429 307.801 159.177 308.184V312.44C159.177 312.617 159.112 312.767 158.981 312.888C158.86 313.009 158.71 313.07 158.533 313.07ZM165.082 313.14C164.672 313.14 164.289 313.056 163.934 312.888C163.589 312.72 163.314 312.477 163.108 312.16C162.903 311.833 162.8 311.46 162.8 311.04C162.8 310.349 163.071 309.799 163.612 309.388C164.163 308.977 164.966 308.772 166.02 308.772H167.714V308.66C167.714 308.044 167.56 307.601 167.252 307.33C166.954 307.059 166.482 306.924 165.838 306.924C165.484 306.924 165.166 306.952 164.886 307.008C164.616 307.064 164.312 307.148 163.976 307.26C163.902 307.279 163.841 307.288 163.794 307.288C163.654 307.288 163.533 307.237 163.43 307.134C163.328 307.031 163.276 306.905 163.276 306.756C163.276 306.504 163.398 306.327 163.64 306.224C164.434 305.888 165.241 305.72 166.062 305.72C166.706 305.72 167.248 305.851 167.686 306.112C168.134 306.373 168.461 306.714 168.666 307.134C168.881 307.545 168.988 307.993 168.988 308.478V312.44C168.988 312.617 168.923 312.767 168.792 312.888C168.671 313.009 168.522 313.07 168.344 313.07C168.167 313.07 168.018 313.009 167.896 312.888C167.775 312.767 167.714 312.617 167.714 312.44V312.076C167.024 312.785 166.146 313.14 165.082 313.14ZM165.558 312.02C165.969 312.02 166.366 311.922 166.748 311.726C167.131 311.521 167.453 311.269 167.714 310.97V309.794H166.188C164.779 309.794 164.074 310.163 164.074 310.9C164.074 311.236 164.186 311.507 164.41 311.712C164.644 311.917 165.026 312.02 165.558 312.02ZM174.274 313.14C173.555 313.14 172.925 312.986 172.384 312.678C171.842 312.37 171.422 311.936 171.124 311.376C170.834 310.807 170.69 310.158 170.69 309.43C170.69 308.702 170.834 308.058 171.124 307.498C171.422 306.929 171.842 306.49 172.384 306.182C172.925 305.874 173.555 305.72 174.274 305.72C174.983 305.72 175.608 305.874 176.15 306.182C176.691 306.49 177.111 306.929 177.41 307.498C177.708 308.058 177.858 308.702 177.858 309.43C177.858 310.158 177.708 310.807 177.41 311.376C177.111 311.936 176.691 312.37 176.15 312.678C175.608 312.986 174.983 313.14 174.274 313.14ZM174.274 311.978C174.656 311.978 175.02 311.889 175.366 311.712C175.72 311.535 176.01 311.255 176.234 310.872C176.467 310.489 176.584 310.004 176.584 309.416C176.584 308.837 176.467 308.357 176.234 307.974C176.01 307.591 175.72 307.316 175.366 307.148C175.02 306.971 174.656 306.882 174.274 306.882C173.882 306.882 173.508 306.971 173.154 307.148C172.808 307.316 172.524 307.591 172.3 307.974C172.076 308.357 171.964 308.837 171.964 309.416C171.964 310.004 172.076 310.489 172.3 310.872C172.524 311.255 172.808 311.535 173.154 311.712C173.508 311.889 173.882 311.978 174.274 311.978ZM180.271 313.07C180.094 313.07 179.944 313.009 179.823 312.888C179.702 312.767 179.641 312.617 179.641 312.44V306.434C179.641 306.257 179.702 306.107 179.823 305.986C179.944 305.855 180.094 305.79 180.271 305.79C180.448 305.79 180.598 305.855 180.719 305.986C180.85 306.107 180.915 306.257 180.915 306.434V307.036C181.568 306.159 182.301 305.72 183.113 305.72H183.183C183.36 305.72 183.505 305.781 183.617 305.902C183.738 306.023 183.799 306.173 183.799 306.35C183.799 306.527 183.738 306.672 183.617 306.784C183.496 306.896 183.342 306.952 183.155 306.952H183.085C182.637 306.952 182.226 307.064 181.853 307.288C181.48 307.503 181.167 307.801 180.915 308.184V312.44C180.915 312.617 180.85 312.767 180.719 312.888C180.598 313.009 180.448 313.07 180.271 313.07ZM187.749 313.14C187.171 313.14 186.62 312.995 186.097 312.706C185.584 312.407 185.164 311.978 184.837 311.418C184.52 310.849 184.361 310.186 184.361 309.43C184.361 308.674 184.52 308.016 184.837 307.456C185.164 306.887 185.584 306.457 186.097 306.168C186.62 305.869 187.171 305.72 187.749 305.72C188.664 305.72 189.462 306.075 190.143 306.784V303.354C190.143 303.167 190.204 303.013 190.325 302.892C190.456 302.771 190.61 302.71 190.787 302.71C190.965 302.71 191.114 302.775 191.235 302.906C191.357 303.027 191.417 303.177 191.417 303.354V312.44C191.417 312.617 191.357 312.767 191.235 312.888C191.114 313.009 190.965 313.07 190.787 313.07C190.61 313.07 190.456 313.009 190.325 312.888C190.204 312.767 190.143 312.617 190.143 312.44V312.076C189.462 312.785 188.664 313.14 187.749 313.14ZM187.931 311.95C188.361 311.95 188.762 311.857 189.135 311.67C189.518 311.474 189.854 311.217 190.143 310.9V307.96C189.854 307.643 189.518 307.391 189.135 307.204C188.762 307.008 188.361 306.91 187.931 306.91C187.241 306.91 186.685 307.129 186.265 307.568C185.845 308.007 185.635 308.627 185.635 309.43C185.635 310.233 185.845 310.853 186.265 311.292C186.685 311.731 187.241 311.95 187.931 311.95ZM194.229 304.404C194.033 304.404 193.865 304.334 193.725 304.194C193.585 304.054 193.515 303.886 193.515 303.69V303.634C193.515 303.438 193.585 303.27 193.725 303.13C193.865 302.99 194.033 302.92 194.229 302.92H194.313C194.509 302.92 194.677 302.99 194.817 303.13C194.957 303.27 195.027 303.438 195.027 303.634V303.69C195.027 303.886 194.957 304.054 194.817 304.194C194.677 304.334 194.509 304.404 194.313 304.404H194.229ZM194.257 313.07C194.08 313.07 193.931 313.009 193.809 312.888C193.688 312.767 193.627 312.617 193.627 312.44V306.434C193.627 306.257 193.688 306.107 193.809 305.986C193.931 305.855 194.08 305.79 194.257 305.79C194.444 305.79 194.598 305.851 194.719 305.972C194.841 306.093 194.901 306.247 194.901 306.434V312.44C194.901 312.617 194.836 312.767 194.705 312.888C194.584 313.009 194.435 313.07 194.257 313.07ZM197.744 313.07C197.566 313.07 197.417 313.009 197.296 312.888C197.174 312.767 197.114 312.617 197.114 312.44V306.434C197.114 306.257 197.174 306.107 197.296 305.986C197.417 305.855 197.566 305.79 197.744 305.79C197.921 305.79 198.07 305.855 198.192 305.986C198.322 306.107 198.388 306.257 198.388 306.434V307.008C198.742 306.616 199.125 306.303 199.536 306.07C199.946 305.837 200.432 305.72 200.992 305.72C201.505 305.72 201.948 305.841 202.322 306.084C202.704 306.327 202.994 306.658 203.19 307.078C203.395 307.498 203.498 307.96 203.498 308.464V312.44C203.498 312.617 203.432 312.767 203.302 312.888C203.18 313.009 203.031 313.07 202.854 313.07C202.676 313.07 202.527 313.009 202.406 312.888C202.284 312.767 202.224 312.617 202.224 312.44V308.604C202.224 307.465 201.71 306.896 200.684 306.896C200.217 306.896 199.797 307.017 199.424 307.26C199.06 307.503 198.714 307.829 198.388 308.24V312.44C198.388 312.617 198.322 312.767 198.192 312.888C198.07 313.009 197.921 313.07 197.744 313.07ZM207.465 313.14C207.054 313.14 206.672 313.056 206.317 312.888C205.972 312.72 205.696 312.477 205.491 312.16C205.286 311.833 205.183 311.46 205.183 311.04C205.183 310.349 205.454 309.799 205.995 309.388C206.546 308.977 207.348 308.772 208.403 308.772H210.097V308.66C210.097 308.044 209.943 307.601 209.635 307.33C209.336 307.059 208.865 306.924 208.221 306.924C207.866 306.924 207.549 306.952 207.269 307.008C206.998 307.064 206.695 307.148 206.359 307.26C206.284 307.279 206.224 307.288 206.177 307.288C206.037 307.288 205.916 307.237 205.813 307.134C205.71 307.031 205.659 306.905 205.659 306.756C205.659 306.504 205.78 306.327 206.023 306.224C206.816 305.888 207.624 305.72 208.445 305.72C209.089 305.72 209.63 305.851 210.069 306.112C210.517 306.373 210.844 306.714 211.049 307.134C211.264 307.545 211.371 307.993 211.371 308.478V312.44C211.371 312.617 211.306 312.767 211.175 312.888C211.054 313.009 210.904 313.07 210.727 313.07C210.55 313.07 210.4 313.009 210.279 312.888C210.158 312.767 210.097 312.617 210.097 312.44V312.076C209.406 312.785 208.529 313.14 207.465 313.14ZM207.941 312.02C208.352 312.02 208.748 311.922 209.131 311.726C209.514 311.521 209.836 311.269 210.097 310.97V309.794H208.571C207.162 309.794 206.457 310.163 206.457 310.9C206.457 311.236 206.569 311.507 206.793 311.712C207.026 311.917 207.409 312.02 207.941 312.02ZM214.108 304.404C213.912 304.404 213.744 304.334 213.604 304.194C213.464 304.054 213.394 303.886 213.394 303.69V303.634C213.394 303.438 213.464 303.27 213.604 303.13C213.744 302.99 213.912 302.92 214.108 302.92H214.192C214.388 302.92 214.556 302.99 214.696 303.13C214.836 303.27 214.906 303.438 214.906 303.634V303.69C214.906 303.886 214.836 304.054 214.696 304.194C214.556 304.334 214.388 304.404 214.192 304.404H214.108ZM214.136 313.07C213.959 313.07 213.81 313.009 213.688 312.888C213.567 312.767 213.506 312.617 213.506 312.44V306.434C213.506 306.257 213.567 306.107 213.688 305.986C213.81 305.855 213.959 305.79 214.136 305.79C214.323 305.79 214.477 305.851 214.598 305.972C214.72 306.093 214.78 306.247 214.78 306.434V312.44C214.78 312.617 214.715 312.767 214.584 312.888C214.463 313.009 214.314 313.07 214.136 313.07ZM217.623 313.07C217.445 313.07 217.296 313.009 217.175 312.888C217.053 312.767 216.993 312.617 216.993 312.44V306.434C216.993 306.257 217.053 306.107 217.175 305.986C217.296 305.855 217.445 305.79 217.623 305.79C217.8 305.79 217.949 305.855 218.071 305.986C218.201 306.107 218.267 306.257 218.267 306.434V307.036C218.92 306.159 219.653 305.72 220.465 305.72H220.535C220.712 305.72 220.857 305.781 220.969 305.902C221.09 306.023 221.151 306.173 221.151 306.35C221.151 306.527 221.09 306.672 220.969 306.784C220.847 306.896 220.693 306.952 220.507 306.952H220.437C219.989 306.952 219.578 307.064 219.205 307.288C218.831 307.503 218.519 307.801 218.267 308.184V312.44C218.267 312.617 218.201 312.767 218.071 312.888C217.949 313.009 217.8 313.07 217.623 313.07ZM225.339 313.14C224.2 313.14 223.309 312.818 222.665 312.174C222.03 311.521 221.713 310.606 221.713 309.43C221.713 308.767 221.834 308.156 222.077 307.596C222.32 307.036 222.693 306.583 223.197 306.238C223.701 305.893 224.322 305.72 225.059 305.72C225.75 305.72 226.347 305.883 226.851 306.21C227.355 306.527 227.738 306.957 227.999 307.498C228.26 308.03 228.391 308.613 228.391 309.248C228.391 309.425 228.33 309.575 228.209 309.696C228.097 309.817 227.943 309.878 227.747 309.878H223.001C223.076 310.531 223.318 311.04 223.729 311.404C224.14 311.768 224.714 311.95 225.451 311.95C225.843 311.95 226.184 311.913 226.473 311.838C226.772 311.763 227.061 311.656 227.341 311.516C227.416 311.479 227.5 311.46 227.593 311.46C227.742 311.46 227.873 311.511 227.985 311.614C228.097 311.717 228.153 311.847 228.153 312.006C228.153 312.211 228.032 312.384 227.789 312.524C227.425 312.729 227.066 312.883 226.711 312.986C226.356 313.089 225.899 313.14 225.339 313.14ZM227.131 308.842C227.103 308.385 226.982 308.002 226.767 307.694C226.562 307.386 226.305 307.162 225.997 307.022C225.689 306.873 225.376 306.798 225.059 306.798C224.742 306.798 224.429 306.873 224.121 307.022C223.813 307.162 223.556 307.386 223.351 307.694C223.146 308.002 223.029 308.385 223.001 308.842H227.131Z" fill="#444444"/>
<path d="M48.1164 299.14C47.7058 299.14 47.3231 299.056 46.9684 298.888C46.6231 298.72 46.3478 298.477 46.1424 298.16C45.9371 297.833 45.8344 297.46 45.8344 297.04C45.8344 296.349 46.1051 295.799 46.6464 295.388C47.1971 294.977 47.9998 294.772 49.0544 294.772H50.7484V294.66C50.7484 294.044 50.5944 293.601 50.2864 293.33C49.9878 293.059 49.5164 292.924 48.8724 292.924C48.5178 292.924 48.2004 292.952 47.9204 293.008C47.6498 293.064 47.3464 293.148 47.0104 293.26C46.9358 293.279 46.8751 293.288 46.8284 293.288C46.6884 293.288 46.5671 293.237 46.4644 293.134C46.3618 293.031 46.3104 292.905 46.3104 292.756C46.3104 292.504 46.4318 292.327 46.6744 292.224C47.4678 291.888 48.2751 291.72 49.0964 291.72C49.7404 291.72 50.2818 291.851 50.7204 292.112C51.1684 292.373 51.4951 292.714 51.7004 293.134C51.9151 293.545 52.0224 293.993 52.0224 294.478V298.44C52.0224 298.617 51.9571 298.767 51.8264 298.888C51.7051 299.009 51.5558 299.07 51.3784 299.07C51.2011 299.07 51.0518 299.009 50.9304 298.888C50.8091 298.767 50.7484 298.617 50.7484 298.44V298.076C50.0578 298.785 49.1804 299.14 48.1164 299.14ZM48.5924 298.02C49.0031 298.02 49.3998 297.922 49.7824 297.726C50.1651 297.521 50.4871 297.269 50.7484 296.97V295.794H49.2224C47.8131 295.794 47.1084 296.163 47.1084 296.9C47.1084 297.236 47.2204 297.507 47.4444 297.712C47.6778 297.917 48.0604 298.02 48.5924 298.02ZM57.4618 299.14C56.7898 299.14 56.1691 298.991 55.5998 298.692C55.0304 298.393 54.5731 297.964 54.2278 297.404C53.8918 296.844 53.7238 296.186 53.7238 295.43C53.7238 294.674 53.8918 294.016 54.2278 293.456C54.5731 292.896 55.0304 292.467 55.5998 292.168C56.1691 291.869 56.7898 291.72 57.4618 291.72C57.9564 291.72 58.3811 291.785 58.7358 291.916C59.0998 292.037 59.4358 292.196 59.7438 292.392C59.9304 292.513 60.0238 292.677 60.0238 292.882C60.0238 293.022 59.9678 293.153 59.8558 293.274C59.7531 293.386 59.6318 293.442 59.4918 293.442C59.3891 293.442 59.2864 293.414 59.1838 293.358C58.8758 293.199 58.6098 293.087 58.3858 293.022C58.1711 292.947 57.9004 292.91 57.5738 292.91C56.7711 292.91 56.1411 293.143 55.6838 293.61C55.2264 294.067 54.9978 294.674 54.9978 295.43C54.9978 296.186 55.2264 296.797 55.6838 297.264C56.1411 297.721 56.7711 297.95 57.5738 297.95C57.9004 297.95 58.1711 297.917 58.3858 297.852C58.6098 297.777 58.8758 297.661 59.1838 297.502C59.2864 297.446 59.3891 297.418 59.4918 297.418C59.6318 297.418 59.7531 297.479 59.8558 297.6C59.9678 297.712 60.0238 297.838 60.0238 297.978C60.0238 298.183 59.9304 298.347 59.7438 298.468C59.4358 298.664 59.0998 298.827 58.7358 298.958C58.3811 299.079 57.9564 299.14 57.4618 299.14ZM64.0866 299.14C62.7239 299.14 62.0426 298.524 62.0426 297.292V292.952H61.0486C60.9739 292.952 60.9086 292.929 60.8526 292.882C60.8059 292.826 60.7826 292.761 60.7826 292.686C60.7826 292.593 60.8246 292.513 60.9086 292.448L62.8126 290.586C62.8966 290.502 62.9759 290.46 63.0506 290.46C63.1253 290.46 63.1859 290.488 63.2326 290.544C63.2886 290.6 63.3166 290.665 63.3166 290.74V291.86H64.8986C65.0573 291.86 65.1879 291.911 65.2906 292.014C65.3933 292.117 65.4446 292.247 65.4446 292.406C65.4446 292.555 65.3933 292.686 65.2906 292.798C65.1879 292.901 65.0573 292.952 64.8986 292.952H63.3166V297.18C63.3166 297.544 63.4006 297.777 63.5686 297.88C63.7459 297.973 63.9653 298.02 64.2266 298.02C64.4133 298.02 64.5999 297.992 64.7866 297.936C64.8239 297.927 64.8613 297.917 64.8986 297.908C64.9453 297.899 65.0013 297.894 65.0666 297.894C65.1973 297.894 65.3139 297.945 65.4166 298.048C65.5193 298.141 65.5706 298.258 65.5706 298.398C65.5706 298.613 65.4633 298.776 65.2486 298.888C64.8846 299.056 64.4973 299.14 64.0866 299.14ZM69.4043 299.14C68.891 299.14 68.443 299.019 68.0603 298.776C67.687 298.533 67.3976 298.202 67.1923 297.782C66.9963 297.362 66.8983 296.9 66.8983 296.396V292.42C66.8983 292.243 66.959 292.093 67.0803 291.972C67.211 291.851 67.365 291.79 67.5423 291.79C67.7196 291.79 67.869 291.851 67.9903 291.972C68.1116 292.093 68.1723 292.243 68.1723 292.42V296.256C68.1723 297.395 68.6856 297.964 69.7123 297.964C70.179 297.964 70.5943 297.843 70.9583 297.6C71.3316 297.357 71.6816 297.031 72.0083 296.62V292.42C72.0083 292.243 72.069 292.093 72.1903 291.972C72.321 291.851 72.475 291.79 72.6523 291.79C72.8296 291.79 72.979 291.851 73.1003 291.972C73.2216 292.093 73.2823 292.243 73.2823 292.42V298.426C73.2823 298.603 73.2216 298.757 73.1003 298.888C72.979 299.009 72.8296 299.07 72.6523 299.07C72.475 299.07 72.321 299.009 72.1903 298.888C72.069 298.757 72.0083 298.603 72.0083 298.426V297.852C71.6536 298.244 71.271 298.557 70.8603 298.79C70.4496 299.023 69.9643 299.14 69.4043 299.14ZM78.6916 299.14C77.5529 299.14 76.6616 298.818 76.0176 298.174C75.3829 297.521 75.0656 296.606 75.0656 295.43C75.0656 294.767 75.1869 294.156 75.4296 293.596C75.6722 293.036 76.0456 292.583 76.5496 292.238C77.0536 291.893 77.6742 291.72 78.4116 291.72C79.1022 291.72 79.6996 291.883 80.2036 292.21C80.7076 292.527 81.0902 292.957 81.3516 293.498C81.6129 294.03 81.7436 294.613 81.7436 295.248C81.7436 295.425 81.6829 295.575 81.5616 295.696C81.4496 295.817 81.2956 295.878 81.0996 295.878H76.3536C76.4282 296.531 76.6709 297.04 77.0816 297.404C77.4922 297.768 78.0662 297.95 78.8036 297.95C79.1956 297.95 79.5362 297.913 79.8256 297.838C80.1242 297.763 80.4136 297.656 80.6936 297.516C80.7682 297.479 80.8522 297.46 80.9456 297.46C81.0949 297.46 81.2256 297.511 81.3376 297.614C81.4496 297.717 81.5056 297.847 81.5056 298.006C81.5056 298.211 81.3842 298.384 81.1416 298.524C80.7776 298.729 80.4182 298.883 80.0636 298.986C79.7089 299.089 79.2516 299.14 78.6916 299.14ZM80.4836 294.842C80.4556 294.385 80.3342 294.002 80.1196 293.694C79.9142 293.386 79.6576 293.162 79.3496 293.022C79.0416 292.873 78.7289 292.798 78.4116 292.798C78.0942 292.798 77.7816 292.873 77.4736 293.022C77.1656 293.162 76.9089 293.386 76.7036 293.694C76.4982 294.002 76.3816 294.385 76.3536 294.842H80.4836ZM84.0592 299.07C83.8819 299.07 83.7326 299.009 83.6112 298.888C83.4899 298.767 83.4292 298.617 83.4292 298.44V289.354C83.4292 289.177 83.4899 289.027 83.6112 288.906C83.7326 288.775 83.8819 288.71 84.0592 288.71C84.2459 288.71 84.3999 288.771 84.5212 288.892C84.6426 289.013 84.7032 289.167 84.7032 289.354V298.44C84.7032 298.617 84.6379 298.767 84.5072 298.888C84.3859 299.009 84.2366 299.07 84.0592 299.07Z" fill="#444444"/>
<path d="M353.735 211.07C353.567 211.07 353.413 211.023 353.273 210.93C353.133 210.827 353.03 210.701 352.965 210.552L350.529 204.728C350.482 204.616 350.459 204.518 350.459 204.434C350.459 204.257 350.519 204.107 350.641 203.986C350.762 203.855 350.911 203.79 351.089 203.79C351.21 203.79 351.322 203.827 351.425 203.902C351.537 203.967 351.616 204.051 351.663 204.154L353.805 209.586L355.947 204.154C355.993 204.051 356.068 203.967 356.171 203.902C356.283 203.827 356.399 203.79 356.521 203.79C356.698 203.79 356.847 203.855 356.969 203.986C357.09 204.107 357.151 204.257 357.151 204.434C357.151 204.518 357.127 204.616 357.081 204.728L354.645 210.552C354.579 210.701 354.477 210.827 354.337 210.93C354.197 211.023 354.043 211.07 353.875 211.07H353.735ZM361.679 211.14C360.96 211.14 360.33 210.986 359.789 210.678C359.248 210.37 358.828 209.936 358.529 209.376C358.24 208.807 358.095 208.158 358.095 207.43C358.095 206.702 358.24 206.058 358.529 205.498C358.828 204.929 359.248 204.49 359.789 204.182C360.33 203.874 360.96 203.72 361.679 203.72C362.388 203.72 363.014 203.874 363.555 204.182C364.096 204.49 364.516 204.929 364.815 205.498C365.114 206.058 365.263 206.702 365.263 207.43C365.263 208.158 365.114 208.807 364.815 209.376C364.516 209.936 364.096 210.37 363.555 210.678C363.014 210.986 362.388 211.14 361.679 211.14ZM361.679 209.978C362.062 209.978 362.426 209.889 362.771 209.712C363.126 209.535 363.415 209.255 363.639 208.872C363.872 208.489 363.989 208.004 363.989 207.416C363.989 206.837 363.872 206.357 363.639 205.974C363.415 205.591 363.126 205.316 362.771 205.148C362.426 204.971 362.062 204.882 361.679 204.882C361.287 204.882 360.914 204.971 360.559 205.148C360.214 205.316 359.929 205.591 359.705 205.974C359.481 206.357 359.369 206.837 359.369 207.416C359.369 208.004 359.481 208.489 359.705 208.872C359.929 209.255 360.214 209.535 360.559 209.712C360.914 209.889 361.287 209.978 361.679 209.978ZM368.547 214.29C368.379 214.29 368.234 214.229 368.113 214.108C368.001 213.987 367.945 213.842 367.945 213.674C367.945 213.599 367.959 213.525 367.987 213.45L368.897 211.112L366.265 204.7C366.227 204.607 366.209 204.518 366.209 204.434C366.209 204.257 366.269 204.107 366.391 203.986C366.512 203.855 366.661 203.79 366.839 203.79C366.969 203.79 367.086 203.827 367.189 203.902C367.301 203.977 367.38 204.07 367.427 204.182L369.583 209.53L371.781 204.21C371.902 203.93 372.098 203.79 372.369 203.79C372.546 203.79 372.695 203.855 372.817 203.986C372.938 204.107 372.999 204.257 372.999 204.434C372.999 204.518 372.985 204.597 372.957 204.672L369.135 213.856C369.004 214.145 368.808 214.29 368.547 214.29ZM376.208 211.14C375.798 211.14 375.415 211.056 375.06 210.888C374.715 210.72 374.44 210.477 374.234 210.16C374.029 209.833 373.926 209.46 373.926 209.04C373.926 208.349 374.197 207.799 374.738 207.388C375.289 206.977 376.092 206.772 377.146 206.772H378.84V206.66C378.84 206.044 378.686 205.601 378.378 205.33C378.08 205.059 377.608 204.924 376.964 204.924C376.61 204.924 376.292 204.952 376.012 205.008C375.742 205.064 375.438 205.148 375.102 205.26C375.028 205.279 374.967 205.288 374.92 205.288C374.78 205.288 374.659 205.237 374.556 205.134C374.454 205.031 374.402 204.905 374.402 204.756C374.402 204.504 374.524 204.327 374.766 204.224C375.56 203.888 376.367 203.72 377.188 203.72C377.832 203.72 378.374 203.851 378.812 204.112C379.26 204.373 379.587 204.714 379.792 205.134C380.007 205.545 380.114 205.993 380.114 206.478V210.44C380.114 210.617 380.049 210.767 379.918 210.888C379.797 211.009 379.648 211.07 379.47 211.07C379.293 211.07 379.144 211.009 379.022 210.888C378.901 210.767 378.84 210.617 378.84 210.44V210.076C378.15 210.785 377.272 211.14 376.208 211.14ZM376.684 210.02C377.095 210.02 377.492 209.922 377.874 209.726C378.257 209.521 378.579 209.269 378.84 208.97V207.794H377.314C375.905 207.794 375.2 208.163 375.2 208.9C375.2 209.236 375.312 209.507 375.536 209.712C375.77 209.917 376.152 210.02 376.684 210.02ZM385.582 214.36C385.04 214.36 384.494 214.29 383.944 214.15C383.393 214.01 382.94 213.837 382.586 213.632C382.418 213.529 382.334 213.366 382.334 213.142C382.334 212.993 382.385 212.857 382.488 212.736C382.6 212.624 382.735 212.568 382.894 212.568C382.968 212.568 383.052 212.587 383.146 212.624C383.855 212.979 384.625 213.156 385.456 213.156C386.884 213.156 387.598 212.395 387.598 210.874V209.936C386.935 210.645 386.137 211 385.204 211C384.653 211 384.116 210.865 383.594 210.594C383.08 210.314 382.656 209.903 382.32 209.362C381.984 208.811 381.816 208.144 381.816 207.36C381.816 206.576 381.984 205.913 382.32 205.372C382.656 204.821 383.08 204.411 383.594 204.14C384.116 203.86 384.653 203.72 385.204 203.72C386.137 203.72 386.935 204.075 387.598 204.784V204.434C387.598 204.257 387.658 204.107 387.78 203.986C387.901 203.855 388.05 203.79 388.228 203.79C388.405 203.79 388.554 203.855 388.676 203.986C388.806 204.107 388.872 204.257 388.872 204.434V210.692C388.872 211.868 388.587 212.773 388.018 213.408C387.448 214.043 386.636 214.36 385.582 214.36ZM385.47 209.838C385.908 209.838 386.296 209.745 386.632 209.558C386.968 209.371 387.29 209.119 387.598 208.802V205.918C387.29 205.601 386.968 205.349 386.632 205.162C386.296 204.975 385.908 204.882 385.47 204.882C384.77 204.882 384.196 205.097 383.748 205.526C383.309 205.946 383.09 206.557 383.09 207.36C383.09 208.163 383.309 208.779 383.748 209.208C384.196 209.628 384.77 209.838 385.47 209.838ZM394.274 211.14C393.135 211.14 392.244 210.818 391.6 210.174C390.965 209.521 390.648 208.606 390.648 207.43C390.648 206.767 390.769 206.156 391.012 205.596C391.254 205.036 391.628 204.583 392.132 204.238C392.636 203.893 393.256 203.72 393.994 203.72C394.684 203.72 395.282 203.883 395.786 204.21C396.29 204.527 396.672 204.957 396.934 205.498C397.195 206.03 397.326 206.613 397.326 207.248C397.326 207.425 397.265 207.575 397.144 207.696C397.032 207.817 396.878 207.878 396.682 207.878H391.936C392.01 208.531 392.253 209.04 392.664 209.404C393.074 209.768 393.648 209.95 394.386 209.95C394.778 209.95 395.118 209.913 395.408 209.838C395.706 209.763 395.996 209.656 396.276 209.516C396.35 209.479 396.434 209.46 396.528 209.46C396.677 209.46 396.808 209.511 396.92 209.614C397.032 209.717 397.088 209.847 397.088 210.006C397.088 210.211 396.966 210.384 396.724 210.524C396.36 210.729 396 210.883 395.646 210.986C395.291 211.089 394.834 211.14 394.274 211.14ZM396.066 206.842C396.038 206.385 395.916 206.002 395.702 205.694C395.496 205.386 395.24 205.162 394.932 205.022C394.624 204.873 394.311 204.798 393.994 204.798C393.676 204.798 393.364 204.873 393.056 205.022C392.748 205.162 392.491 205.386 392.286 205.694C392.08 206.002 391.964 206.385 391.936 206.842H396.066Z" fill="#444444"/>
<path d="M19.9678 171.404C19.7718 171.404 19.6038 171.334 19.4638 171.194C19.3238 171.054 19.2538 170.886 19.2538 170.69V170.634C19.2538 170.438 19.3238 170.27 19.4638 170.13C19.6038 169.99 19.7718 169.92 19.9678 169.92H20.0518C20.2478 169.92 20.4158 169.99 20.5558 170.13C20.6958 170.27 20.7658 170.438 20.7658 170.634V170.69C20.7658 170.886 20.6958 171.054 20.5558 171.194C20.4158 171.334 20.2478 171.404 20.0518 171.404H19.9678ZM19.9958 180.07C19.8184 180.07 19.6691 180.009 19.5478 179.888C19.4264 179.767 19.3658 179.617 19.3658 179.44V173.434C19.3658 173.257 19.4264 173.107 19.5478 172.986C19.6691 172.855 19.8184 172.79 19.9958 172.79C20.1824 172.79 20.3364 172.851 20.4578 172.972C20.5791 173.093 20.6398 173.247 20.6398 173.434V179.44C20.6398 179.617 20.5744 179.767 20.4438 179.888C20.3224 180.009 20.1731 180.07 19.9958 180.07ZM23.4821 180.07C23.3048 180.07 23.1554 180.009 23.0341 179.888C22.9128 179.767 22.8521 179.617 22.8521 179.44V173.434C22.8521 173.257 22.9128 173.107 23.0341 172.986C23.1554 172.855 23.3048 172.79 23.4821 172.79C23.6594 172.79 23.8088 172.855 23.9301 172.986C24.0608 173.107 24.1261 173.257 24.1261 173.434V174.008C24.3874 173.635 24.7001 173.327 25.0641 173.084C25.4374 172.841 25.9181 172.72 26.5061 172.72C27.0288 172.72 27.4768 172.86 27.8501 173.14C28.2234 173.42 28.4894 173.761 28.6481 174.162C29.2268 173.201 30.0854 172.72 31.2241 172.72C31.7468 172.72 32.1808 172.851 32.5261 173.112C32.8808 173.373 33.1421 173.709 33.3101 174.12C33.4781 174.531 33.5621 174.96 33.5621 175.408V179.44C33.5621 179.617 33.4968 179.767 33.3661 179.888C33.2448 180.009 33.0954 180.07 32.9181 180.07C32.7408 180.07 32.5914 180.009 32.4701 179.888C32.3488 179.767 32.2881 179.617 32.2881 179.44V175.66C32.2881 175.053 32.1808 174.61 31.9661 174.33C31.7514 174.041 31.3828 173.896 30.8601 173.896C30.3841 173.896 29.9874 174.022 29.6701 174.274C29.3621 174.517 29.0868 174.839 28.8441 175.24V179.44C28.8441 179.617 28.7788 179.767 28.6481 179.888C28.5268 180.009 28.3774 180.07 28.2001 180.07C28.0228 180.07 27.8734 180.009 27.7521 179.888C27.6308 179.767 27.5701 179.617 27.5701 179.44V175.66C27.5701 175.053 27.4628 174.61 27.2481 174.33C27.0334 174.041 26.6648 173.896 26.1421 173.896C25.6661 173.896 25.2694 174.022 24.9521 174.274C24.6441 174.517 24.3688 174.839 24.1261 175.24V179.44C24.1261 179.617 24.0608 179.767 23.9301 179.888C23.8088 180.009 23.6594 180.07 23.4821 180.07ZM37.5237 180.14C37.113 180.14 36.7303 180.056 36.3757 179.888C36.0303 179.72 35.755 179.477 35.5497 179.16C35.3443 178.833 35.2417 178.46 35.2417 178.04C35.2417 177.349 35.5123 176.799 36.0537 176.388C36.6043 175.977 37.407 175.772 38.4617 175.772H40.1557V175.66C40.1557 175.044 40.0017 174.601 39.6937 174.33C39.395 174.059 38.9237 173.924 38.2797 173.924C37.925 173.924 37.6077 173.952 37.3277 174.008C37.057 174.064 36.7537 174.148 36.4177 174.26C36.343 174.279 36.2823 174.288 36.2357 174.288C36.0957 174.288 35.9743 174.237 35.8717 174.134C35.769 174.031 35.7177 173.905 35.7177 173.756C35.7177 173.504 35.839 173.327 36.0817 173.224C36.875 172.888 37.6823 172.72 38.5037 172.72C39.1477 172.72 39.689 172.851 40.1277 173.112C40.5757 173.373 40.9023 173.714 41.1077 174.134C41.3223 174.545 41.4297 174.993 41.4297 175.478V179.44C41.4297 179.617 41.3643 179.767 41.2337 179.888C41.1123 180.009 40.963 180.07 40.7857 180.07C40.6083 180.07 40.459 180.009 40.3377 179.888C40.2163 179.767 40.1557 179.617 40.1557 179.44V179.076C39.465 179.785 38.5877 180.14 37.5237 180.14ZM37.9997 179.02C38.4103 179.02 38.807 178.922 39.1897 178.726C39.5723 178.521 39.8943 178.269 40.1557 177.97V176.794H38.6297C37.2203 176.794 36.5157 177.163 36.5157 177.9C36.5157 178.236 36.6277 178.507 36.8517 178.712C37.085 178.917 37.4677 179.02 37.9997 179.02ZM46.897 183.36C46.3557 183.36 45.8097 183.29 45.259 183.15C44.7083 183.01 44.2557 182.837 43.901 182.632C43.733 182.529 43.649 182.366 43.649 182.142C43.649 181.993 43.7003 181.857 43.803 181.736C43.915 181.624 44.0503 181.568 44.209 181.568C44.2837 181.568 44.3677 181.587 44.461 181.624C45.1703 181.979 45.9403 182.156 46.771 182.156C48.199 182.156 48.913 181.395 48.913 179.874V178.936C48.2503 179.645 47.4523 180 46.519 180C45.9683 180 45.4317 179.865 44.909 179.594C44.3957 179.314 43.971 178.903 43.635 178.362C43.299 177.811 43.131 177.144 43.131 176.36C43.131 175.576 43.299 174.913 43.635 174.372C43.971 173.821 44.3957 173.411 44.909 173.14C45.4317 172.86 45.9683 172.72 46.519 172.72C47.4523 172.72 48.2503 173.075 48.913 173.784V173.434C48.913 173.257 48.9737 173.107 49.095 172.986C49.2163 172.855 49.3657 172.79 49.543 172.79C49.7203 172.79 49.8697 172.855 49.991 172.986C50.1217 173.107 50.187 173.257 50.187 173.434V179.692C50.187 180.868 49.9023 181.773 49.333 182.408C48.7637 183.043 47.9517 183.36 46.897 183.36ZM46.785 178.838C47.2237 178.838 47.611 178.745 47.947 178.558C48.283 178.371 48.605 178.119 48.913 177.802V174.918C48.605 174.601 48.283 174.349 47.947 174.162C47.611 173.975 47.2237 173.882 46.785 173.882C46.085 173.882 45.511 174.097 45.063 174.526C44.6243 174.946 44.405 175.557 44.405 176.36C44.405 177.163 44.6243 177.779 45.063 178.208C45.511 178.628 46.085 178.838 46.785 178.838ZM52.999 171.404C52.803 171.404 52.635 171.334 52.495 171.194C52.355 171.054 52.285 170.886 52.285 170.69V170.634C52.285 170.438 52.355 170.27 52.495 170.13C52.635 169.99 52.803 169.92 52.999 169.92H53.083C53.279 169.92 53.447 169.99 53.587 170.13C53.727 170.27 53.797 170.438 53.797 170.634V170.69C53.797 170.886 53.727 171.054 53.587 171.194C53.447 171.334 53.279 171.404 53.083 171.404H52.999ZM53.027 180.07C52.8497 180.07 52.7003 180.009 52.579 179.888C52.4577 179.767 52.397 179.617 52.397 179.44V173.434C52.397 173.257 52.4577 173.107 52.579 172.986C52.7003 172.855 52.8497 172.79 53.027 172.79C53.2137 172.79 53.3677 172.851 53.489 172.972C53.6103 173.093 53.671 173.247 53.671 173.434V179.44C53.671 179.617 53.6057 179.767 53.475 179.888C53.3537 180.009 53.2043 180.07 53.027 180.07ZM56.5133 180.07C56.336 180.07 56.1867 180.009 56.0653 179.888C55.944 179.767 55.8833 179.617 55.8833 179.44V173.434C55.8833 173.257 55.944 173.107 56.0653 172.986C56.1867 172.855 56.336 172.79 56.5133 172.79C56.6907 172.79 56.84 172.855 56.9613 172.986C57.092 173.107 57.1573 173.257 57.1573 173.434V174.008C57.512 173.616 57.8947 173.303 58.3053 173.07C58.716 172.837 59.2013 172.72 59.7613 172.72C60.2747 172.72 60.718 172.841 61.0913 173.084C61.474 173.327 61.7633 173.658 61.9593 174.078C62.1647 174.498 62.2673 174.96 62.2673 175.464V179.44C62.2673 179.617 62.202 179.767 62.0713 179.888C61.95 180.009 61.8007 180.07 61.6233 180.07C61.446 180.07 61.2967 180.009 61.1753 179.888C61.054 179.767 60.9933 179.617 60.9933 179.44V175.604C60.9933 174.465 60.48 173.896 59.4533 173.896C58.9867 173.896 58.5667 174.017 58.1933 174.26C57.8293 174.503 57.484 174.829 57.1573 175.24V179.44C57.1573 179.617 57.092 179.767 56.9613 179.888C56.84 180.009 56.6907 180.07 56.5133 180.07ZM66.2346 180.14C65.8239 180.14 65.4413 180.056 65.0866 179.888C64.7413 179.72 64.4659 179.477 64.2606 179.16C64.0553 178.833 63.9526 178.46 63.9526 178.04C63.9526 177.349 64.2233 176.799 64.7646 176.388C65.3153 175.977 66.1179 175.772 67.1726 175.772H68.8666V175.66C68.8666 175.044 68.7126 174.601 68.4046 174.33C68.1059 174.059 67.6346 173.924 66.9906 173.924C66.6359 173.924 66.3186 173.952 66.0386 174.008C65.7679 174.064 65.4646 174.148 65.1286 174.26C65.0539 174.279 64.9933 174.288 64.9466 174.288C64.8066 174.288 64.6853 174.237 64.5826 174.134C64.4799 174.031 64.4286 173.905 64.4286 173.756C64.4286 173.504 64.5499 173.327 64.7926 173.224C65.5859 172.888 66.3933 172.72 67.2146 172.72C67.8586 172.72 68.3999 172.851 68.8386 173.112C69.2866 173.373 69.6133 173.714 69.8186 174.134C70.0333 174.545 70.1406 174.993 70.1406 175.478V179.44C70.1406 179.617 70.0753 179.767 69.9446 179.888C69.8233 180.009 69.6739 180.07 69.4966 180.07C69.3193 180.07 69.1699 180.009 69.0486 179.888C68.9273 179.767 68.8666 179.617 68.8666 179.44V179.076C68.1759 179.785 67.2986 180.14 66.2346 180.14ZM66.7106 179.02C67.1213 179.02 67.5179 178.922 67.9006 178.726C68.2833 178.521 68.6053 178.269 68.8666 177.97V176.794H67.3406C65.9313 176.794 65.2266 177.163 65.2266 177.9C65.2266 178.236 65.3386 178.507 65.5626 178.712C65.7959 178.917 66.1786 179.02 66.7106 179.02ZM72.8779 171.404C72.6819 171.404 72.5139 171.334 72.3739 171.194C72.2339 171.054 72.1639 170.886 72.1639 170.69V170.634C72.1639 170.438 72.2339 170.27 72.3739 170.13C72.5139 169.99 72.6819 169.92 72.8779 169.92H72.9619C73.1579 169.92 73.3259 169.99 73.4659 170.13C73.6059 170.27 73.6759 170.438 73.6759 170.634V170.69C73.6759 170.886 73.6059 171.054 73.4659 171.194C73.3259 171.334 73.1579 171.404 72.9619 171.404H72.8779ZM72.9059 180.07C72.7286 180.07 72.5793 180.009 72.4579 179.888C72.3366 179.767 72.2759 179.617 72.2759 179.44V173.434C72.2759 173.257 72.3366 173.107 72.4579 172.986C72.5793 172.855 72.7286 172.79 72.9059 172.79C73.0926 172.79 73.2466 172.851 73.3679 172.972C73.4893 173.093 73.5499 173.247 73.5499 173.434V179.44C73.5499 179.617 73.4846 179.767 73.3539 179.888C73.2326 180.009 73.0833 180.07 72.9059 180.07ZM76.3923 180.07C76.2149 180.07 76.0656 180.009 75.9443 179.888C75.8229 179.767 75.7623 179.617 75.7623 179.44V173.434C75.7623 173.257 75.8229 173.107 75.9443 172.986C76.0656 172.855 76.2149 172.79 76.3923 172.79C76.5696 172.79 76.7189 172.855 76.8403 172.986C76.9709 173.107 77.0363 173.257 77.0363 173.434V174.036C77.6896 173.159 78.4223 172.72 79.2343 172.72H79.3043C79.4816 172.72 79.6263 172.781 79.7383 172.902C79.8596 173.023 79.9203 173.173 79.9203 173.35C79.9203 173.527 79.8596 173.672 79.7383 173.784C79.6169 173.896 79.4629 173.952 79.2763 173.952H79.2063C78.7583 173.952 78.3476 174.064 77.9743 174.288C77.6009 174.503 77.2883 174.801 77.0363 175.184V179.44C77.0363 179.617 76.9709 179.767 76.8403 179.888C76.7189 180.009 76.5696 180.07 76.3923 180.07ZM84.1085 180.14C82.9699 180.14 82.0785 179.818 81.4345 179.174C80.7999 178.521 80.4825 177.606 80.4825 176.43C80.4825 175.767 80.6039 175.156 80.8465 174.596C81.0892 174.036 81.4625 173.583 81.9665 173.238C82.4705 172.893 83.0912 172.72 83.8285 172.72C84.5192 172.72 85.1165 172.883 85.6205 173.21C86.1245 173.527 86.5072 173.957 86.7685 174.498C87.0299 175.03 87.1605 175.613 87.1605 176.248C87.1605 176.425 87.0999 176.575 86.9785 176.696C86.8665 176.817 86.7125 176.878 86.5165 176.878H81.7705C81.8452 177.531 82.0879 178.04 82.4985 178.404C82.9092 178.768 83.4832 178.95 84.2205 178.95C84.6125 178.95 84.9532 178.913 85.2425 178.838C85.5412 178.763 85.8305 178.656 86.1105 178.516C86.1852 178.479 86.2692 178.46 86.3625 178.46C86.5119 178.46 86.6425 178.511 86.7545 178.614C86.8665 178.717 86.9225 178.847 86.9225 179.006C86.9225 179.211 86.8012 179.384 86.5585 179.524C86.1945 179.729 85.8352 179.883 85.4805 179.986C85.1259 180.089 84.6685 180.14 84.1085 180.14ZM85.9005 175.842C85.8725 175.385 85.7512 175.002 85.5365 174.694C85.3312 174.386 85.0745 174.162 84.7665 174.022C84.4585 173.873 84.1459 173.798 83.8285 173.798C83.5112 173.798 83.1985 173.873 82.8905 174.022C82.5825 174.162 82.3259 174.386 82.1205 174.694C81.9152 175.002 81.7985 175.385 81.7705 175.842H85.9005Z" fill="#444444"/>
</svg>
