<svg width="452" height="394" viewBox="0 0 452 394" fill="none" xmlns="http://www.w3.org/2000/svg">
<rect x="17" width="375" height="394" fill="white"/>
<rect width="452" height="394" fill="white"/>
<circle cx="54" cy="312" r="54" fill="#D6EFF8"/>
<circle cx="143" cy="63" r="54" fill="#D6EFF8"/>
<path d="M349 295C349 324.823 324.823 349 295 349C265.177 349 241 324.823 241 295C241 265.177 265.177 241 295 241C324.823 241 349 265.177 349 295Z" fill="#D6EFF8"/>
<path d="M372 126C372 172.392 334.392 210 288 210C241.608 210 204 172.392 204 126C204 79.6081 241.608 42 288 42C334.392 42 372 79.6081 372 126Z" fill="#B8E8F9"/>
<path d="M225 338C225 367.823 200.823 392 171 392C141.177 392 117 367.823 117 338C117 308.177 141.177 284 171 284C200.823 284 225 308.177 225 338Z" fill="#D6EFF8"/>
<path d="M243 230C243 259.823 218.823 284 189 284C159.177 284 135 259.823 135 230C135 200.177 159.177 176 189 176C218.823 176 243 200.177 243 230Z" fill="#D6EFF8"/>
<path d="M127 172C127 201.823 102.823 226 73 226C43.1766 226 19 201.823 19 172C19 142.177 43.1766 118 73 118C102.823 118 127 142.177 127 172Z" fill="#D6EFF8"/>
<circle cx="398" cy="219" r="54" fill="#D6EFF8"/>
<path d="M117.015 67.07C116.838 67.07 116.689 67.0093 116.567 66.888C116.446 66.7667 116.385 66.6173 116.385 66.44V57.354C116.385 57.1767 116.446 57.0273 116.567 56.906C116.689 56.7753 116.838 56.71 117.015 56.71C117.202 56.71 117.356 56.7707 117.477 56.892C117.599 57.0133 117.659 57.1673 117.659 57.354V66.44C117.659 66.6173 117.594 66.7667 117.463 66.888C117.342 67.0093 117.193 67.07 117.015 67.07ZM123.064 67.14C121.925 67.14 121.034 66.818 120.39 66.174C119.755 65.5207 119.438 64.606 119.438 63.43C119.438 62.7673 119.559 62.156 119.802 61.596C120.044 61.036 120.418 60.5833 120.922 60.238C121.426 59.8927 122.046 59.72 122.784 59.72C123.474 59.72 124.072 59.8833 124.576 60.21C125.08 60.5273 125.462 60.9567 125.724 61.498C125.985 62.03 126.116 62.6133 126.116 63.248C126.116 63.4253 126.055 63.5747 125.934 63.696C125.822 63.8173 125.668 63.878 125.472 63.878H120.726C120.8 64.5313 121.043 65.04 121.454 65.404C121.864 65.768 122.438 65.95 123.176 65.95C123.568 65.95 123.908 65.9127 124.198 65.838C124.496 65.7633 124.786 65.656 125.066 65.516C125.14 65.4787 125.224 65.46 125.318 65.46C125.467 65.46 125.598 65.5113 125.71 65.614C125.822 65.7167 125.878 65.8473 125.878 66.006C125.878 66.2113 125.756 66.384 125.514 66.524C125.15 66.7293 124.79 66.8833 124.436 66.986C124.081 67.0887 123.624 67.14 123.064 67.14ZM124.856 62.842C124.828 62.3847 124.706 62.002 124.492 61.694C124.286 61.386 124.03 61.162 123.722 61.022C123.414 60.8727 123.101 60.798 122.784 60.798C122.466 60.798 122.154 60.8727 121.846 61.022C121.538 61.162 121.281 61.386 121.076 61.694C120.87 62.002 120.754 62.3847 120.726 62.842H124.856ZM122.756 59.062C122.644 59.062 122.55 59.0293 122.476 58.964C122.41 58.8893 122.378 58.796 122.378 58.684C122.378 58.6 122.41 58.5113 122.476 58.418L123.19 57.158C123.283 56.9807 123.437 56.892 123.652 56.892C123.801 56.892 123.922 56.9387 124.016 57.032C124.118 57.1253 124.17 57.2513 124.17 57.41C124.17 57.5407 124.123 57.6573 124.03 57.76L123.064 58.908C122.98 59.0107 122.877 59.062 122.756 59.062ZM131.133 70.36C130.592 70.36 130.046 70.29 129.495 70.15C128.945 70.01 128.492 69.8373 128.137 69.632C127.969 69.5293 127.885 69.366 127.885 69.142C127.885 68.9927 127.937 68.8573 128.039 68.736C128.151 68.624 128.287 68.568 128.445 68.568C128.52 68.568 128.604 68.5867 128.697 68.624C129.407 68.9787 130.177 69.156 131.007 69.156C132.435 69.156 133.149 68.3953 133.149 66.874V65.936C132.487 66.6453 131.689 67 130.755 67C130.205 67 129.668 66.8647 129.145 66.594C128.632 66.314 128.207 65.9033 127.871 65.362C127.535 64.8113 127.367 64.144 127.367 63.36C127.367 62.576 127.535 61.9133 127.871 61.372C128.207 60.8213 128.632 60.4107 129.145 60.14C129.668 59.86 130.205 59.72 130.755 59.72C131.689 59.72 132.487 60.0747 133.149 60.784V60.434C133.149 60.2567 133.21 60.1073 133.331 59.986C133.453 59.8553 133.602 59.79 133.779 59.79C133.957 59.79 134.106 59.8553 134.227 59.986C134.358 60.1073 134.423 60.2567 134.423 60.434V66.692C134.423 67.868 134.139 68.7733 133.569 69.408C133 70.0427 132.188 70.36 131.133 70.36ZM131.021 65.838C131.46 65.838 131.847 65.7447 132.183 65.558C132.519 65.3713 132.841 65.1193 133.149 64.802V61.918C132.841 61.6007 132.519 61.3487 132.183 61.162C131.847 60.9753 131.46 60.882 131.021 60.882C130.321 60.882 129.747 61.0967 129.299 61.526C128.861 61.946 128.641 62.5573 128.641 63.36C128.641 64.1627 128.861 64.7787 129.299 65.208C129.747 65.628 130.321 65.838 131.021 65.838ZM139.825 67.14C138.687 67.14 137.795 66.818 137.151 66.174C136.517 65.5207 136.199 64.606 136.199 63.43C136.199 62.7673 136.321 62.156 136.563 61.596C136.806 61.036 137.179 60.5833 137.683 60.238C138.187 59.8927 138.808 59.72 139.545 59.72C140.236 59.72 140.833 59.8833 141.337 60.21C141.841 60.5273 142.224 60.9567 142.485 61.498C142.747 62.03 142.877 62.6133 142.877 63.248C142.877 63.4253 142.817 63.5747 142.695 63.696C142.583 63.8173 142.429 63.878 142.233 63.878H137.487C137.562 64.5313 137.805 65.04 138.215 65.404C138.626 65.768 139.2 65.95 139.937 65.95C140.329 65.95 140.67 65.9127 140.959 65.838C141.258 65.7633 141.547 65.656 141.827 65.516C141.902 65.4787 141.986 65.46 142.079 65.46C142.229 65.46 142.359 65.5113 142.471 65.614C142.583 65.7167 142.639 65.8473 142.639 66.006C142.639 66.2113 142.518 66.384 142.275 66.524C141.911 66.7293 141.552 66.8833 141.197 66.986C140.843 67.0887 140.385 67.14 139.825 67.14ZM141.617 62.842C141.589 62.3847 141.468 62.002 141.253 61.694C141.048 61.386 140.791 61.162 140.483 61.022C140.175 60.8727 139.863 60.798 139.545 60.798C139.228 60.798 138.915 60.8727 138.607 61.022C138.299 61.162 138.043 61.386 137.837 61.694C137.632 62.002 137.515 62.3847 137.487 62.842H141.617ZM145.193 67.07C145.016 67.07 144.866 67.0093 144.745 66.888C144.624 66.7667 144.563 66.6173 144.563 66.44V60.434C144.563 60.2567 144.624 60.1073 144.745 59.986C144.866 59.8553 145.016 59.79 145.193 59.79C145.37 59.79 145.52 59.8553 145.641 59.986C145.772 60.1073 145.837 60.2567 145.837 60.434V61.036C146.49 60.1587 147.223 59.72 148.035 59.72H148.105C148.282 59.72 148.427 59.7807 148.539 59.902C148.66 60.0233 148.721 60.1727 148.721 60.35C148.721 60.5273 148.66 60.672 148.539 60.784C148.418 60.896 148.264 60.952 148.077 60.952H148.007C147.559 60.952 147.148 61.064 146.775 61.288C146.402 61.5027 146.089 61.8013 145.837 62.184V66.44C145.837 66.6173 145.772 66.7667 145.641 66.888C145.52 67.0093 145.37 67.07 145.193 67.07ZM152.909 67.14C151.771 67.14 150.879 66.818 150.235 66.174C149.601 65.5207 149.283 64.606 149.283 63.43C149.283 62.7673 149.405 62.156 149.647 61.596C149.89 61.036 150.263 60.5833 150.767 60.238C151.271 59.8927 151.892 59.72 152.629 59.72C153.32 59.72 153.917 59.8833 154.421 60.21C154.925 60.5273 155.308 60.9567 155.569 61.498C155.831 62.03 155.961 62.6133 155.961 63.248C155.961 63.4253 155.901 63.5747 155.779 63.696C155.667 63.8173 155.513 63.878 155.317 63.878H150.571C150.646 64.5313 150.889 65.04 151.299 65.404C151.71 65.768 152.284 65.95 153.021 65.95C153.413 65.95 153.754 65.9127 154.043 65.838C154.342 65.7633 154.631 65.656 154.911 65.516C154.986 65.4787 155.07 65.46 155.163 65.46C155.313 65.46 155.443 65.5113 155.555 65.614C155.667 65.7167 155.723 65.8473 155.723 66.006C155.723 66.2113 155.602 66.384 155.359 66.524C154.995 66.7293 154.636 66.8833 154.281 66.986C153.927 67.0887 153.469 67.14 152.909 67.14ZM154.701 62.842C154.673 62.3847 154.552 62.002 154.337 61.694C154.132 61.386 153.875 61.162 153.567 61.022C153.259 60.8727 152.947 60.798 152.629 60.798C152.312 60.798 151.999 60.8727 151.691 61.022C151.383 61.162 151.127 61.386 150.921 61.694C150.716 62.002 150.599 62.3847 150.571 62.842H154.701ZM160.111 67.14C158.748 67.14 158.067 66.524 158.067 65.292V60.952H157.073C156.998 60.952 156.933 60.9287 156.877 60.882C156.83 60.826 156.807 60.7607 156.807 60.686C156.807 60.5927 156.849 60.5133 156.933 60.448L158.837 58.586C158.921 58.502 159 58.46 159.075 58.46C159.15 58.46 159.21 58.488 159.257 58.544C159.313 58.6 159.341 58.6653 159.341 58.74V59.86H160.923C161.082 59.86 161.212 59.9113 161.315 60.014C161.418 60.1167 161.469 60.2473 161.469 60.406C161.469 60.5553 161.418 60.686 161.315 60.798C161.212 60.9007 161.082 60.952 160.923 60.952H159.341V65.18C159.341 65.544 159.425 65.7773 159.593 65.88C159.77 65.9733 159.99 66.02 160.251 66.02C160.438 66.02 160.624 65.992 160.811 65.936C160.848 65.9267 160.886 65.9173 160.923 65.908C160.97 65.8987 161.026 65.894 161.091 65.894C161.222 65.894 161.338 65.9453 161.441 66.048C161.544 66.1413 161.595 66.258 161.595 66.398C161.595 66.6127 161.488 66.776 161.273 66.888C160.909 67.056 160.522 67.14 160.111 67.14ZM166.089 67.14C164.95 67.14 164.059 66.818 163.415 66.174C162.78 65.5207 162.463 64.606 162.463 63.43C162.463 62.7673 162.584 62.156 162.827 61.596C163.07 61.036 163.443 60.5833 163.947 60.238C164.451 59.8927 165.072 59.72 165.809 59.72C166.5 59.72 167.097 59.8833 167.601 60.21C168.105 60.5273 168.488 60.9567 168.749 61.498C169.01 62.03 169.141 62.6133 169.141 63.248C169.141 63.4253 169.08 63.5747 168.959 63.696C168.847 63.8173 168.693 63.878 168.497 63.878H163.751C163.826 64.5313 164.068 65.04 164.479 65.404C164.89 65.768 165.464 65.95 166.201 65.95C166.593 65.95 166.934 65.9127 167.223 65.838C167.522 65.7633 167.811 65.656 168.091 65.516C168.166 65.4787 168.25 65.46 168.343 65.46C168.492 65.46 168.623 65.5113 168.735 65.614C168.847 65.7167 168.903 65.8473 168.903 66.006C168.903 66.2113 168.782 66.384 168.539 66.524C168.175 66.7293 167.816 66.8833 167.461 66.986C167.106 67.0887 166.649 67.14 166.089 67.14ZM167.881 62.842C167.853 62.3847 167.732 62.002 167.517 61.694C167.312 61.386 167.055 61.162 166.747 61.022C166.439 60.8727 166.126 60.798 165.809 60.798C165.492 60.798 165.179 60.8727 164.871 61.022C164.563 61.162 164.306 61.386 164.101 61.694C163.896 62.002 163.779 62.3847 163.751 62.842H167.881ZM165.781 59.062C165.669 59.062 165.576 59.0293 165.501 58.964C165.436 58.8893 165.403 58.796 165.403 58.684C165.403 58.6 165.436 58.5113 165.501 58.418L166.215 57.158C166.308 56.9807 166.462 56.892 166.677 56.892C166.826 56.892 166.948 56.9387 167.041 57.032C167.144 57.1253 167.195 57.2513 167.195 57.41C167.195 57.5407 167.148 57.6573 167.055 57.76L166.089 58.908C166.005 59.0107 165.902 59.062 165.781 59.062Z" fill="#444444"/>
<path d="M260.765 130.07C260.588 130.07 260.439 130.009 260.317 129.888C260.196 129.767 260.135 129.617 260.135 129.44V123.434C260.135 123.257 260.196 123.107 260.317 122.986C260.439 122.855 260.588 122.79 260.765 122.79C260.943 122.79 261.092 122.855 261.213 122.986C261.344 123.107 261.409 123.257 261.409 123.434V124.036C262.063 123.159 262.795 122.72 263.607 122.72H263.677C263.855 122.72 263.999 122.781 264.111 122.902C264.233 123.023 264.293 123.173 264.293 123.35C264.293 123.527 264.233 123.672 264.111 123.784C263.99 123.896 263.836 123.952 263.649 123.952H263.579C263.131 123.952 262.721 124.064 262.347 124.288C261.974 124.503 261.661 124.801 261.409 125.184V129.44C261.409 129.617 261.344 129.767 261.213 129.888C261.092 130.009 260.943 130.07 260.765 130.07ZM268.482 130.14C267.343 130.14 266.452 129.818 265.808 129.174C265.173 128.521 264.856 127.606 264.856 126.43C264.856 125.767 264.977 125.156 265.22 124.596C265.462 124.036 265.836 123.583 266.34 123.238C266.844 122.893 267.464 122.72 268.202 122.72C268.892 122.72 269.49 122.883 269.994 123.21C270.498 123.527 270.88 123.957 271.142 124.498C271.403 125.03 271.534 125.613 271.534 126.248C271.534 126.425 271.473 126.575 271.352 126.696C271.24 126.817 271.086 126.878 270.89 126.878H266.144C266.218 127.531 266.461 128.04 266.872 128.404C267.282 128.768 267.856 128.95 268.594 128.95C268.986 128.95 269.326 128.913 269.616 128.838C269.914 128.763 270.204 128.656 270.484 128.516C270.558 128.479 270.642 128.46 270.736 128.46C270.885 128.46 271.016 128.511 271.128 128.614C271.24 128.717 271.296 128.847 271.296 129.006C271.296 129.211 271.174 129.384 270.932 129.524C270.568 129.729 270.208 129.883 269.854 129.986C269.499 130.089 269.042 130.14 268.482 130.14ZM270.274 125.842C270.246 125.385 270.124 125.002 269.91 124.694C269.704 124.386 269.448 124.162 269.14 124.022C268.832 123.873 268.519 123.798 268.202 123.798C267.884 123.798 267.572 123.873 267.264 124.022C266.956 124.162 266.699 124.386 266.494 124.694C266.288 125.002 266.172 125.385 266.144 125.842H270.274ZM268.174 122.062C268.062 122.062 267.968 122.029 267.894 121.964C267.828 121.889 267.796 121.796 267.796 121.684C267.796 121.6 267.828 121.511 267.894 121.418L268.608 120.158C268.701 119.981 268.855 119.892 269.07 119.892C269.219 119.892 269.34 119.939 269.434 120.032C269.536 120.125 269.588 120.251 269.588 120.41C269.588 120.541 269.541 120.657 269.448 120.76L268.482 121.908C268.398 122.011 268.295 122.062 268.174 122.062ZM274.381 130.07C274.204 130.07 274.055 130.009 273.933 129.888C273.812 129.767 273.751 129.617 273.751 129.44V123.952H272.925C272.776 123.952 272.645 123.901 272.533 123.798C272.431 123.686 272.379 123.555 272.379 123.406C272.379 123.247 272.431 123.117 272.533 123.014C272.645 122.911 272.776 122.86 272.925 122.86H273.751V122.048C273.751 121.488 273.849 121.031 274.045 120.676C274.251 120.312 274.512 120.051 274.829 119.892C275.156 119.724 275.497 119.64 275.851 119.64C276.29 119.64 276.696 119.733 277.069 119.92C277.163 119.967 277.237 120.037 277.293 120.13C277.359 120.214 277.391 120.307 277.391 120.41C277.391 120.55 277.34 120.676 277.237 120.788C277.135 120.891 277.013 120.942 276.873 120.942C276.771 120.942 276.663 120.928 276.551 120.9C276.327 120.872 276.201 120.858 276.173 120.858C275.791 120.858 275.501 120.947 275.305 121.124C275.119 121.301 275.025 121.623 275.025 122.09V122.86H276.775C276.934 122.86 277.065 122.911 277.167 123.014C277.27 123.117 277.321 123.247 277.321 123.406C277.321 123.555 277.27 123.686 277.167 123.798C277.065 123.901 276.934 123.952 276.775 123.952H275.025V129.44C275.025 129.617 274.96 129.767 274.829 129.888C274.708 130.009 274.559 130.07 274.381 130.07ZM279.267 130.07C279.09 130.07 278.941 130.009 278.819 129.888C278.698 129.767 278.637 129.617 278.637 129.44V120.354C278.637 120.177 278.698 120.027 278.819 119.906C278.941 119.775 279.09 119.71 279.267 119.71C279.454 119.71 279.608 119.771 279.729 119.892C279.851 120.013 279.911 120.167 279.911 120.354V129.44C279.911 129.617 279.846 129.767 279.715 129.888C279.594 130.009 279.445 130.07 279.267 130.07ZM285.312 130.14C284.173 130.14 283.282 129.818 282.638 129.174C282.003 128.521 281.686 127.606 281.686 126.43C281.686 125.767 281.807 125.156 282.05 124.596C282.292 124.036 282.666 123.583 283.17 123.238C283.674 122.893 284.294 122.72 285.032 122.72C285.722 122.72 286.32 122.883 286.824 123.21C287.328 123.527 287.71 123.957 287.972 124.498C288.233 125.03 288.364 125.613 288.364 126.248C288.364 126.425 288.303 126.575 288.182 126.696C288.07 126.817 287.916 126.878 287.72 126.878H282.974C283.048 127.531 283.291 128.04 283.702 128.404C284.112 128.768 284.686 128.95 285.424 128.95C285.816 128.95 286.156 128.913 286.446 128.838C286.744 128.763 287.034 128.656 287.314 128.516C287.388 128.479 287.472 128.46 287.566 128.46C287.715 128.46 287.846 128.511 287.958 128.614C288.07 128.717 288.126 128.847 288.126 129.006C288.126 129.211 288.004 129.384 287.762 129.524C287.398 129.729 287.038 129.883 286.684 129.986C286.329 130.089 285.872 130.14 285.312 130.14ZM287.104 125.842C287.076 125.385 286.954 125.002 286.74 124.694C286.534 124.386 286.278 124.162 285.97 124.022C285.662 123.873 285.349 123.798 285.032 123.798C284.714 123.798 284.402 123.873 284.094 124.022C283.786 124.162 283.529 124.386 283.324 124.694C283.118 125.002 283.002 125.385 282.974 125.842H287.104ZM290.177 130.07C289.991 130.07 289.841 130.014 289.729 129.902C289.627 129.781 289.575 129.622 289.575 129.426C289.575 129.286 289.622 129.155 289.715 129.034L291.885 126.472L289.715 123.826C289.613 123.695 289.561 123.56 289.561 123.42C289.561 123.233 289.622 123.084 289.743 122.972C289.865 122.851 290.014 122.79 290.191 122.79C290.415 122.79 290.583 122.869 290.695 123.028L292.655 125.45L294.601 123.028C294.713 122.869 294.877 122.79 295.091 122.79C295.278 122.79 295.432 122.851 295.553 122.972C295.675 123.084 295.735 123.224 295.735 123.392C295.735 123.532 295.689 123.663 295.595 123.784L293.383 126.388L295.567 129.02C295.67 129.132 295.721 129.267 295.721 129.426C295.721 129.603 295.665 129.757 295.553 129.888C295.441 130.009 295.283 130.07 295.077 130.07C294.872 130.07 294.709 129.986 294.587 129.818L292.599 127.438L290.723 129.79C290.583 129.977 290.401 130.07 290.177 130.07ZM298.144 121.404C297.948 121.404 297.78 121.334 297.64 121.194C297.5 121.054 297.43 120.886 297.43 120.69V120.634C297.43 120.438 297.5 120.27 297.64 120.13C297.78 119.99 297.948 119.92 298.144 119.92H298.228C298.424 119.92 298.592 119.99 298.732 120.13C298.872 120.27 298.942 120.438 298.942 120.634V120.69C298.942 120.886 298.872 121.054 298.732 121.194C298.592 121.334 298.424 121.404 298.228 121.404H298.144ZM298.172 130.07C297.994 130.07 297.845 130.009 297.724 129.888C297.602 129.767 297.542 129.617 297.542 129.44V123.434C297.542 123.257 297.602 123.107 297.724 122.986C297.845 122.855 297.994 122.79 298.172 122.79C298.358 122.79 298.512 122.851 298.634 122.972C298.755 123.093 298.816 123.247 298.816 123.434V129.44C298.816 129.617 298.75 129.767 298.62 129.888C298.498 130.009 298.349 130.07 298.172 130.07ZM304.178 130.14C303.459 130.14 302.829 129.986 302.288 129.678C301.747 129.37 301.327 128.936 301.028 128.376C300.739 127.807 300.594 127.158 300.594 126.43C300.594 125.702 300.739 125.058 301.028 124.498C301.327 123.929 301.747 123.49 302.288 123.182C302.829 122.874 303.459 122.72 304.178 122.72C304.887 122.72 305.513 122.874 306.054 123.182C306.595 123.49 307.015 123.929 307.314 124.498C307.613 125.058 307.762 125.702 307.762 126.43C307.762 127.158 307.613 127.807 307.314 128.376C307.015 128.936 306.595 129.37 306.054 129.678C305.513 129.986 304.887 130.14 304.178 130.14ZM304.178 128.978C304.561 128.978 304.925 128.889 305.27 128.712C305.625 128.535 305.914 128.255 306.138 127.872C306.371 127.489 306.488 127.004 306.488 126.416C306.488 125.837 306.371 125.357 306.138 124.974C305.914 124.591 305.625 124.316 305.27 124.148C304.925 123.971 304.561 123.882 304.178 123.882C303.786 123.882 303.413 123.971 303.058 124.148C302.713 124.316 302.428 124.591 302.204 124.974C301.98 125.357 301.868 125.837 301.868 126.416C301.868 127.004 301.98 127.489 302.204 127.872C302.428 128.255 302.713 128.535 303.058 128.712C303.413 128.889 303.786 128.978 304.178 128.978ZM310.175 130.07C309.998 130.07 309.849 130.009 309.727 129.888C309.606 129.767 309.545 129.617 309.545 129.44V123.434C309.545 123.257 309.606 123.107 309.727 122.986C309.849 122.855 309.998 122.79 310.175 122.79C310.353 122.79 310.502 122.855 310.623 122.986C310.754 123.107 310.819 123.257 310.819 123.434V124.008C311.174 123.616 311.557 123.303 311.967 123.07C312.378 122.837 312.863 122.72 313.423 122.72C313.937 122.72 314.38 122.841 314.753 123.084C315.136 123.327 315.425 123.658 315.621 124.078C315.827 124.498 315.929 124.96 315.929 125.464V129.44C315.929 129.617 315.864 129.767 315.733 129.888C315.612 130.009 315.463 130.07 315.285 130.07C315.108 130.07 314.959 130.009 314.837 129.888C314.716 129.767 314.655 129.617 314.655 129.44V125.604C314.655 124.465 314.142 123.896 313.115 123.896C312.649 123.896 312.229 124.017 311.855 124.26C311.491 124.503 311.146 124.829 310.819 125.24V129.44C310.819 129.617 310.754 129.767 310.623 129.888C310.502 130.009 310.353 130.07 310.175 130.07Z" fill="#444444"/>
<path d="M161.729 225.404C161.533 225.404 161.365 225.334 161.225 225.194C161.085 225.054 161.015 224.886 161.015 224.69V224.634C161.015 224.438 161.085 224.27 161.225 224.13C161.365 223.99 161.533 223.92 161.729 223.92H161.813C162.009 223.92 162.177 223.99 162.317 224.13C162.457 224.27 162.527 224.438 162.527 224.634V224.69C162.527 224.886 162.457 225.054 162.317 225.194C162.177 225.334 162.009 225.404 161.813 225.404H161.729ZM161.757 234.07C161.58 234.07 161.431 234.009 161.309 233.888C161.188 233.767 161.127 233.617 161.127 233.44V227.434C161.127 227.257 161.188 227.107 161.309 226.986C161.431 226.855 161.58 226.79 161.757 226.79C161.944 226.79 162.098 226.851 162.219 226.972C162.341 227.093 162.401 227.247 162.401 227.434V233.44C162.401 233.617 162.336 233.767 162.205 233.888C162.084 234.009 161.935 234.07 161.757 234.07ZM165.244 234.07C165.066 234.07 164.917 234.009 164.796 233.888C164.674 233.767 164.614 233.617 164.614 233.44V227.434C164.614 227.257 164.674 227.107 164.796 226.986C164.917 226.855 165.066 226.79 165.244 226.79C165.421 226.79 165.57 226.855 165.692 226.986C165.822 227.107 165.888 227.257 165.888 227.434V228.008C166.242 227.616 166.625 227.303 167.036 227.07C167.446 226.837 167.932 226.72 168.492 226.72C169.005 226.72 169.448 226.841 169.822 227.084C170.204 227.327 170.494 227.658 170.69 228.078C170.895 228.498 170.998 228.96 170.998 229.464V233.44C170.998 233.617 170.932 233.767 170.802 233.888C170.68 234.009 170.531 234.07 170.354 234.07C170.176 234.07 170.027 234.009 169.906 233.888C169.784 233.767 169.724 233.617 169.724 233.44V229.604C169.724 228.465 169.21 227.896 168.184 227.896C167.717 227.896 167.297 228.017 166.924 228.26C166.56 228.503 166.214 228.829 165.888 229.24V233.44C165.888 233.617 165.822 233.767 165.692 233.888C165.57 234.009 165.421 234.07 165.244 234.07ZM175.445 234.14C174.082 234.14 173.401 233.524 173.401 232.292V227.952H172.407C172.332 227.952 172.267 227.929 172.211 227.882C172.164 227.826 172.141 227.761 172.141 227.686C172.141 227.593 172.183 227.513 172.267 227.448L174.171 225.586C174.255 225.502 174.334 225.46 174.409 225.46C174.484 225.46 174.544 225.488 174.591 225.544C174.647 225.6 174.675 225.665 174.675 225.74V226.86H176.257C176.416 226.86 176.546 226.911 176.649 227.014C176.752 227.117 176.803 227.247 176.803 227.406C176.803 227.555 176.752 227.686 176.649 227.798C176.546 227.901 176.416 227.952 176.257 227.952H174.675V232.18C174.675 232.544 174.759 232.777 174.927 232.88C175.104 232.973 175.324 233.02 175.585 233.02C175.772 233.02 175.958 232.992 176.145 232.936C176.182 232.927 176.22 232.917 176.257 232.908C176.304 232.899 176.36 232.894 176.425 232.894C176.556 232.894 176.672 232.945 176.775 233.048C176.878 233.141 176.929 233.258 176.929 233.398C176.929 233.613 176.822 233.776 176.607 233.888C176.243 234.056 175.856 234.14 175.445 234.14ZM181.423 234.14C180.284 234.14 179.393 233.818 178.749 233.174C178.114 232.521 177.797 231.606 177.797 230.43C177.797 229.767 177.918 229.156 178.161 228.596C178.404 228.036 178.777 227.583 179.281 227.238C179.785 226.893 180.406 226.72 181.143 226.72C181.834 226.72 182.431 226.883 182.935 227.21C183.439 227.527 183.822 227.957 184.083 228.498C184.344 229.03 184.475 229.613 184.475 230.248C184.475 230.425 184.414 230.575 184.293 230.696C184.181 230.817 184.027 230.878 183.831 230.878H179.085C179.16 231.531 179.402 232.04 179.813 232.404C180.224 232.768 180.798 232.95 181.535 232.95C181.927 232.95 182.268 232.913 182.557 232.838C182.856 232.763 183.145 232.656 183.425 232.516C183.5 232.479 183.584 232.46 183.677 232.46C183.826 232.46 183.957 232.511 184.069 232.614C184.181 232.717 184.237 232.847 184.237 233.006C184.237 233.211 184.116 233.384 183.873 233.524C183.509 233.729 183.15 233.883 182.795 233.986C182.44 234.089 181.983 234.14 181.423 234.14ZM183.215 229.842C183.187 229.385 183.066 229.002 182.851 228.694C182.646 228.386 182.389 228.162 182.081 228.022C181.773 227.873 181.46 227.798 181.143 227.798C180.826 227.798 180.513 227.873 180.205 228.022C179.897 228.162 179.64 228.386 179.435 228.694C179.23 229.002 179.113 229.385 179.085 229.842H183.215ZM186.791 234.07C186.613 234.07 186.464 234.009 186.343 233.888C186.221 233.767 186.161 233.617 186.161 233.44V227.434C186.161 227.257 186.221 227.107 186.343 226.986C186.464 226.855 186.613 226.79 186.791 226.79C186.968 226.79 187.117 226.855 187.239 226.986C187.369 227.107 187.435 227.257 187.435 227.434V228.008C187.789 227.616 188.172 227.303 188.583 227.07C188.993 226.837 189.479 226.72 190.039 226.72C190.552 226.72 190.995 226.841 191.369 227.084C191.751 227.327 192.041 227.658 192.237 228.078C192.442 228.498 192.545 228.96 192.545 229.464V233.44C192.545 233.617 192.479 233.767 192.349 233.888C192.227 234.009 192.078 234.07 191.901 234.07C191.723 234.07 191.574 234.009 191.453 233.888C191.331 233.767 191.271 233.617 191.271 233.44V229.604C191.271 228.465 190.757 227.896 189.731 227.896C189.264 227.896 188.844 228.017 188.471 228.26C188.107 228.503 187.761 228.829 187.435 229.24V233.44C187.435 233.617 187.369 233.767 187.239 233.888C187.117 234.009 186.968 234.07 186.791 234.07ZM197.002 234.14C196.069 234.14 195.219 233.93 194.454 233.51C194.295 233.398 194.216 233.244 194.216 233.048C194.216 232.899 194.267 232.768 194.37 232.656C194.473 232.544 194.603 232.488 194.762 232.488C194.846 232.488 194.93 232.507 195.014 232.544C195.313 232.675 195.611 232.777 195.91 232.852C196.209 232.927 196.545 232.964 196.918 232.964C197.954 232.964 198.472 232.633 198.472 231.97C198.472 231.755 198.351 231.592 198.108 231.48C197.875 231.368 197.487 231.242 196.946 231.102C196.395 230.971 195.938 230.836 195.574 230.696C195.219 230.556 194.911 230.346 194.65 230.066C194.398 229.777 194.272 229.399 194.272 228.932C194.272 228.279 194.505 227.747 194.972 227.336C195.448 226.925 196.125 226.72 197.002 226.72C197.721 226.72 198.397 226.837 199.032 227.07C199.163 227.107 199.261 227.177 199.326 227.28C199.401 227.383 199.438 227.49 199.438 227.602C199.438 227.751 199.382 227.882 199.27 227.994C199.167 228.106 199.037 228.162 198.878 228.162C198.831 228.162 198.771 228.153 198.696 228.134C198.155 227.966 197.623 227.882 197.1 227.882C196.596 227.882 196.199 227.975 195.91 228.162C195.63 228.339 195.49 228.573 195.49 228.862C195.49 229.142 195.621 229.347 195.882 229.478C196.143 229.609 196.549 229.735 197.1 229.856C197.651 229.996 198.099 230.136 198.444 230.276C198.789 230.407 199.083 230.617 199.326 230.906C199.578 231.195 199.704 231.583 199.704 232.068C199.704 232.665 199.466 233.16 198.99 233.552C198.523 233.944 197.861 234.14 197.002 234.14ZM202.021 225.404C201.825 225.404 201.657 225.334 201.517 225.194C201.377 225.054 201.307 224.886 201.307 224.69V224.634C201.307 224.438 201.377 224.27 201.517 224.13C201.657 223.99 201.825 223.92 202.021 223.92H202.105C202.301 223.92 202.469 223.99 202.609 224.13C202.749 224.27 202.819 224.438 202.819 224.634V224.69C202.819 224.886 202.749 225.054 202.609 225.194C202.469 225.334 202.301 225.404 202.105 225.404H202.021ZM202.049 234.07C201.871 234.07 201.722 234.009 201.601 233.888C201.479 233.767 201.419 233.617 201.419 233.44V227.434C201.419 227.257 201.479 227.107 201.601 226.986C201.722 226.855 201.871 226.79 202.049 226.79C202.235 226.79 202.389 226.851 202.511 226.972C202.632 227.093 202.693 227.247 202.693 227.434V233.44C202.693 233.617 202.627 233.767 202.497 233.888C202.375 234.009 202.226 234.07 202.049 234.07ZM207.369 234.14C206.006 234.14 205.325 233.524 205.325 232.292V227.952H204.331C204.256 227.952 204.191 227.929 204.135 227.882C204.088 227.826 204.065 227.761 204.065 227.686C204.065 227.593 204.107 227.513 204.191 227.448L206.095 225.586C206.179 225.502 206.258 225.46 206.333 225.46C206.407 225.46 206.468 225.488 206.515 225.544C206.571 225.6 206.599 225.665 206.599 225.74V226.86H208.181C208.339 226.86 208.47 226.911 208.573 227.014C208.675 227.117 208.727 227.247 208.727 227.406C208.727 227.555 208.675 227.686 208.573 227.798C208.47 227.901 208.339 227.952 208.181 227.952H206.599V232.18C206.599 232.544 206.683 232.777 206.851 232.88C207.028 232.973 207.247 233.02 207.509 233.02C207.695 233.02 207.882 232.992 208.069 232.936C208.106 232.927 208.143 232.917 208.181 232.908C208.227 232.899 208.283 232.894 208.349 232.894C208.479 232.894 208.596 232.945 208.699 233.048C208.801 233.141 208.853 233.258 208.853 233.398C208.853 233.613 208.745 233.776 208.531 233.888C208.167 234.056 207.779 234.14 207.369 234.14ZM213.347 234.14C212.208 234.14 211.317 233.818 210.673 233.174C210.038 232.521 209.721 231.606 209.721 230.43C209.721 229.767 209.842 229.156 210.085 228.596C210.327 228.036 210.701 227.583 211.205 227.238C211.709 226.893 212.329 226.72 213.067 226.72C213.757 226.72 214.355 226.883 214.859 227.21C215.363 227.527 215.745 227.957 216.007 228.498C216.268 229.03 216.399 229.613 216.399 230.248C216.399 230.425 216.338 230.575 216.217 230.696C216.105 230.817 215.951 230.878 215.755 230.878H211.009C211.083 231.531 211.326 232.04 211.737 232.404C212.147 232.768 212.721 232.95 213.459 232.95C213.851 232.95 214.191 232.913 214.481 232.838C214.779 232.763 215.069 232.656 215.349 232.516C215.423 232.479 215.507 232.46 215.601 232.46C215.75 232.46 215.881 232.511 215.993 232.614C216.105 232.717 216.161 232.847 216.161 233.006C216.161 233.211 216.039 233.384 215.797 233.524C215.433 233.729 215.073 233.883 214.719 233.986C214.364 234.089 213.907 234.14 213.347 234.14ZM215.139 229.842C215.111 229.385 214.989 229.002 214.775 228.694C214.569 228.386 214.313 228.162 214.005 228.022C213.697 227.873 213.384 227.798 213.067 227.798C212.749 227.798 212.437 227.873 212.129 228.022C211.821 228.162 211.564 228.386 211.359 228.694C211.153 229.002 211.037 229.385 211.009 229.842H215.139ZM213.039 226.062C212.927 226.062 212.833 226.029 212.759 225.964C212.693 225.889 212.661 225.796 212.661 225.684C212.661 225.6 212.693 225.511 212.759 225.418L213.473 224.158C213.566 223.981 213.72 223.892 213.935 223.892C214.084 223.892 214.205 223.939 214.299 224.032C214.401 224.125 214.453 224.251 214.453 224.41C214.453 224.541 214.406 224.657 214.313 224.76L213.347 225.908C213.263 226.011 213.16 226.062 213.039 226.062Z" fill="#444444"/>
<path d="M250.984 299.14C250.573 299.14 250.19 299.056 249.836 298.888C249.49 298.72 249.215 298.477 249.01 298.16C248.804 297.833 248.702 297.46 248.702 297.04C248.702 296.349 248.972 295.799 249.514 295.388C250.064 294.977 250.867 294.772 251.922 294.772H253.616V294.66C253.616 294.044 253.462 293.601 253.154 293.33C252.855 293.059 252.384 292.924 251.74 292.924C251.385 292.924 251.068 292.952 250.788 293.008C250.517 293.064 250.214 293.148 249.878 293.26C249.803 293.279 249.742 293.288 249.696 293.288C249.556 293.288 249.434 293.237 249.332 293.134C249.229 293.031 249.178 292.905 249.178 292.756C249.178 292.504 249.299 292.327 249.542 292.224C250.335 291.888 251.142 291.72 251.964 291.72C252.608 291.72 253.149 291.851 253.588 292.112C254.036 292.373 254.362 292.714 254.568 293.134C254.782 293.545 254.89 293.993 254.89 294.478V298.44C254.89 298.617 254.824 298.767 254.694 298.888C254.572 299.009 254.423 299.07 254.246 299.07C254.068 299.07 253.919 299.009 253.798 298.888C253.676 298.767 253.616 298.617 253.616 298.44V298.076C252.925 298.785 252.048 299.14 250.984 299.14ZM251.46 298.02C251.87 298.02 252.267 297.922 252.65 297.726C253.032 297.521 253.354 297.269 253.616 296.97V295.794H252.09C250.68 295.794 249.976 296.163 249.976 296.9C249.976 297.236 250.088 297.507 250.312 297.712C250.545 297.917 250.928 298.02 251.46 298.02ZM257.655 302.29C257.478 302.29 257.328 302.225 257.207 302.094C257.086 301.973 257.025 301.823 257.025 301.646V292.42C257.025 292.243 257.086 292.093 257.207 291.972C257.328 291.851 257.478 291.79 257.655 291.79C257.832 291.79 257.982 291.851 258.103 291.972C258.234 292.093 258.299 292.243 258.299 292.42V292.784C258.98 292.075 259.778 291.72 260.693 291.72C261.272 291.72 261.818 291.869 262.331 292.168C262.854 292.457 263.274 292.887 263.591 293.456C263.918 294.016 264.081 294.674 264.081 295.43C264.081 296.186 263.918 296.849 263.591 297.418C263.274 297.978 262.854 298.407 262.331 298.706C261.818 298.995 261.272 299.14 260.693 299.14C259.778 299.14 258.98 298.785 258.299 298.076V301.646C258.299 301.833 258.238 301.987 258.117 302.108C257.996 302.229 257.842 302.29 257.655 302.29ZM260.511 297.95C261.202 297.95 261.757 297.731 262.177 297.292C262.597 296.853 262.807 296.233 262.807 295.43C262.807 294.627 262.597 294.007 262.177 293.568C261.757 293.129 261.202 292.91 260.511 292.91C260.082 292.91 259.676 293.008 259.293 293.204C258.92 293.391 258.588 293.643 258.299 293.96V296.9C258.588 297.217 258.92 297.474 259.293 297.67C259.676 297.857 260.082 297.95 260.511 297.95ZM266.487 302.29C266.31 302.29 266.16 302.225 266.039 302.094C265.918 301.973 265.857 301.823 265.857 301.646V292.42C265.857 292.243 265.918 292.093 266.039 291.972C266.16 291.851 266.31 291.79 266.487 291.79C266.664 291.79 266.814 291.851 266.935 291.972C267.066 292.093 267.131 292.243 267.131 292.42V292.784C267.812 292.075 268.61 291.72 269.525 291.72C270.104 291.72 270.65 291.869 271.163 292.168C271.686 292.457 272.106 292.887 272.423 293.456C272.75 294.016 272.913 294.674 272.913 295.43C272.913 296.186 272.75 296.849 272.423 297.418C272.106 297.978 271.686 298.407 271.163 298.706C270.65 298.995 270.104 299.14 269.525 299.14C268.61 299.14 267.812 298.785 267.131 298.076V301.646C267.131 301.833 267.07 301.987 266.949 302.108C266.828 302.229 266.674 302.29 266.487 302.29ZM269.343 297.95C270.034 297.95 270.589 297.731 271.009 297.292C271.429 296.853 271.639 296.233 271.639 295.43C271.639 294.627 271.429 294.007 271.009 293.568C270.589 293.129 270.034 292.91 269.343 292.91C268.914 292.91 268.508 293.008 268.125 293.204C267.752 293.391 267.42 293.643 267.131 293.96V296.9C267.42 297.217 267.752 297.474 268.125 297.67C268.508 297.857 268.914 297.95 269.343 297.95ZM275.319 299.07C275.142 299.07 274.992 299.009 274.871 298.888C274.75 298.767 274.689 298.617 274.689 298.44V292.434C274.689 292.257 274.75 292.107 274.871 291.986C274.992 291.855 275.142 291.79 275.319 291.79C275.496 291.79 275.646 291.855 275.767 291.986C275.898 292.107 275.963 292.257 275.963 292.434V293.036C276.616 292.159 277.349 291.72 278.161 291.72H278.231C278.408 291.72 278.553 291.781 278.665 291.902C278.786 292.023 278.847 292.173 278.847 292.35C278.847 292.527 278.786 292.672 278.665 292.784C278.544 292.896 278.39 292.952 278.203 292.952H278.133C277.685 292.952 277.274 293.064 276.901 293.288C276.528 293.503 276.215 293.801 275.963 294.184V298.44C275.963 298.617 275.898 298.767 275.767 298.888C275.646 299.009 275.496 299.07 275.319 299.07ZM283.035 299.14C281.897 299.14 281.005 298.818 280.361 298.174C279.727 297.521 279.409 296.606 279.409 295.43C279.409 294.767 279.531 294.156 279.773 293.596C280.016 293.036 280.389 292.583 280.893 292.238C281.397 291.893 282.018 291.72 282.755 291.72C283.446 291.72 284.043 291.883 284.547 292.21C285.051 292.527 285.434 292.957 285.695 293.498C285.957 294.03 286.087 294.613 286.087 295.248C286.087 295.425 286.027 295.575 285.905 295.696C285.793 295.817 285.639 295.878 285.443 295.878H280.697C280.772 296.531 281.015 297.04 281.425 297.404C281.836 297.768 282.41 297.95 283.147 297.95C283.539 297.95 283.88 297.913 284.169 297.838C284.468 297.763 284.757 297.656 285.037 297.516C285.112 297.479 285.196 297.46 285.289 297.46C285.439 297.46 285.569 297.511 285.681 297.614C285.793 297.717 285.849 297.847 285.849 298.006C285.849 298.211 285.728 298.384 285.485 298.524C285.121 298.729 284.762 298.883 284.407 298.986C284.053 299.089 283.595 299.14 283.035 299.14ZM284.827 294.842C284.799 294.385 284.678 294.002 284.463 293.694C284.258 293.386 284.001 293.162 283.693 293.022C283.385 292.873 283.073 292.798 282.755 292.798C282.438 292.798 282.125 292.873 281.817 293.022C281.509 293.162 281.253 293.386 281.047 293.694C280.842 294.002 280.725 294.385 280.697 294.842H284.827ZM288.403 299.07C288.226 299.07 288.076 299.009 287.955 298.888C287.834 298.767 287.773 298.617 287.773 298.44V292.434C287.773 292.257 287.834 292.107 287.955 291.986C288.076 291.855 288.226 291.79 288.403 291.79C288.58 291.79 288.73 291.855 288.851 291.986C288.982 292.107 289.047 292.257 289.047 292.434V293.008C289.402 292.616 289.784 292.303 290.195 292.07C290.606 291.837 291.091 291.72 291.651 291.72C292.164 291.72 292.608 291.841 292.981 292.084C293.364 292.327 293.653 292.658 293.849 293.078C294.054 293.498 294.157 293.96 294.157 294.464V298.44C294.157 298.617 294.092 298.767 293.961 298.888C293.84 299.009 293.69 299.07 293.513 299.07C293.336 299.07 293.186 299.009 293.065 298.888C292.944 298.767 292.883 298.617 292.883 298.44V294.604C292.883 293.465 292.37 292.896 291.343 292.896C290.876 292.896 290.456 293.017 290.083 293.26C289.719 293.503 289.374 293.829 289.047 294.24V298.44C289.047 298.617 288.982 298.767 288.851 298.888C288.73 299.009 288.58 299.07 288.403 299.07ZM298.604 299.14C297.242 299.14 296.56 298.524 296.56 297.292V292.952H295.566C295.492 292.952 295.426 292.929 295.37 292.882C295.324 292.826 295.3 292.761 295.3 292.686C295.3 292.593 295.342 292.513 295.426 292.448L297.33 290.586C297.414 290.502 297.494 290.46 297.568 290.46C297.643 290.46 297.704 290.488 297.75 290.544C297.806 290.6 297.834 290.665 297.834 290.74V291.86H299.416C299.575 291.86 299.706 291.911 299.808 292.014C299.911 292.117 299.962 292.247 299.962 292.406C299.962 292.555 299.911 292.686 299.808 292.798C299.706 292.901 299.575 292.952 299.416 292.952H297.834V297.18C297.834 297.544 297.918 297.777 298.086 297.88C298.264 297.973 298.483 298.02 298.744 298.02C298.931 298.02 299.118 297.992 299.304 297.936C299.342 297.927 299.379 297.917 299.416 297.908C299.463 297.899 299.519 297.894 299.584 297.894C299.715 297.894 299.832 297.945 299.934 298.048C300.037 298.141 300.088 298.258 300.088 298.398C300.088 298.613 299.981 298.776 299.766 298.888C299.402 299.056 299.015 299.14 298.604 299.14ZM302.088 290.404C301.892 290.404 301.724 290.334 301.584 290.194C301.444 290.054 301.374 289.886 301.374 289.69V289.634C301.374 289.438 301.444 289.27 301.584 289.13C301.724 288.99 301.892 288.92 302.088 288.92H302.172C302.368 288.92 302.536 288.99 302.676 289.13C302.816 289.27 302.886 289.438 302.886 289.634V289.69C302.886 289.886 302.816 290.054 302.676 290.194C302.536 290.334 302.368 290.404 302.172 290.404H302.088ZM302.116 299.07C301.939 299.07 301.789 299.009 301.668 298.888C301.547 298.767 301.486 298.617 301.486 298.44V292.434C301.486 292.257 301.547 292.107 301.668 291.986C301.789 291.855 301.939 291.79 302.116 291.79C302.303 291.79 302.457 291.851 302.578 291.972C302.699 292.093 302.76 292.247 302.76 292.434V298.44C302.76 298.617 302.695 298.767 302.564 298.888C302.443 299.009 302.293 299.07 302.116 299.07ZM307.282 299.14C306.349 299.14 305.5 298.93 304.734 298.51C304.576 298.398 304.496 298.244 304.496 298.048C304.496 297.899 304.548 297.768 304.65 297.656C304.753 297.544 304.884 297.488 305.042 297.488C305.126 297.488 305.21 297.507 305.294 297.544C305.593 297.675 305.892 297.777 306.19 297.852C306.489 297.927 306.825 297.964 307.198 297.964C308.234 297.964 308.752 297.633 308.752 296.97C308.752 296.755 308.631 296.592 308.388 296.48C308.155 296.368 307.768 296.242 307.226 296.102C306.676 295.971 306.218 295.836 305.854 295.696C305.5 295.556 305.192 295.346 304.93 295.066C304.678 294.777 304.552 294.399 304.552 293.932C304.552 293.279 304.786 292.747 305.252 292.336C305.728 291.925 306.405 291.72 307.282 291.72C308.001 291.72 308.678 291.837 309.312 292.07C309.443 292.107 309.541 292.177 309.606 292.28C309.681 292.383 309.718 292.49 309.718 292.602C309.718 292.751 309.662 292.882 309.55 292.994C309.448 293.106 309.317 293.162 309.158 293.162C309.112 293.162 309.051 293.153 308.976 293.134C308.435 292.966 307.903 292.882 307.38 292.882C306.876 292.882 306.48 292.975 306.19 293.162C305.91 293.339 305.77 293.573 305.77 293.862C305.77 294.142 305.901 294.347 306.162 294.478C306.424 294.609 306.83 294.735 307.38 294.856C307.931 294.996 308.379 295.136 308.724 295.276C309.07 295.407 309.364 295.617 309.606 295.906C309.858 296.195 309.984 296.583 309.984 297.068C309.984 297.665 309.746 298.16 309.27 298.552C308.804 298.944 308.141 299.14 307.282 299.14ZM314.009 299.14C313.075 299.14 312.226 298.93 311.461 298.51C311.302 298.398 311.223 298.244 311.223 298.048C311.223 297.899 311.274 297.768 311.377 297.656C311.479 297.544 311.61 297.488 311.769 297.488C311.853 297.488 311.937 297.507 312.021 297.544C312.319 297.675 312.618 297.777 312.917 297.852C313.215 297.927 313.551 297.964 313.925 297.964C314.961 297.964 315.479 297.633 315.479 296.97C315.479 296.755 315.357 296.592 315.115 296.48C314.881 296.368 314.494 296.242 313.953 296.102C313.402 295.971 312.945 295.836 312.581 295.696C312.226 295.556 311.918 295.346 311.657 295.066C311.405 294.777 311.279 294.399 311.279 293.932C311.279 293.279 311.512 292.747 311.979 292.336C312.455 291.925 313.131 291.72 314.009 291.72C314.727 291.72 315.404 291.837 316.039 292.07C316.169 292.107 316.267 292.177 316.333 292.28C316.407 292.383 316.445 292.49 316.445 292.602C316.445 292.751 316.389 292.882 316.277 292.994C316.174 293.106 316.043 293.162 315.885 293.162C315.838 293.162 315.777 293.153 315.703 293.134C315.161 292.966 314.629 292.882 314.107 292.882C313.603 292.882 313.206 292.975 312.917 293.162C312.637 293.339 312.497 293.573 312.497 293.862C312.497 294.142 312.627 294.347 312.889 294.478C313.15 294.609 313.556 294.735 314.107 294.856C314.657 294.996 315.105 295.136 315.451 295.276C315.796 295.407 316.09 295.617 316.333 295.906C316.585 296.195 316.711 296.583 316.711 297.068C316.711 297.665 316.473 298.16 315.997 298.552C315.53 298.944 314.867 299.14 314.009 299.14ZM320.245 299.14C319.835 299.14 319.452 299.056 319.097 298.888C318.752 298.72 318.477 298.477 318.271 298.16C318.066 297.833 317.963 297.46 317.963 297.04C317.963 296.349 318.234 295.799 318.775 295.388C319.326 294.977 320.129 294.772 321.183 294.772H322.877V294.66C322.877 294.044 322.723 293.601 322.415 293.33C322.117 293.059 321.645 292.924 321.001 292.924C320.647 292.924 320.329 292.952 320.049 293.008C319.779 293.064 319.475 293.148 319.139 293.26C319.065 293.279 319.004 293.288 318.957 293.288C318.817 293.288 318.696 293.237 318.593 293.134C318.491 293.031 318.439 292.905 318.439 292.756C318.439 292.504 318.561 292.327 318.803 292.224C319.597 291.888 320.404 291.72 321.225 291.72C321.869 291.72 322.411 291.851 322.849 292.112C323.297 292.373 323.624 292.714 323.829 293.134C324.044 293.545 324.151 293.993 324.151 294.478V298.44C324.151 298.617 324.086 298.767 323.955 298.888C323.834 299.009 323.685 299.07 323.507 299.07C323.33 299.07 323.181 299.009 323.059 298.888C322.938 298.767 322.877 298.617 322.877 298.44V298.076C322.187 298.785 321.309 299.14 320.245 299.14ZM320.721 298.02C321.132 298.02 321.529 297.922 321.911 297.726C322.294 297.521 322.616 297.269 322.877 296.97V295.794H321.351C319.942 295.794 319.237 296.163 319.237 296.9C319.237 297.236 319.349 297.507 319.573 297.712C319.807 297.917 320.189 298.02 320.721 298.02ZM329.619 302.36C329.077 302.36 328.531 302.29 327.981 302.15C327.43 302.01 326.977 301.837 326.623 301.632C326.455 301.529 326.371 301.366 326.371 301.142C326.371 300.993 326.422 300.857 326.525 300.736C326.637 300.624 326.772 300.568 326.931 300.568C327.005 300.568 327.089 300.587 327.183 300.624C327.892 300.979 328.662 301.156 329.493 301.156C330.921 301.156 331.635 300.395 331.635 298.874V297.936C330.972 298.645 330.174 299 329.241 299C328.69 299 328.153 298.865 327.631 298.594C327.117 298.314 326.693 297.903 326.357 297.362C326.021 296.811 325.853 296.144 325.853 295.36C325.853 294.576 326.021 293.913 326.357 293.372C326.693 292.821 327.117 292.411 327.631 292.14C328.153 291.86 328.69 291.72 329.241 291.72C330.174 291.72 330.972 292.075 331.635 292.784V292.434C331.635 292.257 331.695 292.107 331.817 291.986C331.938 291.855 332.087 291.79 332.265 291.79C332.442 291.79 332.591 291.855 332.713 291.986C332.843 292.107 332.909 292.257 332.909 292.434V298.692C332.909 299.868 332.624 300.773 332.055 301.408C331.485 302.043 330.673 302.36 329.619 302.36ZM329.507 297.838C329.945 297.838 330.333 297.745 330.669 297.558C331.005 297.371 331.327 297.119 331.635 296.802V293.918C331.327 293.601 331.005 293.349 330.669 293.162C330.333 292.975 329.945 292.882 329.507 292.882C328.807 292.882 328.233 293.097 327.785 293.526C327.346 293.946 327.127 294.557 327.127 295.36C327.127 296.163 327.346 296.779 327.785 297.208C328.233 297.628 328.807 297.838 329.507 297.838ZM338.311 299.14C337.172 299.14 336.281 298.818 335.637 298.174C335.002 297.521 334.685 296.606 334.685 295.43C334.685 294.767 334.806 294.156 335.049 293.596C335.291 293.036 335.665 292.583 336.169 292.238C336.673 291.893 337.293 291.72 338.031 291.72C338.721 291.72 339.319 291.883 339.823 292.21C340.327 292.527 340.709 292.957 340.971 293.498C341.232 294.03 341.363 294.613 341.363 295.248C341.363 295.425 341.302 295.575 341.181 295.696C341.069 295.817 340.915 295.878 340.719 295.878H335.973C336.047 296.531 336.29 297.04 336.701 297.404C337.111 297.768 337.685 297.95 338.423 297.95C338.815 297.95 339.155 297.913 339.445 297.838C339.743 297.763 340.033 297.656 340.313 297.516C340.387 297.479 340.471 297.46 340.565 297.46C340.714 297.46 340.845 297.511 340.957 297.614C341.069 297.717 341.125 297.847 341.125 298.006C341.125 298.211 341.003 298.384 340.761 298.524C340.397 298.729 340.037 298.883 339.683 298.986C339.328 299.089 338.871 299.14 338.311 299.14ZM340.103 294.842C340.075 294.385 339.953 294.002 339.739 293.694C339.533 293.386 339.277 293.162 338.969 293.022C338.661 292.873 338.348 292.798 338.031 292.798C337.713 292.798 337.401 292.873 337.093 293.022C336.785 293.162 336.528 293.386 336.323 293.694C336.117 294.002 336.001 294.385 335.973 294.842H340.103Z" fill="#444444"/>
<path d="M128.327 342.14C127.189 342.14 126.297 341.818 125.653 341.174C125.019 340.521 124.701 339.606 124.701 338.43C124.701 337.767 124.823 337.156 125.065 336.596C125.308 336.036 125.681 335.583 126.185 335.238C126.689 334.893 127.31 334.72 128.047 334.72C128.738 334.72 129.335 334.883 129.839 335.21C130.343 335.527 130.726 335.957 130.987 336.498C131.249 337.03 131.379 337.613 131.379 338.248C131.379 338.425 131.319 338.575 131.197 338.696C131.085 338.817 130.931 338.878 130.735 338.878H125.989C126.064 339.531 126.307 340.04 126.717 340.404C127.128 340.768 127.702 340.95 128.439 340.95C128.831 340.95 129.172 340.913 129.461 340.838C129.76 340.763 130.049 340.656 130.329 340.516C130.404 340.479 130.488 340.46 130.581 340.46C130.731 340.46 130.861 340.511 130.973 340.614C131.085 340.717 131.141 340.847 131.141 341.006C131.141 341.211 131.02 341.384 130.777 341.524C130.413 341.729 130.054 341.883 129.699 341.986C129.345 342.089 128.887 342.14 128.327 342.14ZM130.119 337.842C130.091 337.385 129.97 337.002 129.755 336.694C129.55 336.386 129.293 336.162 128.985 336.022C128.677 335.873 128.365 335.798 128.047 335.798C127.73 335.798 127.417 335.873 127.109 336.022C126.801 336.162 126.545 336.386 126.339 336.694C126.134 337.002 126.017 337.385 125.989 337.842H130.119ZM133.193 342.07C133.006 342.07 132.857 342.014 132.745 341.902C132.642 341.781 132.591 341.622 132.591 341.426C132.591 341.286 132.638 341.155 132.731 341.034L134.901 338.472L132.731 335.826C132.628 335.695 132.577 335.56 132.577 335.42C132.577 335.233 132.638 335.084 132.759 334.972C132.88 334.851 133.03 334.79 133.207 334.79C133.431 334.79 133.599 334.869 133.711 335.028L135.671 337.45L137.617 335.028C137.729 334.869 137.892 334.79 138.107 334.79C138.294 334.79 138.448 334.851 138.569 334.972C138.69 335.084 138.751 335.224 138.751 335.392C138.751 335.532 138.704 335.663 138.611 335.784L136.399 338.388L138.583 341.02C138.686 341.132 138.737 341.267 138.737 341.426C138.737 341.603 138.681 341.757 138.569 341.888C138.457 342.009 138.298 342.07 138.093 342.07C137.888 342.07 137.724 341.986 137.603 341.818L135.615 339.438L133.739 341.79C133.599 341.977 133.417 342.07 133.193 342.07ZM143.021 342.14C141.659 342.14 140.977 341.524 140.977 340.292V335.952H139.983C139.909 335.952 139.843 335.929 139.787 335.882C139.741 335.826 139.717 335.761 139.717 335.686C139.717 335.593 139.759 335.513 139.843 335.448L141.747 333.586C141.831 333.502 141.911 333.46 141.985 333.46C142.06 333.46 142.121 333.488 142.167 333.544C142.223 333.6 142.251 333.665 142.251 333.74V334.86H143.833C143.992 334.86 144.123 334.911 144.225 335.014C144.328 335.117 144.379 335.247 144.379 335.406C144.379 335.555 144.328 335.686 144.225 335.798C144.123 335.901 143.992 335.952 143.833 335.952H142.251V340.18C142.251 340.544 142.335 340.777 142.503 340.88C142.681 340.973 142.9 341.02 143.161 341.02C143.348 341.02 143.535 340.992 143.721 340.936C143.759 340.927 143.796 340.917 143.833 340.908C143.88 340.899 143.936 340.894 144.001 340.894C144.132 340.894 144.249 340.945 144.351 341.048C144.454 341.141 144.505 341.258 144.505 341.398C144.505 341.613 144.398 341.776 144.183 341.888C143.819 342.056 143.432 342.14 143.021 342.14ZM146.533 342.07C146.356 342.07 146.206 342.009 146.085 341.888C145.964 341.767 145.903 341.617 145.903 341.44V335.434C145.903 335.257 145.964 335.107 146.085 334.986C146.206 334.855 146.356 334.79 146.533 334.79C146.71 334.79 146.86 334.855 146.981 334.986C147.112 335.107 147.177 335.257 147.177 335.434V336.036C147.83 335.159 148.563 334.72 149.375 334.72H149.445C149.622 334.72 149.767 334.781 149.879 334.902C150 335.023 150.061 335.173 150.061 335.35C150.061 335.527 150 335.672 149.879 335.784C149.758 335.896 149.604 335.952 149.417 335.952H149.347C148.899 335.952 148.488 336.064 148.115 336.288C147.742 336.503 147.429 336.801 147.177 337.184V341.44C147.177 341.617 147.112 341.767 146.981 341.888C146.86 342.009 146.71 342.07 146.533 342.07ZM153.082 342.14C152.672 342.14 152.289 342.056 151.934 341.888C151.589 341.72 151.314 341.477 151.108 341.16C150.903 340.833 150.8 340.46 150.8 340.04C150.8 339.349 151.071 338.799 151.612 338.388C152.163 337.977 152.966 337.772 154.02 337.772H155.714V337.66C155.714 337.044 155.56 336.601 155.252 336.33C154.954 336.059 154.482 335.924 153.838 335.924C153.484 335.924 153.166 335.952 152.886 336.008C152.616 336.064 152.312 336.148 151.976 336.26C151.902 336.279 151.841 336.288 151.794 336.288C151.654 336.288 151.533 336.237 151.43 336.134C151.328 336.031 151.276 335.905 151.276 335.756C151.276 335.504 151.398 335.327 151.64 335.224C152.434 334.888 153.241 334.72 154.062 334.72C154.706 334.72 155.248 334.851 155.686 335.112C156.134 335.373 156.461 335.714 156.666 336.134C156.881 336.545 156.988 336.993 156.988 337.478V341.44C156.988 341.617 156.923 341.767 156.792 341.888C156.671 342.009 156.522 342.07 156.344 342.07C156.167 342.07 156.018 342.009 155.896 341.888C155.775 341.767 155.714 341.617 155.714 341.44V341.076C155.024 341.785 154.146 342.14 153.082 342.14ZM153.558 341.02C153.969 341.02 154.366 340.922 154.748 340.726C155.131 340.521 155.453 340.269 155.714 339.97V338.794H154.188C152.779 338.794 152.074 339.163 152.074 339.9C152.074 340.236 152.186 340.507 152.41 340.712C152.644 340.917 153.026 341.02 153.558 341.02ZM162.274 342.14C161.555 342.14 160.925 341.986 160.384 341.678C159.842 341.37 159.422 340.936 159.124 340.376C158.834 339.807 158.69 339.158 158.69 338.43C158.69 337.702 158.834 337.058 159.124 336.498C159.422 335.929 159.842 335.49 160.384 335.182C160.925 334.874 161.555 334.72 162.274 334.72C162.983 334.72 163.608 334.874 164.15 335.182C164.691 335.49 165.111 335.929 165.41 336.498C165.708 337.058 165.858 337.702 165.858 338.43C165.858 339.158 165.708 339.807 165.41 340.376C165.111 340.936 164.691 341.37 164.15 341.678C163.608 341.986 162.983 342.14 162.274 342.14ZM162.274 340.978C162.656 340.978 163.02 340.889 163.366 340.712C163.72 340.535 164.01 340.255 164.234 339.872C164.467 339.489 164.584 339.004 164.584 338.416C164.584 337.837 164.467 337.357 164.234 336.974C164.01 336.591 163.72 336.316 163.366 336.148C163.02 335.971 162.656 335.882 162.274 335.882C161.882 335.882 161.508 335.971 161.154 336.148C160.808 336.316 160.524 336.591 160.3 336.974C160.076 337.357 159.964 337.837 159.964 338.416C159.964 339.004 160.076 339.489 160.3 339.872C160.524 340.255 160.808 340.535 161.154 340.712C161.508 340.889 161.882 340.978 162.274 340.978ZM168.271 342.07C168.094 342.07 167.944 342.009 167.823 341.888C167.702 341.767 167.641 341.617 167.641 341.44V335.434C167.641 335.257 167.702 335.107 167.823 334.986C167.944 334.855 168.094 334.79 168.271 334.79C168.448 334.79 168.598 334.855 168.719 334.986C168.85 335.107 168.915 335.257 168.915 335.434V336.036C169.568 335.159 170.301 334.72 171.113 334.72H171.183C171.36 334.72 171.505 334.781 171.617 334.902C171.738 335.023 171.799 335.173 171.799 335.35C171.799 335.527 171.738 335.672 171.617 335.784C171.496 335.896 171.342 335.952 171.155 335.952H171.085C170.637 335.952 170.226 336.064 169.853 336.288C169.48 336.503 169.167 336.801 168.915 337.184V341.44C168.915 341.617 168.85 341.767 168.719 341.888C168.598 342.009 168.448 342.07 168.271 342.07ZM175.749 342.14C175.171 342.14 174.62 341.995 174.097 341.706C173.584 341.407 173.164 340.978 172.837 340.418C172.52 339.849 172.361 339.186 172.361 338.43C172.361 337.674 172.52 337.016 172.837 336.456C173.164 335.887 173.584 335.457 174.097 335.168C174.62 334.869 175.171 334.72 175.749 334.72C176.664 334.72 177.462 335.075 178.143 335.784V332.354C178.143 332.167 178.204 332.013 178.325 331.892C178.456 331.771 178.61 331.71 178.787 331.71C178.965 331.71 179.114 331.775 179.235 331.906C179.357 332.027 179.417 332.177 179.417 332.354V341.44C179.417 341.617 179.357 341.767 179.235 341.888C179.114 342.009 178.965 342.07 178.787 342.07C178.61 342.07 178.456 342.009 178.325 341.888C178.204 341.767 178.143 341.617 178.143 341.44V341.076C177.462 341.785 176.664 342.14 175.749 342.14ZM175.931 340.95C176.361 340.95 176.762 340.857 177.135 340.67C177.518 340.474 177.854 340.217 178.143 339.9V336.96C177.854 336.643 177.518 336.391 177.135 336.204C176.762 336.008 176.361 335.91 175.931 335.91C175.241 335.91 174.685 336.129 174.265 336.568C173.845 337.007 173.635 337.627 173.635 338.43C173.635 339.233 173.845 339.853 174.265 340.292C174.685 340.731 175.241 340.95 175.931 340.95ZM182.229 333.404C182.033 333.404 181.865 333.334 181.725 333.194C181.585 333.054 181.515 332.886 181.515 332.69V332.634C181.515 332.438 181.585 332.27 181.725 332.13C181.865 331.99 182.033 331.92 182.229 331.92H182.313C182.509 331.92 182.677 331.99 182.817 332.13C182.957 332.27 183.027 332.438 183.027 332.634V332.69C183.027 332.886 182.957 333.054 182.817 333.194C182.677 333.334 182.509 333.404 182.313 333.404H182.229ZM182.257 342.07C182.08 342.07 181.931 342.009 181.809 341.888C181.688 341.767 181.627 341.617 181.627 341.44V335.434C181.627 335.257 181.688 335.107 181.809 334.986C181.931 334.855 182.08 334.79 182.257 334.79C182.444 334.79 182.598 334.851 182.719 334.972C182.841 335.093 182.901 335.247 182.901 335.434V341.44C182.901 341.617 182.836 341.767 182.705 341.888C182.584 342.009 182.435 342.07 182.257 342.07ZM185.744 342.07C185.566 342.07 185.417 342.009 185.296 341.888C185.174 341.767 185.114 341.617 185.114 341.44V335.434C185.114 335.257 185.174 335.107 185.296 334.986C185.417 334.855 185.566 334.79 185.744 334.79C185.921 334.79 186.07 334.855 186.192 334.986C186.322 335.107 186.388 335.257 186.388 335.434V336.008C186.742 335.616 187.125 335.303 187.536 335.07C187.946 334.837 188.432 334.72 188.992 334.72C189.505 334.72 189.948 334.841 190.322 335.084C190.704 335.327 190.994 335.658 191.19 336.078C191.395 336.498 191.498 336.96 191.498 337.464V341.44C191.498 341.617 191.432 341.767 191.302 341.888C191.18 342.009 191.031 342.07 190.854 342.07C190.676 342.07 190.527 342.009 190.406 341.888C190.284 341.767 190.224 341.617 190.224 341.44V337.604C190.224 336.465 189.71 335.896 188.684 335.896C188.217 335.896 187.797 336.017 187.424 336.26C187.06 336.503 186.714 336.829 186.388 337.24V341.44C186.388 341.617 186.322 341.767 186.192 341.888C186.07 342.009 185.921 342.07 185.744 342.07ZM195.465 342.14C195.054 342.14 194.672 342.056 194.317 341.888C193.972 341.72 193.696 341.477 193.491 341.16C193.286 340.833 193.183 340.46 193.183 340.04C193.183 339.349 193.454 338.799 193.995 338.388C194.546 337.977 195.348 337.772 196.403 337.772H198.097V337.66C198.097 337.044 197.943 336.601 197.635 336.33C197.336 336.059 196.865 335.924 196.221 335.924C195.866 335.924 195.549 335.952 195.269 336.008C194.998 336.064 194.695 336.148 194.359 336.26C194.284 336.279 194.224 336.288 194.177 336.288C194.037 336.288 193.916 336.237 193.813 336.134C193.71 336.031 193.659 335.905 193.659 335.756C193.659 335.504 193.78 335.327 194.023 335.224C194.816 334.888 195.624 334.72 196.445 334.72C197.089 334.72 197.63 334.851 198.069 335.112C198.517 335.373 198.844 335.714 199.049 336.134C199.264 336.545 199.371 336.993 199.371 337.478V341.44C199.371 341.617 199.306 341.767 199.175 341.888C199.054 342.009 198.904 342.07 198.727 342.07C198.55 342.07 198.4 342.009 198.279 341.888C198.158 341.767 198.097 341.617 198.097 341.44V341.076C197.406 341.785 196.529 342.14 195.465 342.14ZM195.941 341.02C196.352 341.02 196.748 340.922 197.131 340.726C197.514 340.521 197.836 340.269 198.097 339.97V338.794H196.571C195.162 338.794 194.457 339.163 194.457 339.9C194.457 340.236 194.569 340.507 194.793 340.712C195.026 340.917 195.409 341.02 195.941 341.02ZM202.108 333.404C201.912 333.404 201.744 333.334 201.604 333.194C201.464 333.054 201.394 332.886 201.394 332.69V332.634C201.394 332.438 201.464 332.27 201.604 332.13C201.744 331.99 201.912 331.92 202.108 331.92H202.192C202.388 331.92 202.556 331.99 202.696 332.13C202.836 332.27 202.906 332.438 202.906 332.634V332.69C202.906 332.886 202.836 333.054 202.696 333.194C202.556 333.334 202.388 333.404 202.192 333.404H202.108ZM202.136 342.07C201.959 342.07 201.81 342.009 201.688 341.888C201.567 341.767 201.506 341.617 201.506 341.44V335.434C201.506 335.257 201.567 335.107 201.688 334.986C201.81 334.855 201.959 334.79 202.136 334.79C202.323 334.79 202.477 334.851 202.598 334.972C202.72 335.093 202.78 335.247 202.78 335.434V341.44C202.78 341.617 202.715 341.767 202.584 341.888C202.463 342.009 202.314 342.07 202.136 342.07ZM205.623 342.07C205.445 342.07 205.296 342.009 205.175 341.888C205.053 341.767 204.993 341.617 204.993 341.44V335.434C204.993 335.257 205.053 335.107 205.175 334.986C205.296 334.855 205.445 334.79 205.623 334.79C205.8 334.79 205.949 334.855 206.071 334.986C206.201 335.107 206.267 335.257 206.267 335.434V336.036C206.92 335.159 207.653 334.72 208.465 334.72H208.535C208.712 334.72 208.857 334.781 208.969 334.902C209.09 335.023 209.151 335.173 209.151 335.35C209.151 335.527 209.09 335.672 208.969 335.784C208.847 335.896 208.693 335.952 208.507 335.952H208.437C207.989 335.952 207.578 336.064 207.205 336.288C206.831 336.503 206.519 336.801 206.267 337.184V341.44C206.267 341.617 206.201 341.767 206.071 341.888C205.949 342.009 205.8 342.07 205.623 342.07ZM213.339 342.14C212.2 342.14 211.309 341.818 210.665 341.174C210.03 340.521 209.713 339.606 209.713 338.43C209.713 337.767 209.834 337.156 210.077 336.596C210.32 336.036 210.693 335.583 211.197 335.238C211.701 334.893 212.322 334.72 213.059 334.72C213.75 334.72 214.347 334.883 214.851 335.21C215.355 335.527 215.738 335.957 215.999 336.498C216.26 337.03 216.391 337.613 216.391 338.248C216.391 338.425 216.33 338.575 216.209 338.696C216.097 338.817 215.943 338.878 215.747 338.878H211.001C211.076 339.531 211.318 340.04 211.729 340.404C212.14 340.768 212.714 340.95 213.451 340.95C213.843 340.95 214.184 340.913 214.473 340.838C214.772 340.763 215.061 340.656 215.341 340.516C215.416 340.479 215.5 340.46 215.593 340.46C215.742 340.46 215.873 340.511 215.985 340.614C216.097 340.717 216.153 340.847 216.153 341.006C216.153 341.211 216.032 341.384 215.789 341.524C215.425 341.729 215.066 341.883 214.711 341.986C214.356 342.089 213.899 342.14 213.339 342.14ZM215.131 337.842C215.103 337.385 214.982 337.002 214.767 336.694C214.562 336.386 214.305 336.162 213.997 336.022C213.689 335.873 213.376 335.798 213.059 335.798C212.742 335.798 212.429 335.873 212.121 336.022C211.813 336.162 211.556 336.386 211.351 336.694C211.146 337.002 211.029 337.385 211.001 337.842H215.131Z" fill="#444444"/>
<path d="M36.1164 316.14C35.7058 316.14 35.3231 316.056 34.9684 315.888C34.6231 315.72 34.3478 315.477 34.1424 315.16C33.9371 314.833 33.8344 314.46 33.8344 314.04C33.8344 313.349 34.1051 312.799 34.6464 312.388C35.1971 311.977 35.9998 311.772 37.0544 311.772H38.7484V311.66C38.7484 311.044 38.5944 310.601 38.2864 310.33C37.9878 310.059 37.5164 309.924 36.8724 309.924C36.5178 309.924 36.2004 309.952 35.9204 310.008C35.6498 310.064 35.3464 310.148 35.0104 310.26C34.9358 310.279 34.8751 310.288 34.8284 310.288C34.6884 310.288 34.5671 310.237 34.4644 310.134C34.3618 310.031 34.3104 309.905 34.3104 309.756C34.3104 309.504 34.4318 309.327 34.6744 309.224C35.4678 308.888 36.2751 308.72 37.0964 308.72C37.7404 308.72 38.2818 308.851 38.7204 309.112C39.1684 309.373 39.4951 309.714 39.7004 310.134C39.9151 310.545 40.0224 310.993 40.0224 311.478V315.44C40.0224 315.617 39.9571 315.767 39.8264 315.888C39.7051 316.009 39.5558 316.07 39.3784 316.07C39.2011 316.07 39.0518 316.009 38.9304 315.888C38.8091 315.767 38.7484 315.617 38.7484 315.44V315.076C38.0578 315.785 37.1804 316.14 36.1164 316.14ZM36.5924 315.02C37.0031 315.02 37.3998 314.922 37.7824 314.726C38.1651 314.521 38.4871 314.269 38.7484 313.97V312.794H37.2224C35.8131 312.794 35.1084 313.163 35.1084 313.9C35.1084 314.236 35.2204 314.507 35.4444 314.712C35.6778 314.917 36.0604 315.02 36.5924 315.02ZM45.4618 316.14C44.7898 316.14 44.1691 315.991 43.5998 315.692C43.0304 315.393 42.5731 314.964 42.2278 314.404C41.8918 313.844 41.7238 313.186 41.7238 312.43C41.7238 311.674 41.8918 311.016 42.2278 310.456C42.5731 309.896 43.0304 309.467 43.5998 309.168C44.1691 308.869 44.7898 308.72 45.4618 308.72C45.9564 308.72 46.3811 308.785 46.7358 308.916C47.0998 309.037 47.4358 309.196 47.7438 309.392C47.9304 309.513 48.0238 309.677 48.0238 309.882C48.0238 310.022 47.9678 310.153 47.8558 310.274C47.7531 310.386 47.6318 310.442 47.4918 310.442C47.3891 310.442 47.2864 310.414 47.1838 310.358C46.8758 310.199 46.6098 310.087 46.3858 310.022C46.1711 309.947 45.9004 309.91 45.5738 309.91C44.7711 309.91 44.1411 310.143 43.6838 310.61C43.2264 311.067 42.9978 311.674 42.9978 312.43C42.9978 313.186 43.2264 313.797 43.6838 314.264C44.1411 314.721 44.7711 314.95 45.5738 314.95C45.9004 314.95 46.1711 314.917 46.3858 314.852C46.6098 314.777 46.8758 314.661 47.1838 314.502C47.2864 314.446 47.3891 314.418 47.4918 314.418C47.6318 314.418 47.7531 314.479 47.8558 314.6C47.9678 314.712 48.0238 314.838 48.0238 314.978C48.0238 315.183 47.9304 315.347 47.7438 315.468C47.4358 315.664 47.0998 315.827 46.7358 315.958C46.3811 316.079 45.9564 316.14 45.4618 316.14ZM52.0866 316.14C50.7239 316.14 50.0426 315.524 50.0426 314.292V309.952H49.0486C48.9739 309.952 48.9086 309.929 48.8526 309.882C48.8059 309.826 48.7826 309.761 48.7826 309.686C48.7826 309.593 48.8246 309.513 48.9086 309.448L50.8126 307.586C50.8966 307.502 50.9759 307.46 51.0506 307.46C51.1253 307.46 51.1859 307.488 51.2326 307.544C51.2886 307.6 51.3166 307.665 51.3166 307.74V308.86H52.8986C53.0573 308.86 53.1879 308.911 53.2906 309.014C53.3933 309.117 53.4446 309.247 53.4446 309.406C53.4446 309.555 53.3933 309.686 53.2906 309.798C53.1879 309.901 53.0573 309.952 52.8986 309.952H51.3166V314.18C51.3166 314.544 51.4006 314.777 51.5686 314.88C51.7459 314.973 51.9653 315.02 52.2266 315.02C52.4133 315.02 52.5999 314.992 52.7866 314.936C52.8239 314.927 52.8613 314.917 52.8986 314.908C52.9453 314.899 53.0013 314.894 53.0666 314.894C53.1973 314.894 53.3139 314.945 53.4166 315.048C53.5193 315.141 53.5706 315.258 53.5706 315.398C53.5706 315.613 53.4633 315.776 53.2486 315.888C52.8846 316.056 52.4973 316.14 52.0866 316.14ZM57.4043 316.14C56.891 316.14 56.443 316.019 56.0603 315.776C55.687 315.533 55.3976 315.202 55.1923 314.782C54.9963 314.362 54.8983 313.9 54.8983 313.396V309.42C54.8983 309.243 54.959 309.093 55.0803 308.972C55.211 308.851 55.365 308.79 55.5423 308.79C55.7196 308.79 55.869 308.851 55.9903 308.972C56.1116 309.093 56.1723 309.243 56.1723 309.42V313.256C56.1723 314.395 56.6856 314.964 57.7123 314.964C58.179 314.964 58.5943 314.843 58.9583 314.6C59.3316 314.357 59.6816 314.031 60.0083 313.62V309.42C60.0083 309.243 60.069 309.093 60.1903 308.972C60.321 308.851 60.475 308.79 60.6523 308.79C60.8296 308.79 60.979 308.851 61.1003 308.972C61.2216 309.093 61.2823 309.243 61.2823 309.42V315.426C61.2823 315.603 61.2216 315.757 61.1003 315.888C60.979 316.009 60.8296 316.07 60.6523 316.07C60.475 316.07 60.321 316.009 60.1903 315.888C60.069 315.757 60.0083 315.603 60.0083 315.426V314.852C59.6536 315.244 59.271 315.557 58.8603 315.79C58.4496 316.023 57.9643 316.14 57.4043 316.14ZM66.6916 316.14C65.5529 316.14 64.6616 315.818 64.0176 315.174C63.3829 314.521 63.0656 313.606 63.0656 312.43C63.0656 311.767 63.1869 311.156 63.4296 310.596C63.6722 310.036 64.0456 309.583 64.5496 309.238C65.0536 308.893 65.6742 308.72 66.4116 308.72C67.1022 308.72 67.6996 308.883 68.2036 309.21C68.7076 309.527 69.0902 309.957 69.3516 310.498C69.6129 311.03 69.7436 311.613 69.7436 312.248C69.7436 312.425 69.6829 312.575 69.5616 312.696C69.4496 312.817 69.2956 312.878 69.0996 312.878H64.3536C64.4282 313.531 64.6709 314.04 65.0816 314.404C65.4922 314.768 66.0662 314.95 66.8036 314.95C67.1956 314.95 67.5362 314.913 67.8256 314.838C68.1242 314.763 68.4136 314.656 68.6936 314.516C68.7682 314.479 68.8522 314.46 68.9456 314.46C69.0949 314.46 69.2256 314.511 69.3376 314.614C69.4496 314.717 69.5056 314.847 69.5056 315.006C69.5056 315.211 69.3842 315.384 69.1416 315.524C68.7776 315.729 68.4182 315.883 68.0636 315.986C67.7089 316.089 67.2516 316.14 66.6916 316.14ZM68.4836 311.842C68.4556 311.385 68.3342 311.002 68.1196 310.694C67.9142 310.386 67.6576 310.162 67.3496 310.022C67.0416 309.873 66.7289 309.798 66.4116 309.798C66.0942 309.798 65.7816 309.873 65.4736 310.022C65.1656 310.162 64.9089 310.386 64.7036 310.694C64.4982 311.002 64.3816 311.385 64.3536 311.842H68.4836ZM72.0592 316.07C71.8819 316.07 71.7326 316.009 71.6112 315.888C71.4899 315.767 71.4292 315.617 71.4292 315.44V306.354C71.4292 306.177 71.4899 306.027 71.6112 305.906C71.7326 305.775 71.8819 305.71 72.0592 305.71C72.2459 305.71 72.3999 305.771 72.5212 305.892C72.6426 306.013 72.7032 306.167 72.7032 306.354V315.44C72.7032 315.617 72.6379 315.767 72.5072 315.888C72.3859 316.009 72.2366 316.07 72.0592 316.07Z" fill="#444444"/>
<path d="M377.735 223.07C377.567 223.07 377.413 223.023 377.273 222.93C377.133 222.827 377.03 222.701 376.965 222.552L374.529 216.728C374.482 216.616 374.459 216.518 374.459 216.434C374.459 216.257 374.519 216.107 374.641 215.986C374.762 215.855 374.911 215.79 375.089 215.79C375.21 215.79 375.322 215.827 375.425 215.902C375.537 215.967 375.616 216.051 375.663 216.154L377.805 221.586L379.947 216.154C379.993 216.051 380.068 215.967 380.171 215.902C380.283 215.827 380.399 215.79 380.521 215.79C380.698 215.79 380.847 215.855 380.969 215.986C381.09 216.107 381.151 216.257 381.151 216.434C381.151 216.518 381.127 216.616 381.081 216.728L378.645 222.552C378.579 222.701 378.477 222.827 378.337 222.93C378.197 223.023 378.043 223.07 377.875 223.07H377.735ZM385.679 223.14C384.96 223.14 384.33 222.986 383.789 222.678C383.248 222.37 382.828 221.936 382.529 221.376C382.24 220.807 382.095 220.158 382.095 219.43C382.095 218.702 382.24 218.058 382.529 217.498C382.828 216.929 383.248 216.49 383.789 216.182C384.33 215.874 384.96 215.72 385.679 215.72C386.388 215.72 387.014 215.874 387.555 216.182C388.096 216.49 388.516 216.929 388.815 217.498C389.114 218.058 389.263 218.702 389.263 219.43C389.263 220.158 389.114 220.807 388.815 221.376C388.516 221.936 388.096 222.37 387.555 222.678C387.014 222.986 386.388 223.14 385.679 223.14ZM385.679 221.978C386.062 221.978 386.426 221.889 386.771 221.712C387.126 221.535 387.415 221.255 387.639 220.872C387.872 220.489 387.989 220.004 387.989 219.416C387.989 218.837 387.872 218.357 387.639 217.974C387.415 217.591 387.126 217.316 386.771 217.148C386.426 216.971 386.062 216.882 385.679 216.882C385.287 216.882 384.914 216.971 384.559 217.148C384.214 217.316 383.929 217.591 383.705 217.974C383.481 218.357 383.369 218.837 383.369 219.416C383.369 220.004 383.481 220.489 383.705 220.872C383.929 221.255 384.214 221.535 384.559 221.712C384.914 221.889 385.287 221.978 385.679 221.978ZM392.547 226.29C392.379 226.29 392.234 226.229 392.113 226.108C392.001 225.987 391.945 225.842 391.945 225.674C391.945 225.599 391.959 225.525 391.987 225.45L392.897 223.112L390.265 216.7C390.227 216.607 390.209 216.518 390.209 216.434C390.209 216.257 390.269 216.107 390.391 215.986C390.512 215.855 390.661 215.79 390.839 215.79C390.969 215.79 391.086 215.827 391.189 215.902C391.301 215.977 391.38 216.07 391.427 216.182L393.583 221.53L395.781 216.21C395.902 215.93 396.098 215.79 396.369 215.79C396.546 215.79 396.695 215.855 396.817 215.986C396.938 216.107 396.999 216.257 396.999 216.434C396.999 216.518 396.985 216.597 396.957 216.672L393.135 225.856C393.004 226.145 392.808 226.29 392.547 226.29ZM400.208 223.14C399.798 223.14 399.415 223.056 399.06 222.888C398.715 222.72 398.44 222.477 398.234 222.16C398.029 221.833 397.926 221.46 397.926 221.04C397.926 220.349 398.197 219.799 398.738 219.388C399.289 218.977 400.092 218.772 401.146 218.772H402.84V218.66C402.84 218.044 402.686 217.601 402.378 217.33C402.08 217.059 401.608 216.924 400.964 216.924C400.61 216.924 400.292 216.952 400.012 217.008C399.742 217.064 399.438 217.148 399.102 217.26C399.028 217.279 398.967 217.288 398.92 217.288C398.78 217.288 398.659 217.237 398.556 217.134C398.454 217.031 398.402 216.905 398.402 216.756C398.402 216.504 398.524 216.327 398.766 216.224C399.56 215.888 400.367 215.72 401.188 215.72C401.832 215.72 402.374 215.851 402.812 216.112C403.26 216.373 403.587 216.714 403.792 217.134C404.007 217.545 404.114 217.993 404.114 218.478V222.44C404.114 222.617 404.049 222.767 403.918 222.888C403.797 223.009 403.648 223.07 403.47 223.07C403.293 223.07 403.144 223.009 403.022 222.888C402.901 222.767 402.84 222.617 402.84 222.44V222.076C402.15 222.785 401.272 223.14 400.208 223.14ZM400.684 222.02C401.095 222.02 401.492 221.922 401.874 221.726C402.257 221.521 402.579 221.269 402.84 220.97V219.794H401.314C399.905 219.794 399.2 220.163 399.2 220.9C399.2 221.236 399.312 221.507 399.536 221.712C399.77 221.917 400.152 222.02 400.684 222.02ZM409.582 226.36C409.04 226.36 408.494 226.29 407.944 226.15C407.393 226.01 406.94 225.837 406.586 225.632C406.418 225.529 406.334 225.366 406.334 225.142C406.334 224.993 406.385 224.857 406.488 224.736C406.6 224.624 406.735 224.568 406.894 224.568C406.968 224.568 407.052 224.587 407.146 224.624C407.855 224.979 408.625 225.156 409.456 225.156C410.884 225.156 411.598 224.395 411.598 222.874V221.936C410.935 222.645 410.137 223 409.204 223C408.653 223 408.116 222.865 407.594 222.594C407.08 222.314 406.656 221.903 406.32 221.362C405.984 220.811 405.816 220.144 405.816 219.36C405.816 218.576 405.984 217.913 406.32 217.372C406.656 216.821 407.08 216.411 407.594 216.14C408.116 215.86 408.653 215.72 409.204 215.72C410.137 215.72 410.935 216.075 411.598 216.784V216.434C411.598 216.257 411.658 216.107 411.78 215.986C411.901 215.855 412.05 215.79 412.228 215.79C412.405 215.79 412.554 215.855 412.676 215.986C412.806 216.107 412.872 216.257 412.872 216.434V222.692C412.872 223.868 412.587 224.773 412.018 225.408C411.448 226.043 410.636 226.36 409.582 226.36ZM409.47 221.838C409.908 221.838 410.296 221.745 410.632 221.558C410.968 221.371 411.29 221.119 411.598 220.802V217.918C411.29 217.601 410.968 217.349 410.632 217.162C410.296 216.975 409.908 216.882 409.47 216.882C408.77 216.882 408.196 217.097 407.748 217.526C407.309 217.946 407.09 218.557 407.09 219.36C407.09 220.163 407.309 220.779 407.748 221.208C408.196 221.628 408.77 221.838 409.47 221.838ZM418.274 223.14C417.135 223.14 416.244 222.818 415.6 222.174C414.965 221.521 414.648 220.606 414.648 219.43C414.648 218.767 414.769 218.156 415.012 217.596C415.254 217.036 415.628 216.583 416.132 216.238C416.636 215.893 417.256 215.72 417.994 215.72C418.684 215.72 419.282 215.883 419.786 216.21C420.29 216.527 420.672 216.957 420.934 217.498C421.195 218.03 421.326 218.613 421.326 219.248C421.326 219.425 421.265 219.575 421.144 219.696C421.032 219.817 420.878 219.878 420.682 219.878H415.936C416.01 220.531 416.253 221.04 416.664 221.404C417.074 221.768 417.648 221.95 418.386 221.95C418.778 221.95 419.118 221.913 419.408 221.838C419.706 221.763 419.996 221.656 420.276 221.516C420.35 221.479 420.434 221.46 420.528 221.46C420.677 221.46 420.808 221.511 420.92 221.614C421.032 221.717 421.088 221.847 421.088 222.006C421.088 222.211 420.966 222.384 420.724 222.524C420.36 222.729 420 222.883 419.646 222.986C419.291 223.089 418.834 223.14 418.274 223.14ZM420.066 218.842C420.038 218.385 419.916 218.002 419.702 217.694C419.496 217.386 419.24 217.162 418.932 217.022C418.624 216.873 418.311 216.798 417.994 216.798C417.676 216.798 417.364 216.873 417.056 217.022C416.748 217.162 416.491 217.386 416.286 217.694C416.08 218.002 415.964 218.385 415.936 218.842H420.066Z" fill="#444444"/>
<path d="M39.9678 167.404C39.7718 167.404 39.6038 167.334 39.4638 167.194C39.3238 167.054 39.2538 166.886 39.2538 166.69V166.634C39.2538 166.438 39.3238 166.27 39.4638 166.13C39.6038 165.99 39.7718 165.92 39.9678 165.92H40.0518C40.2478 165.92 40.4158 165.99 40.5558 166.13C40.6958 166.27 40.7658 166.438 40.7658 166.634V166.69C40.7658 166.886 40.6958 167.054 40.5558 167.194C40.4158 167.334 40.2478 167.404 40.0518 167.404H39.9678ZM39.9958 176.07C39.8184 176.07 39.6691 176.009 39.5478 175.888C39.4264 175.767 39.3658 175.617 39.3658 175.44V169.434C39.3658 169.257 39.4264 169.107 39.5478 168.986C39.6691 168.855 39.8184 168.79 39.9958 168.79C40.1824 168.79 40.3364 168.851 40.4578 168.972C40.5791 169.093 40.6398 169.247 40.6398 169.434V175.44C40.6398 175.617 40.5744 175.767 40.4438 175.888C40.3224 176.009 40.1731 176.07 39.9958 176.07ZM43.4821 176.07C43.3048 176.07 43.1554 176.009 43.0341 175.888C42.9128 175.767 42.8521 175.617 42.8521 175.44V169.434C42.8521 169.257 42.9128 169.107 43.0341 168.986C43.1554 168.855 43.3048 168.79 43.4821 168.79C43.6594 168.79 43.8088 168.855 43.9301 168.986C44.0608 169.107 44.1261 169.257 44.1261 169.434V170.008C44.3874 169.635 44.7001 169.327 45.0641 169.084C45.4374 168.841 45.9181 168.72 46.5061 168.72C47.0288 168.72 47.4768 168.86 47.8501 169.14C48.2234 169.42 48.4894 169.761 48.6481 170.162C49.2268 169.201 50.0854 168.72 51.2241 168.72C51.7468 168.72 52.1808 168.851 52.5261 169.112C52.8808 169.373 53.1421 169.709 53.3101 170.12C53.4781 170.531 53.5621 170.96 53.5621 171.408V175.44C53.5621 175.617 53.4968 175.767 53.3661 175.888C53.2448 176.009 53.0954 176.07 52.9181 176.07C52.7408 176.07 52.5914 176.009 52.4701 175.888C52.3488 175.767 52.2881 175.617 52.2881 175.44V171.66C52.2881 171.053 52.1808 170.61 51.9661 170.33C51.7514 170.041 51.3828 169.896 50.8601 169.896C50.3841 169.896 49.9874 170.022 49.6701 170.274C49.3621 170.517 49.0868 170.839 48.8441 171.24V175.44C48.8441 175.617 48.7788 175.767 48.6481 175.888C48.5268 176.009 48.3774 176.07 48.2001 176.07C48.0228 176.07 47.8734 176.009 47.7521 175.888C47.6308 175.767 47.5701 175.617 47.5701 175.44V171.66C47.5701 171.053 47.4628 170.61 47.2481 170.33C47.0334 170.041 46.6648 169.896 46.1421 169.896C45.6661 169.896 45.2694 170.022 44.9521 170.274C44.6441 170.517 44.3688 170.839 44.1261 171.24V175.44C44.1261 175.617 44.0608 175.767 43.9301 175.888C43.8088 176.009 43.6594 176.07 43.4821 176.07ZM57.5237 176.14C57.113 176.14 56.7303 176.056 56.3757 175.888C56.0303 175.72 55.755 175.477 55.5497 175.16C55.3443 174.833 55.2417 174.46 55.2417 174.04C55.2417 173.349 55.5123 172.799 56.0537 172.388C56.6043 171.977 57.407 171.772 58.4617 171.772H60.1557V171.66C60.1557 171.044 60.0017 170.601 59.6937 170.33C59.395 170.059 58.9237 169.924 58.2797 169.924C57.925 169.924 57.6077 169.952 57.3277 170.008C57.057 170.064 56.7537 170.148 56.4177 170.26C56.343 170.279 56.2823 170.288 56.2357 170.288C56.0957 170.288 55.9743 170.237 55.8717 170.134C55.769 170.031 55.7177 169.905 55.7177 169.756C55.7177 169.504 55.839 169.327 56.0817 169.224C56.875 168.888 57.6823 168.72 58.5037 168.72C59.1477 168.72 59.689 168.851 60.1277 169.112C60.5757 169.373 60.9023 169.714 61.1077 170.134C61.3223 170.545 61.4297 170.993 61.4297 171.478V175.44C61.4297 175.617 61.3643 175.767 61.2337 175.888C61.1123 176.009 60.963 176.07 60.7857 176.07C60.6083 176.07 60.459 176.009 60.3377 175.888C60.2163 175.767 60.1557 175.617 60.1557 175.44V175.076C59.465 175.785 58.5877 176.14 57.5237 176.14ZM57.9997 175.02C58.4103 175.02 58.807 174.922 59.1897 174.726C59.5723 174.521 59.8943 174.269 60.1557 173.97V172.794H58.6297C57.2203 172.794 56.5157 173.163 56.5157 173.9C56.5157 174.236 56.6277 174.507 56.8517 174.712C57.085 174.917 57.4677 175.02 57.9997 175.02ZM66.897 179.36C66.3557 179.36 65.8097 179.29 65.259 179.15C64.7083 179.01 64.2557 178.837 63.901 178.632C63.733 178.529 63.649 178.366 63.649 178.142C63.649 177.993 63.7003 177.857 63.803 177.736C63.915 177.624 64.0503 177.568 64.209 177.568C64.2837 177.568 64.3677 177.587 64.461 177.624C65.1703 177.979 65.9403 178.156 66.771 178.156C68.199 178.156 68.913 177.395 68.913 175.874V174.936C68.2503 175.645 67.4523 176 66.519 176C65.9683 176 65.4317 175.865 64.909 175.594C64.3957 175.314 63.971 174.903 63.635 174.362C63.299 173.811 63.131 173.144 63.131 172.36C63.131 171.576 63.299 170.913 63.635 170.372C63.971 169.821 64.3957 169.411 64.909 169.14C65.4317 168.86 65.9683 168.72 66.519 168.72C67.4523 168.72 68.2503 169.075 68.913 169.784V169.434C68.913 169.257 68.9737 169.107 69.095 168.986C69.2163 168.855 69.3657 168.79 69.543 168.79C69.7203 168.79 69.8697 168.855 69.991 168.986C70.1217 169.107 70.187 169.257 70.187 169.434V175.692C70.187 176.868 69.9023 177.773 69.333 178.408C68.7637 179.043 67.9517 179.36 66.897 179.36ZM66.785 174.838C67.2237 174.838 67.611 174.745 67.947 174.558C68.283 174.371 68.605 174.119 68.913 173.802V170.918C68.605 170.601 68.283 170.349 67.947 170.162C67.611 169.975 67.2237 169.882 66.785 169.882C66.085 169.882 65.511 170.097 65.063 170.526C64.6243 170.946 64.405 171.557 64.405 172.36C64.405 173.163 64.6243 173.779 65.063 174.208C65.511 174.628 66.085 174.838 66.785 174.838ZM72.999 167.404C72.803 167.404 72.635 167.334 72.495 167.194C72.355 167.054 72.285 166.886 72.285 166.69V166.634C72.285 166.438 72.355 166.27 72.495 166.13C72.635 165.99 72.803 165.92 72.999 165.92H73.083C73.279 165.92 73.447 165.99 73.587 166.13C73.727 166.27 73.797 166.438 73.797 166.634V166.69C73.797 166.886 73.727 167.054 73.587 167.194C73.447 167.334 73.279 167.404 73.083 167.404H72.999ZM73.027 176.07C72.8497 176.07 72.7003 176.009 72.579 175.888C72.4577 175.767 72.397 175.617 72.397 175.44V169.434C72.397 169.257 72.4577 169.107 72.579 168.986C72.7003 168.855 72.8497 168.79 73.027 168.79C73.2137 168.79 73.3677 168.851 73.489 168.972C73.6103 169.093 73.671 169.247 73.671 169.434V175.44C73.671 175.617 73.6057 175.767 73.475 175.888C73.3537 176.009 73.2043 176.07 73.027 176.07ZM76.5133 176.07C76.336 176.07 76.1867 176.009 76.0653 175.888C75.944 175.767 75.8833 175.617 75.8833 175.44V169.434C75.8833 169.257 75.944 169.107 76.0653 168.986C76.1867 168.855 76.336 168.79 76.5133 168.79C76.6907 168.79 76.84 168.855 76.9613 168.986C77.092 169.107 77.1573 169.257 77.1573 169.434V170.008C77.512 169.616 77.8947 169.303 78.3053 169.07C78.716 168.837 79.2013 168.72 79.7613 168.72C80.2747 168.72 80.718 168.841 81.0913 169.084C81.474 169.327 81.7633 169.658 81.9593 170.078C82.1647 170.498 82.2673 170.96 82.2673 171.464V175.44C82.2673 175.617 82.202 175.767 82.0713 175.888C81.95 176.009 81.8007 176.07 81.6233 176.07C81.446 176.07 81.2967 176.009 81.1753 175.888C81.054 175.767 80.9933 175.617 80.9933 175.44V171.604C80.9933 170.465 80.48 169.896 79.4533 169.896C78.9867 169.896 78.5667 170.017 78.1933 170.26C77.8293 170.503 77.484 170.829 77.1573 171.24V175.44C77.1573 175.617 77.092 175.767 76.9613 175.888C76.84 176.009 76.6907 176.07 76.5133 176.07ZM86.2346 176.14C85.8239 176.14 85.4413 176.056 85.0866 175.888C84.7413 175.72 84.4659 175.477 84.2606 175.16C84.0553 174.833 83.9526 174.46 83.9526 174.04C83.9526 173.349 84.2233 172.799 84.7646 172.388C85.3153 171.977 86.1179 171.772 87.1726 171.772H88.8666V171.66C88.8666 171.044 88.7126 170.601 88.4046 170.33C88.1059 170.059 87.6346 169.924 86.9906 169.924C86.6359 169.924 86.3186 169.952 86.0386 170.008C85.7679 170.064 85.4646 170.148 85.1286 170.26C85.0539 170.279 84.9933 170.288 84.9466 170.288C84.8066 170.288 84.6853 170.237 84.5826 170.134C84.4799 170.031 84.4286 169.905 84.4286 169.756C84.4286 169.504 84.5499 169.327 84.7926 169.224C85.5859 168.888 86.3933 168.72 87.2146 168.72C87.8586 168.72 88.3999 168.851 88.8386 169.112C89.2866 169.373 89.6133 169.714 89.8186 170.134C90.0333 170.545 90.1406 170.993 90.1406 171.478V175.44C90.1406 175.617 90.0753 175.767 89.9446 175.888C89.8233 176.009 89.6739 176.07 89.4966 176.07C89.3193 176.07 89.1699 176.009 89.0486 175.888C88.9273 175.767 88.8666 175.617 88.8666 175.44V175.076C88.1759 175.785 87.2986 176.14 86.2346 176.14ZM86.7106 175.02C87.1213 175.02 87.5179 174.922 87.9006 174.726C88.2833 174.521 88.6053 174.269 88.8666 173.97V172.794H87.3406C85.9313 172.794 85.2266 173.163 85.2266 173.9C85.2266 174.236 85.3386 174.507 85.5626 174.712C85.7959 174.917 86.1786 175.02 86.7106 175.02ZM92.8779 167.404C92.6819 167.404 92.5139 167.334 92.3739 167.194C92.2339 167.054 92.1639 166.886 92.1639 166.69V166.634C92.1639 166.438 92.2339 166.27 92.3739 166.13C92.5139 165.99 92.6819 165.92 92.8779 165.92H92.9619C93.1579 165.92 93.3259 165.99 93.4659 166.13C93.6059 166.27 93.6759 166.438 93.6759 166.634V166.69C93.6759 166.886 93.6059 167.054 93.4659 167.194C93.3259 167.334 93.1579 167.404 92.9619 167.404H92.8779ZM92.9059 176.07C92.7286 176.07 92.5793 176.009 92.4579 175.888C92.3366 175.767 92.2759 175.617 92.2759 175.44V169.434C92.2759 169.257 92.3366 169.107 92.4579 168.986C92.5793 168.855 92.7286 168.79 92.9059 168.79C93.0926 168.79 93.2466 168.851 93.3679 168.972C93.4893 169.093 93.5499 169.247 93.5499 169.434V175.44C93.5499 175.617 93.4846 175.767 93.3539 175.888C93.2326 176.009 93.0833 176.07 92.9059 176.07ZM96.3923 176.07C96.2149 176.07 96.0656 176.009 95.9443 175.888C95.8229 175.767 95.7623 175.617 95.7623 175.44V169.434C95.7623 169.257 95.8229 169.107 95.9443 168.986C96.0656 168.855 96.2149 168.79 96.3923 168.79C96.5696 168.79 96.7189 168.855 96.8403 168.986C96.9709 169.107 97.0363 169.257 97.0363 169.434V170.036C97.6896 169.159 98.4223 168.72 99.2343 168.72H99.3043C99.4816 168.72 99.6263 168.781 99.7383 168.902C99.8596 169.023 99.9203 169.173 99.9203 169.35C99.9203 169.527 99.8596 169.672 99.7383 169.784C99.6169 169.896 99.4629 169.952 99.2763 169.952H99.2063C98.7583 169.952 98.3476 170.064 97.9743 170.288C97.6009 170.503 97.2883 170.801 97.0363 171.184V175.44C97.0363 175.617 96.9709 175.767 96.8403 175.888C96.7189 176.009 96.5696 176.07 96.3923 176.07ZM104.109 176.14C102.97 176.14 102.079 175.818 101.435 175.174C100.8 174.521 100.483 173.606 100.483 172.43C100.483 171.767 100.604 171.156 100.847 170.596C101.089 170.036 101.463 169.583 101.967 169.238C102.471 168.893 103.091 168.72 103.829 168.72C104.519 168.72 105.117 168.883 105.621 169.21C106.125 169.527 106.507 169.957 106.769 170.498C107.03 171.03 107.161 171.613 107.161 172.248C107.161 172.425 107.1 172.575 106.979 172.696C106.867 172.817 106.713 172.878 106.517 172.878H101.771C101.845 173.531 102.088 174.04 102.499 174.404C102.909 174.768 103.483 174.95 104.221 174.95C104.613 174.95 104.953 174.913 105.243 174.838C105.541 174.763 105.831 174.656 106.111 174.516C106.185 174.479 106.269 174.46 106.363 174.46C106.512 174.46 106.643 174.511 106.755 174.614C106.867 174.717 106.923 174.847 106.923 175.006C106.923 175.211 106.801 175.384 106.559 175.524C106.195 175.729 105.835 175.883 105.481 175.986C105.126 176.089 104.669 176.14 104.109 176.14ZM105.901 171.842C105.873 171.385 105.751 171.002 105.537 170.694C105.331 170.386 105.075 170.162 104.767 170.022C104.459 169.873 104.146 169.798 103.829 169.798C103.511 169.798 103.199 169.873 102.891 170.022C102.583 170.162 102.326 170.386 102.121 170.694C101.915 171.002 101.799 171.385 101.771 171.842H105.901Z" fill="#444444"/>
</svg>
