<svg width="171" height="206" viewBox="0 0 171 206" fill="none" xmlns="http://www.w3.org/2000/svg">
<g clip-path="url(#clip0)">
<path d="M54.7882 21.6305C46.0251 24.607 38.604 28.9065 29.8409 31.9492C23.8409 34.0659 17.5251 37.2409 12.4724 41.0112C8.68297 43.8555 5.05139 45.3768 1.57771 41.5404C-1.89598 37.6378 0.709286 34.2643 5.05139 32.6107C21.6303 26.4591 44.4461 20.5721 61.104 14.619" fill="#DF5148"/>
<path d="M22.5808 28.7724C30.7913 25.862 33.6334 22.4885 46.4229 18.2552C63.0019 12.8312 80.0545 8.4656 96.8703 3.63696C97.7387 3.37237 98.6861 3.17394 99.4756 2.90935C112.739 -1.25784 116.37 -1.25784 116.212 4.43071C115.581 8.59789 114.949 12.7651 114.16 16.9323C113.844 18.4536 113.212 19.9088 112.344 22.4224C121.897 22.0255 130.265 21.4963 138.633 21.4302C141.002 21.4302 144.16 22.4224 145.502 23.8776C146.607 25.0021 146.055 27.8463 145.265 29.5661C144.318 31.6828 142.344 33.4026 140.291 36.0484C147.633 36.776 154.423 36.6437 160.502 38.2974C164.686 39.4219 170.055 42.4646 171.002 45.5734C171.949 48.55 168.949 53.6432 165.791 56.0906C155.923 63.6974 151.344 73.487 147.554 83.8718C147.002 85.3932 147.16 87.2453 146.212 88.4359C144.002 91.0156 140.844 95.5135 138.791 95.2489C132.318 94.389 133.818 89.2958 135.318 85.7239C141.239 71.7672 145.028 56.6859 160.897 47.3593C162.476 46.1687 162.476 46.1687 160.186 45.2427C157.107 45.4411 153.633 44.8458 151.502 44.5812C138.87 43.1922 144.791 44.9781 134.923 42.9937C126.949 57.4135 121.186 72.4286 120.081 87.2453C119.765 91.1479 119.37 95.1828 118.028 98.887C117.397 100.541 114.16 102.723 112.344 102.525C110.449 102.327 107.607 99.7468 107.449 98.0271C107.133 93.926 107.291 89.4942 108.791 85.5916C115.107 68.5922 121.976 51.725 128.607 34.7916C129.081 33.601 129.318 32.4104 129.87 30.5583C123.476 31.2198 117.633 31.4182 112.186 32.675C109.976 33.2041 107.607 35.9823 106.976 38.1651C98.4492 65.9463 93.2387 93.7276 108.16 121.377C108.949 122.832 107.686 125.081 107.37 126.999C105.16 126.205 101.923 125.941 100.818 124.485C93.0019 114.431 91.8966 102.856 91.344 91.214C90.1598 67.8646 93.8703 45.0443 101.291 22.6208C102.397 19.1812 103.344 15.6755 104.765 10.5823C95.765 12.0375 88.0282 12.4344 81.1598 14.6172C62.2124 20.7026 43.344 26.9203 24.6334 33.3364" fill="#DF5148"/>
</g>
<path d="M52.7906 176C52.0973 176 51.4973 175.76 50.9906 175.28C50.5106 174.773 50.2706 174.173 50.2706 173.48V149.72C50.2706 149.213 50.444 148.787 50.7906 148.44C51.1373 148.067 51.564 147.88 52.0706 147.88C52.5773 147.88 53.004 148.067 53.3506 148.44C53.724 148.787 53.9106 149.213 53.9106 149.72V172.36H66.9906C67.4973 172.36 67.924 172.547 68.2706 172.92C68.644 173.267 68.8306 173.693 68.8306 174.2C68.8306 174.707 68.644 175.133 68.2706 175.48C67.924 175.827 67.4973 176 66.9906 176H52.7906ZM81.7175 176.4C78.4642 176.4 75.9175 175.48 74.0775 173.64C72.2642 171.773 71.3575 169.16 71.3575 165.8C71.3575 163.907 71.7042 162.16 72.3975 160.56C73.0908 158.96 74.1575 157.667 75.5975 156.68C77.0375 155.693 78.8108 155.2 80.9175 155.2C82.8908 155.2 84.5975 155.667 86.0375 156.6C87.4775 157.507 88.5708 158.733 89.3175 160.28C90.0642 161.8 90.4375 163.467 90.4375 165.28C90.4375 165.787 90.2642 166.213 89.9175 166.56C89.5975 166.907 89.1575 167.08 88.5975 167.08H75.0375C75.2508 168.947 75.9442 170.4 77.1175 171.44C78.2908 172.48 79.9308 173 82.0375 173C83.1575 173 84.1308 172.893 84.9575 172.68C85.8108 172.467 86.6375 172.16 87.4375 171.76C87.6508 171.653 87.8908 171.6 88.1575 171.6C88.5842 171.6 88.9575 171.747 89.2775 172.04C89.5975 172.333 89.7575 172.707 89.7575 173.16C89.7575 173.747 89.4108 174.24 88.7175 174.64C87.6775 175.227 86.6508 175.667 85.6375 175.96C84.6242 176.253 83.3175 176.4 81.7175 176.4ZM86.8375 164.12C86.7575 162.813 86.4108 161.72 85.7975 160.84C85.2108 159.96 84.4775 159.32 83.5975 158.92C82.7175 158.493 81.8242 158.28 80.9175 158.28C80.0108 158.28 79.1175 158.493 78.2375 158.92C77.3575 159.32 76.6242 159.96 76.0375 160.84C75.4508 161.72 75.1175 162.813 75.0375 164.12H86.8375ZM95.6194 176.2C95.086 176.2 94.6594 176.04 94.3394 175.72C94.046 175.373 93.8994 174.92 93.8994 174.36C93.8994 173.96 94.0327 173.587 94.2994 173.24L100.499 165.92L94.2994 158.36C94.006 157.987 93.8594 157.6 93.8594 157.2C93.8594 156.667 94.0327 156.24 94.3794 155.92C94.726 155.573 95.1527 155.4 95.6594 155.4C96.2994 155.4 96.7794 155.627 97.0994 156.08L102.699 163L108.259 156.08C108.579 155.627 109.046 155.4 109.659 155.4C110.193 155.4 110.633 155.573 110.979 155.92C111.326 156.24 111.499 156.64 111.499 157.12C111.499 157.52 111.366 157.893 111.099 158.24L104.779 165.68L111.019 173.2C111.313 173.52 111.459 173.907 111.459 174.36C111.459 174.867 111.299 175.307 110.979 175.68C110.659 176.027 110.206 176.2 109.619 176.2C109.033 176.2 108.566 175.96 108.219 175.48L102.539 168.68L97.1794 175.4C96.7794 175.933 96.2594 176.2 95.6194 176.2ZM121.845 185.4C121.365 185.4 120.952 185.227 120.605 184.88C120.285 184.533 120.125 184.12 120.125 183.64C120.125 183.427 120.165 183.213 120.245 183L122.845 176.32L115.325 158C115.218 157.733 115.165 157.48 115.165 157.24C115.165 156.733 115.338 156.307 115.685 155.96C116.032 155.587 116.458 155.4 116.965 155.4C117.338 155.4 117.672 155.507 117.965 155.72C118.285 155.933 118.512 156.2 118.645 156.52L124.805 171.8L131.085 156.6C131.432 155.8 131.992 155.4 132.765 155.4C133.272 155.4 133.698 155.587 134.045 155.96C134.392 156.307 134.565 156.733 134.565 157.24C134.565 157.48 134.525 157.707 134.445 157.92L123.525 184.16C123.152 184.987 122.592 185.4 121.845 185.4Z" fill="black"/>
<path d="M40.1324 202.08C39.9298 202.08 39.7591 202.011 39.6204 201.872C39.4818 201.733 39.4124 201.563 39.4124 201.36V190.976C39.4124 190.773 39.4818 190.603 39.6204 190.464C39.7591 190.315 39.9298 190.24 40.1324 190.24C40.3458 190.24 40.5218 190.309 40.6604 190.448C40.7991 190.587 40.8684 190.763 40.8684 190.976V201.36C40.8684 201.563 40.7938 201.733 40.6444 201.872C40.5058 202.011 40.3351 202.08 40.1324 202.08ZM44.0848 192.176C43.8608 192.176 43.6688 192.096 43.5088 191.936C43.3488 191.776 43.2688 191.584 43.2688 191.36V191.296C43.2688 191.072 43.3488 190.88 43.5088 190.72C43.6688 190.56 43.8608 190.48 44.0848 190.48H44.1808C44.4048 190.48 44.5968 190.56 44.7568 190.72C44.9168 190.88 44.9968 191.072 44.9968 191.296V191.36C44.9968 191.584 44.9168 191.776 44.7568 191.936C44.5968 192.096 44.4048 192.176 44.1808 192.176H44.0848ZM44.1168 202.08C43.9141 202.08 43.7435 202.011 43.6048 201.872C43.4661 201.733 43.3968 201.563 43.3968 201.36V194.496C43.3968 194.293 43.4661 194.123 43.6048 193.984C43.7435 193.835 43.9141 193.76 44.1168 193.76C44.3301 193.76 44.5061 193.829 44.6448 193.968C44.7835 194.107 44.8528 194.283 44.8528 194.496V201.36C44.8528 201.563 44.7781 201.733 44.6288 201.872C44.4901 202.011 44.3195 202.08 44.1168 202.08ZM48.1012 202.08C47.8985 202.08 47.7279 202.011 47.5892 201.872C47.4505 201.733 47.3812 201.563 47.3812 201.36V194.496C47.3812 194.293 47.4505 194.123 47.5892 193.984C47.7279 193.835 47.8985 193.76 48.1012 193.76C48.3039 193.76 48.4745 193.835 48.6132 193.984C48.7625 194.123 48.8372 194.293 48.8372 194.496V195.184C49.5839 194.181 50.4212 193.68 51.3492 193.68H51.4292C51.6319 193.68 51.7972 193.749 51.9252 193.888C52.0639 194.027 52.1332 194.197 52.1332 194.4C52.1332 194.603 52.0639 194.768 51.9252 194.896C51.7865 195.024 51.6105 195.088 51.3972 195.088H51.3172C50.8052 195.088 50.3359 195.216 49.9092 195.472C49.4825 195.717 49.1252 196.059 48.8372 196.496V201.36C48.8372 201.563 48.7625 201.733 48.6132 201.872C48.4745 202.011 48.3039 202.08 48.1012 202.08ZM56.9198 202.16C55.6185 202.16 54.5998 201.792 53.8638 201.056C53.1385 200.309 52.7758 199.264 52.7758 197.92C52.7758 197.163 52.9145 196.464 53.1918 195.824C53.4691 195.184 53.8958 194.667 54.4718 194.272C55.0478 193.877 55.7571 193.68 56.5998 193.68C57.3891 193.68 58.0718 193.867 58.6478 194.24C59.2238 194.603 59.6611 195.093 59.9598 195.712C60.2585 196.32 60.4078 196.987 60.4078 197.712C60.4078 197.915 60.3385 198.085 60.1998 198.224C60.0718 198.363 59.8958 198.432 59.6718 198.432H54.2478C54.3331 199.179 54.6105 199.76 55.0798 200.176C55.5491 200.592 56.2051 200.8 57.0478 200.8C57.4958 200.8 57.8851 200.757 58.2158 200.672C58.5571 200.587 58.8878 200.464 59.2078 200.304C59.2931 200.261 59.3891 200.24 59.4958 200.24C59.6665 200.24 59.8158 200.299 59.9438 200.416C60.0718 200.533 60.1358 200.683 60.1358 200.864C60.1358 201.099 59.9971 201.296 59.7198 201.456C59.3038 201.691 58.8931 201.867 58.4878 201.984C58.0825 202.101 57.5598 202.16 56.9198 202.16ZM58.9678 197.248C58.9358 196.725 58.7971 196.288 58.5518 195.936C58.3171 195.584 58.0238 195.328 57.6718 195.168C57.3198 194.997 56.9625 194.912 56.5998 194.912C56.2371 194.912 55.8798 194.997 55.5278 195.168C55.1758 195.328 54.8825 195.584 54.6478 195.936C54.4131 196.288 54.2798 196.725 54.2478 197.248H58.9678ZM68.5706 202.16C68.1012 202.16 67.6639 202.064 67.2586 201.872C66.8639 201.68 66.5492 201.403 66.3146 201.04C66.0799 200.667 65.9626 200.24 65.9626 199.76C65.9626 198.971 66.2719 198.341 66.8906 197.872C67.5199 197.403 68.4372 197.168 69.6426 197.168H71.5786V197.04C71.5786 196.336 71.4026 195.829 71.0506 195.52C70.7092 195.211 70.1706 195.056 69.4346 195.056C69.0292 195.056 68.6666 195.088 68.3466 195.152C68.0372 195.216 67.6906 195.312 67.3066 195.44C67.2212 195.461 67.1519 195.472 67.0986 195.472C66.9386 195.472 66.7999 195.413 66.6826 195.296C66.5652 195.179 66.5066 195.035 66.5066 194.864C66.5066 194.576 66.6452 194.373 66.9226 194.256C67.8292 193.872 68.7519 193.68 69.6906 193.68C70.4266 193.68 71.0452 193.829 71.5466 194.128C72.0586 194.427 72.4319 194.816 72.6666 195.296C72.9119 195.765 73.0346 196.277 73.0346 196.832V201.36C73.0346 201.563 72.9599 201.733 72.8106 201.872C72.6719 202.011 72.5012 202.08 72.2986 202.08C72.0959 202.08 71.9252 202.011 71.7866 201.872C71.6479 201.733 71.5786 201.563 71.5786 201.36V200.944C70.7892 201.755 69.7866 202.16 68.5706 202.16ZM69.1146 200.88C69.5839 200.88 70.0372 200.768 70.4746 200.544C70.9119 200.309 71.2799 200.021 71.5786 199.68V198.336H69.8346C68.2239 198.336 67.4186 198.757 67.4186 199.6C67.4186 199.984 67.5466 200.293 67.8026 200.528C68.0692 200.763 68.5066 200.88 69.1146 200.88ZM78.1964 202.16C77.6098 202.16 77.0978 202.021 76.6604 201.744C76.2338 201.467 75.9031 201.088 75.6684 200.608C75.4444 200.128 75.3324 199.6 75.3324 199.024V194.48C75.3324 194.277 75.4018 194.107 75.5404 193.968C75.6898 193.829 75.8658 193.76 76.0684 193.76C76.2711 193.76 76.4418 193.829 76.5804 193.968C76.7191 194.107 76.7884 194.277 76.7884 194.48V198.864C76.7884 200.165 77.3751 200.816 78.5484 200.816C79.0818 200.816 79.5564 200.677 79.9724 200.4C80.3991 200.123 80.7991 199.749 81.1724 199.28V194.48C81.1724 194.277 81.2418 194.107 81.3804 193.968C81.5298 193.829 81.7058 193.76 81.9084 193.76C82.1111 193.76 82.2818 193.829 82.4204 193.968C82.5591 194.107 82.6284 194.277 82.6284 194.48V201.344C82.6284 201.547 82.5591 201.723 82.4204 201.872C82.2818 202.011 82.1111 202.08 81.9084 202.08C81.7058 202.08 81.5298 202.011 81.3804 201.872C81.2418 201.723 81.1724 201.547 81.1724 201.344V200.688C80.7671 201.136 80.3298 201.493 79.8604 201.76C79.3911 202.027 78.8364 202.16 78.1964 202.16ZM87.9784 202.16C86.4211 202.16 85.6424 201.456 85.6424 200.048V195.088H84.5064C84.4211 195.088 84.3464 195.061 84.2824 195.008C84.2291 194.944 84.2024 194.869 84.2024 194.784C84.2024 194.677 84.2504 194.587 84.3464 194.512L86.5224 192.384C86.6184 192.288 86.7091 192.24 86.7944 192.24C86.8798 192.24 86.9491 192.272 87.0024 192.336C87.0664 192.4 87.0984 192.475 87.0984 192.56V193.84H88.9064C89.0878 193.84 89.2371 193.899 89.3544 194.016C89.4718 194.133 89.5304 194.283 89.5304 194.464C89.5304 194.635 89.4718 194.784 89.3544 194.912C89.2371 195.029 89.0878 195.088 88.9064 195.088H87.0984V199.92C87.0984 200.336 87.1944 200.603 87.3864 200.72C87.5891 200.827 87.8398 200.88 88.1384 200.88C88.3518 200.88 88.5651 200.848 88.7784 200.784C88.8211 200.773 88.8638 200.763 88.9064 200.752C88.9598 200.741 89.0238 200.736 89.0984 200.736C89.2478 200.736 89.3811 200.795 89.4984 200.912C89.6158 201.019 89.6744 201.152 89.6744 201.312C89.6744 201.557 89.5518 201.744 89.3064 201.872C88.8904 202.064 88.4478 202.16 87.9784 202.16ZM91.9918 202.08C91.7891 202.08 91.6185 202.011 91.4798 201.872C91.3411 201.733 91.2718 201.563 91.2718 201.36V194.496C91.2718 194.293 91.3411 194.123 91.4798 193.984C91.6185 193.835 91.7891 193.76 91.9918 193.76C92.1945 193.76 92.3651 193.835 92.5038 193.984C92.6531 194.123 92.7278 194.293 92.7278 194.496V195.184C93.4745 194.181 94.3118 193.68 95.2398 193.68H95.3198C95.5225 193.68 95.6878 193.749 95.8158 193.888C95.9545 194.027 96.0238 194.197 96.0238 194.4C96.0238 194.603 95.9545 194.768 95.8158 194.896C95.6771 195.024 95.5011 195.088 95.2878 195.088H95.2078C94.6958 195.088 94.2265 195.216 93.7998 195.472C93.3731 195.717 93.0158 196.059 92.7278 196.496V201.36C92.7278 201.563 92.6531 201.733 92.5038 201.872C92.3651 202.011 92.1945 202.08 91.9918 202.08ZM100.81 202.16C99.5091 202.16 98.4904 201.792 97.7544 201.056C97.0291 200.309 96.6664 199.264 96.6664 197.92C96.6664 197.163 96.8051 196.464 97.0824 195.824C97.3598 195.184 97.7864 194.667 98.3624 194.272C98.9384 193.877 99.6478 193.68 100.49 193.68C101.28 193.68 101.962 193.867 102.538 194.24C103.114 194.603 103.552 195.093 103.85 195.712C104.149 196.32 104.298 196.987 104.298 197.712C104.298 197.915 104.229 198.085 104.09 198.224C103.962 198.363 103.786 198.432 103.562 198.432H98.1384C98.2238 199.179 98.5011 199.76 98.9704 200.176C99.4398 200.592 100.096 200.8 100.938 200.8C101.386 200.8 101.776 200.757 102.106 200.672C102.448 200.587 102.778 200.464 103.098 200.304C103.184 200.261 103.28 200.24 103.386 200.24C103.557 200.24 103.706 200.299 103.834 200.416C103.962 200.533 104.026 200.683 104.026 200.864C104.026 201.099 103.888 201.296 103.61 201.456C103.194 201.691 102.784 201.867 102.378 201.984C101.973 202.101 101.45 202.16 100.81 202.16ZM102.858 197.248C102.826 196.725 102.688 196.288 102.442 195.936C102.208 195.584 101.914 195.328 101.562 195.168C101.21 194.997 100.853 194.912 100.49 194.912C100.128 194.912 99.7704 194.997 99.4184 195.168C99.0664 195.328 98.7731 195.584 98.5384 195.936C98.3038 196.288 98.1704 196.725 98.1384 197.248H102.858ZM106.945 202.08C106.742 202.08 106.572 202.011 106.433 201.872C106.294 201.733 106.225 201.563 106.225 201.36V194.496C106.225 194.293 106.294 194.123 106.433 193.984C106.572 193.835 106.742 193.76 106.945 193.76C107.148 193.76 107.318 193.835 107.457 193.984C107.606 194.123 107.681 194.293 107.681 194.496V195.152C107.98 194.725 108.337 194.373 108.753 194.096C109.18 193.819 109.729 193.68 110.401 193.68C110.998 193.68 111.51 193.84 111.937 194.16C112.364 194.48 112.668 194.869 112.849 195.328C113.51 194.229 114.492 193.68 115.793 193.68C116.39 193.68 116.886 193.829 117.281 194.128C117.686 194.427 117.985 194.811 118.177 195.28C118.369 195.749 118.465 196.24 118.465 196.752V201.36C118.465 201.563 118.39 201.733 118.241 201.872C118.102 202.011 117.932 202.08 117.729 202.08C117.526 202.08 117.356 202.011 117.217 201.872C117.078 201.733 117.009 201.563 117.009 201.36V197.04C117.009 196.347 116.886 195.84 116.641 195.52C116.396 195.189 115.974 195.024 115.377 195.024C114.833 195.024 114.38 195.168 114.017 195.456C113.665 195.733 113.35 196.101 113.073 196.56V201.36C113.073 201.563 112.998 201.733 112.849 201.872C112.71 202.011 112.54 202.08 112.337 202.08C112.134 202.08 111.964 202.011 111.825 201.872C111.686 201.733 111.617 201.563 111.617 201.36V197.04C111.617 196.347 111.494 195.84 111.249 195.52C111.004 195.189 110.582 195.024 109.985 195.024C109.441 195.024 108.988 195.168 108.625 195.456C108.273 195.733 107.958 196.101 107.681 196.56V201.36C107.681 201.563 107.606 201.733 107.457 201.872C107.318 202.011 107.148 202.08 106.945 202.08ZM124.56 202.16C123.259 202.16 122.24 201.792 121.504 201.056C120.779 200.309 120.416 199.264 120.416 197.92C120.416 197.163 120.555 196.464 120.832 195.824C121.11 195.184 121.536 194.667 122.112 194.272C122.688 193.877 123.398 193.68 124.24 193.68C125.03 193.68 125.712 193.867 126.288 194.24C126.864 194.603 127.302 195.093 127.6 195.712C127.899 196.32 128.048 196.987 128.048 197.712C128.048 197.915 127.979 198.085 127.84 198.224C127.712 198.363 127.536 198.432 127.312 198.432H121.888C121.974 199.179 122.251 199.76 122.72 200.176C123.19 200.592 123.846 200.8 124.688 200.8C125.136 200.8 125.526 200.757 125.856 200.672C126.198 200.587 126.528 200.464 126.848 200.304C126.934 200.261 127.03 200.24 127.136 200.24C127.307 200.24 127.456 200.299 127.584 200.416C127.712 200.533 127.776 200.683 127.776 200.864C127.776 201.099 127.638 201.296 127.36 201.456C126.944 201.691 126.534 201.867 126.128 201.984C125.723 202.101 125.2 202.16 124.56 202.16ZM126.608 197.248C126.576 196.725 126.438 196.288 126.192 195.936C125.958 195.584 125.664 195.328 125.312 195.168C124.96 194.997 124.603 194.912 124.24 194.912C123.878 194.912 123.52 194.997 123.168 195.168C122.816 195.328 122.523 195.584 122.288 195.936C122.054 196.288 121.92 196.725 121.888 197.248H126.608ZM130.695 202.08C130.492 202.08 130.322 202.011 130.183 201.872C130.044 201.733 129.975 201.563 129.975 201.36V194.496C129.975 194.293 130.044 194.123 130.183 193.984C130.322 193.835 130.492 193.76 130.695 193.76C130.898 193.76 131.068 193.835 131.207 193.984C131.356 194.123 131.431 194.293 131.431 194.496V195.152C131.836 194.704 132.274 194.347 132.743 194.08C133.212 193.813 133.767 193.68 134.407 193.68C134.994 193.68 135.5 193.819 135.927 194.096C136.364 194.373 136.695 194.752 136.919 195.232C137.154 195.712 137.271 196.24 137.271 196.816V201.36C137.271 201.563 137.196 201.733 137.047 201.872C136.908 202.011 136.738 202.08 136.535 202.08C136.332 202.08 136.162 202.011 136.023 201.872C135.884 201.733 135.815 201.563 135.815 201.36V196.976C135.815 195.675 135.228 195.024 134.055 195.024C133.522 195.024 133.042 195.163 132.615 195.44C132.199 195.717 131.804 196.091 131.431 196.56V201.36C131.431 201.563 131.356 201.733 131.207 201.872C131.068 202.011 130.898 202.08 130.695 202.08ZM142.353 202.16C140.796 202.16 140.017 201.456 140.017 200.048V195.088H138.881C138.796 195.088 138.721 195.061 138.657 195.008C138.604 194.944 138.577 194.869 138.577 194.784C138.577 194.677 138.625 194.587 138.721 194.512L140.897 192.384C140.993 192.288 141.084 192.24 141.169 192.24C141.255 192.24 141.324 192.272 141.377 192.336C141.441 192.4 141.473 192.475 141.473 192.56V193.84H143.281C143.463 193.84 143.612 193.899 143.729 194.016C143.847 194.133 143.905 194.283 143.905 194.464C143.905 194.635 143.847 194.784 143.729 194.912C143.612 195.029 143.463 195.088 143.281 195.088H141.473V199.92C141.473 200.336 141.569 200.603 141.761 200.72C141.964 200.827 142.215 200.88 142.513 200.88C142.727 200.88 142.94 200.848 143.153 200.784C143.196 200.773 143.239 200.763 143.281 200.752C143.335 200.741 143.399 200.736 143.473 200.736C143.623 200.736 143.756 200.795 143.873 200.912C143.991 201.019 144.049 201.152 144.049 201.312C144.049 201.557 143.927 201.744 143.681 201.872C143.265 202.064 142.823 202.16 142.353 202.16ZM146.383 202.048C146.137 202.048 145.924 201.963 145.743 201.792C145.572 201.611 145.487 201.397 145.487 201.152V201.056C145.487 200.811 145.572 200.603 145.743 200.432C145.924 200.251 146.137 200.16 146.383 200.16H146.543C146.788 200.16 146.996 200.251 147.167 200.432C147.348 200.603 147.439 200.811 147.439 201.056V201.152C147.439 201.397 147.348 201.611 147.167 201.792C146.996 201.963 146.788 202.048 146.543 202.048H146.383ZM150.539 202.048C150.294 202.048 150.08 201.963 149.899 201.792C149.728 201.611 149.643 201.397 149.643 201.152V201.056C149.643 200.811 149.728 200.603 149.899 200.432C150.08 200.251 150.294 200.16 150.539 200.16H150.699C150.944 200.16 151.152 200.251 151.323 200.432C151.504 200.603 151.595 200.811 151.595 201.056V201.152C151.595 201.397 151.504 201.611 151.323 201.792C151.152 201.963 150.944 202.048 150.699 202.048H150.539ZM154.695 202.048C154.45 202.048 154.237 201.963 154.055 201.792C153.885 201.611 153.799 201.397 153.799 201.152V201.056C153.799 200.811 153.885 200.603 154.055 200.432C154.237 200.251 154.45 200.16 154.695 200.16H154.855C155.101 200.16 155.309 200.251 155.479 200.432C155.661 200.603 155.751 200.811 155.751 201.056V201.152C155.751 201.397 155.661 201.611 155.479 201.792C155.309 201.963 155.101 202.048 154.855 202.048H154.695Z" fill="black"/>
<defs>
<clipPath id="clip0">
<rect width="171" height="127" fill="white"/>
</clipPath>
</defs>
</svg>
